<svg width="34" height="34" viewBox="0 0 34 34" fill="none" xmlns="http://www.w3.org/2000/svg">
<path d="M7.79195 0.595703C8.06238 0.595703 8.32174 0.703132 8.51296 0.894356C8.70419 1.08558 8.81161 1.34494 8.81161 1.61537V2.63503H25.1262V1.61537C25.1262 1.34494 25.2337 1.08558 25.4249 0.894356C25.6161 0.703132 25.8755 0.595703 26.1459 0.595703C26.4163 0.595703 26.6757 0.703132 26.8669 0.894356C27.0581 1.08558 27.1656 1.34494 27.1656 1.61537V2.63503H29.2049C30.2866 2.63503 31.3241 3.06475 32.089 3.82964C32.8539 4.59454 33.2836 5.63196 33.2836 6.71369V29.1463C33.2836 30.228 32.8539 31.2655 32.089 32.0304C31.3241 32.7953 30.2866 33.225 29.2049 33.225H4.73296C3.65123 33.225 2.61381 32.7953 1.84891 32.0304C1.08401 31.2655 0.654297 30.228 0.654297 29.1463V6.71369C0.654297 5.63196 1.08401 4.59454 1.84891 3.82964C2.61381 3.06475 3.65123 2.63503 4.73296 2.63503H6.77228V1.61537C6.77228 1.34494 6.87971 1.08558 7.07094 0.894356C7.26216 0.703132 7.52152 0.595703 7.79195 0.595703V0.595703ZM4.73296 7.73336V9.77269C4.73296 10.3355 5.23055 10.7923 5.84439 10.7923H28.0935C28.7053 10.7923 29.2049 10.3355 29.2049 9.77269V7.73336C29.2049 7.1705 28.7073 6.71369 28.0914 6.71369H5.84439C5.23259 6.71369 4.73296 7.1705 4.73296 7.73336ZM17.9886 17.93C17.9886 17.6596 17.8812 17.4002 17.6899 17.209C17.4987 17.0178 17.2394 16.9103 16.9689 16.9103C16.6985 16.9103 16.4391 17.0178 16.2479 17.209C16.0567 17.4002 15.9493 17.6596 15.9493 17.93V20.989H12.8903C12.6198 20.989 12.3605 21.0964 12.1693 21.2876C11.978 21.4789 11.8706 21.7382 11.8706 22.0087C11.8706 22.2791 11.978 22.5384 12.1693 22.7297C12.3605 22.9209 12.6198 23.0283 12.8903 23.0283H15.9493V26.0873C15.9493 26.3578 16.0567 26.6171 16.2479 26.8083C16.4391 26.9996 16.6985 27.107 16.9689 27.107C17.2394 27.107 17.4987 26.9996 17.6899 26.8083C17.8812 26.6171 17.9886 26.3578 17.9886 26.0873V23.0283H21.0476C21.318 23.0283 21.5774 22.9209 21.7686 22.7297C21.9598 22.5384 22.0673 22.2791 22.0673 22.0087C22.0673 21.7382 21.9598 21.4789 21.7686 21.2876C21.5774 21.0964 21.318 20.989 21.0476 20.989H17.9886V17.93Z" fill="#806037"/>
</svg>
