<svg width="42" height="42" viewBox="0 0 42 42" fill="none" xmlns="http://www.w3.org/2000/svg">
<path d="M41.546 21.23C41.546 26.6956 39.3748 31.9373 35.5101 35.8021C31.6453 39.6668 26.4036 41.838 20.938 41.838C15.4725 41.838 10.2308 39.6668 6.36601 35.8021C2.50127 31.9373 0.330078 26.6956 0.330078 21.23C0.330078 15.7645 2.50127 10.5227 6.36601 6.658C10.2308 2.79326 15.4725 0.62207 20.938 0.62207C26.4036 0.62207 31.6453 2.79326 35.5101 6.658C39.3748 10.5227 41.546 15.7645 41.546 21.23ZM14.122 12.5901C13.8801 12.3483 13.5521 12.2124 13.2101 12.2124C12.868 12.2124 12.54 12.3483 12.2981 12.5901C12.0563 12.832 11.9204 13.16 11.9204 13.502C11.9204 13.8441 12.0563 14.1721 12.2981 14.4139L19.1168 21.23L12.2981 28.0461C12.1784 28.1659 12.0834 28.308 12.0186 28.4645C11.9538 28.621 11.9204 28.7887 11.9204 28.958C11.9204 29.1274 11.9538 29.2951 12.0186 29.4515C12.0834 29.608 12.1784 29.7502 12.2981 29.8699C12.54 30.1118 12.868 30.2476 13.2101 30.2476C13.3794 30.2476 13.5471 30.2143 13.7036 30.1495C13.86 30.0847 14.0022 29.9897 14.122 29.8699L20.938 23.0513L27.7541 29.8699C27.8739 29.9897 28.016 30.0847 28.1725 30.1495C28.329 30.2143 28.4967 30.2476 28.666 30.2476C28.8354 30.2476 29.0031 30.2143 29.1595 30.1495C29.316 30.0847 29.4582 29.9897 29.5779 29.8699C29.6977 29.7502 29.7927 29.608 29.8575 29.4515C29.9223 29.2951 29.9556 29.1274 29.9556 28.958C29.9556 28.7887 29.9223 28.621 29.8575 28.4645C29.7927 28.308 29.6977 28.1659 29.5779 28.0461L22.7593 21.23L29.5779 14.4139C29.6977 14.2942 29.7927 14.152 29.8575 13.9956C29.9223 13.8391 29.9556 13.6714 29.9556 13.502C29.9556 13.3327 29.9223 13.165 29.8575 13.0085C29.7927 12.8521 29.6977 12.7099 29.5779 12.5901C29.4582 12.4704 29.316 12.3754 29.1595 12.3106C29.0031 12.2458 28.8354 12.2124 28.666 12.2124C28.4967 12.2124 28.329 12.2458 28.1725 12.3106C28.016 12.3754 27.8739 12.4704 27.7541 12.5901L20.938 19.4088L14.122 12.5901Z" fill="#FBEBD2"/>
</svg>
