<svg width="35" height="35" viewBox="0 0 35 35" fill="none" xmlns="http://www.w3.org/2000/svg">
<path d="M25.5463 2.20312H4.31854C3.74921 2.20313 3.20319 2.42929 2.80062 2.83187C2.39804 3.23444 2.17188 3.78046 2.17188 4.34979V30.1097C2.17188 30.6791 2.39804 31.2251 2.80062 31.6277C3.20319 32.0302 3.74921 32.2564 4.31854 32.2564H30.0785C30.6473 32.2548 31.1924 32.0281 31.5946 31.6259C31.9969 31.2237 32.2236 30.6786 32.2251 30.1097V8.88193L25.5463 2.20312ZM7.53853 11.8631V7.56978H20.4185V11.8631H7.53853ZM22.5591 23.922C22.5103 24.9608 22.1606 25.9631 21.5527 26.8069C20.9448 27.6507 20.1048 28.2997 19.1349 28.675C18.165 29.0502 17.107 29.1356 16.0894 28.9207C15.0719 28.7058 14.1387 28.1999 13.4034 27.4645C12.668 26.729 12.1622 25.7958 11.9474 24.7782C11.7327 23.7607 11.8182 22.7026 12.1935 21.7328C12.5689 20.7629 13.218 19.923 14.0619 19.3152C14.9058 18.7074 15.9081 18.3579 16.9469 18.3091C17.6928 18.2763 18.4372 18.399 19.133 18.6695C19.8288 18.9399 20.4608 19.3522 20.9886 19.8801C21.5165 20.408 21.9287 21.04 22.199 21.7358C22.4694 22.4317 22.5921 23.1762 22.5591 23.922Z" fill="#FBEBD2"/>
</svg>
