<svg width="360" height="819" viewBox="0 0 360 819" fill="none" xmlns="http://www.w3.org/2000/svg">
<g clip-path="url(#clip0_404_12353)">
<g filter="url(#filter0_i_404_12353)">
<path d="M180 147C334.087 147 459 165.132 459 187.5C459 199.931 420.418 211.053 359.688 218.482V819H-0.3125V218.406C-60.6822 210.977 -99 199.888 -99 187.5C-99 165.132 25.9126 147 180 147Z" fill="url(#paint0_linear_404_12353)"/>
</g>
<g filter="url(#filter1_di_404_12353)">
<path d="M179.688 180C279.098 180 359.687 198.033 359.688 220.277V852H-0.3125V220.277C-0.311873 198.033 80.2766 180 179.688 180Z" fill="url(#paint1_linear_404_12353)"/>
</g>
</g>
<g opacity="0.7" filter="url(#filter2_d_404_12353)">
<path fill-rule="evenodd" clip-rule="evenodd" d="M-33.8506 848.741C-15.9087 849.869 5.39706 848.365 22.2176 846.234C33.4313 844.855 63.4277 840.969 71.5575 836.959C64.5489 820.163 16.05 811.263 0.63129 842.599C-6.09673 839.842 -9.7411 836.959 -18.4318 838.714C-23.478 839.842 -27.1223 842.098 -30.7667 845.106C-33.2899 847.362 -32.1685 845.607 -33.8506 848.741Z" fill="#FCDEB5"/>
<path fill-rule="evenodd" clip-rule="evenodd" d="M751.943 504.426L751.663 539.772C744.374 537.14 736.805 538.268 734.282 544.285C733.161 541.778 734.002 541.402 732.6 539.522C732.32 540.274 732.6 541.527 732.32 541.652C732.32 543.407 732.32 542.655 732.039 543.533C728.956 536.513 715.499 527.113 703.164 530.372C689.988 534.007 686.624 546.29 682.419 552.933C664.197 552.683 656.067 558.824 648.498 569.729C637.565 585.773 639.247 597.555 637.284 608.334C637.004 610.465 637.284 609.212 636.724 610.465C637.565 616.732 639.527 622.373 642.611 626.384C644.012 628.264 646.255 630.645 648.217 632.149C651.301 634.155 652.983 633.528 653.544 636.411C657.469 632.024 654.665 627.136 664.197 625.882C665.318 611.593 672.607 607.081 684.381 604.324C684.942 598.182 686.344 595.173 689.708 592.917C688.306 596.928 684.662 603.195 689.147 608.836L692.511 612.596C679.055 614.978 674.569 629.016 682.139 641.3C668.682 642.302 667.281 634.656 664.477 628.891C659.992 630.269 656.908 634.656 655.787 639.921C653.544 648.444 656.628 650.45 656.628 656.34C657.469 658.095 655.506 657.218 658.31 658.597C661.674 658.847 661.954 658.471 664.477 660.477C667.561 656.34 667.281 653.583 674.009 655.463C674.569 647.943 677.092 646.062 684.101 646.94C685.503 643.43 685.503 643.305 688.586 642.302C685.503 647.065 685.503 646.062 685.503 653.082C679.335 653.959 677.934 655.338 677.934 662.232C670.645 660.477 669.523 663.485 668.402 671.006C666.72 668.123 665.879 665.49 662.795 664.237C653.824 660.226 656.908 674.891 645.694 680.908C645.414 680.782 645.414 680.406 645.414 680.281L644.573 677.523C641.489 671.507 631.117 677.022 628.594 682.662C623.267 695.322 634.201 703.72 634.761 704.723C637.004 702.341 638.125 700.962 641.489 699.458C640.929 691.938 641.77 689.431 646.536 686.047C643.171 694.319 643.452 693.818 645.975 703.093C639.807 704.973 637.284 708.483 638.406 717.131C633.079 713.747 637.284 710.99 630.836 708.483C626.912 706.853 625.51 708.232 624.108 710.614C624.108 710.864 623.548 711.616 623.548 711.742L622.707 712.87C615.698 712.744 610.091 714.499 606.727 719.388C605.045 721.644 603.924 724.401 604.765 727.785C605.606 733.175 607.288 731.044 609.25 735.055C605.606 736.183 601.681 738.189 598.037 735.306C596.074 733.927 595.513 732.549 594.953 730.418L594.392 726.657C594.112 726.532 594.112 726.156 594.112 725.905C592.991 722.271 588.225 723.774 586.262 725.655C583.739 727.911 583.179 733.301 583.179 732.674C582.898 732.549 582.898 733.175 582.618 733.426C580.656 723.273 586.543 717.257 594.392 722.521C596.635 719.388 596.355 716.379 600.279 712.368C602.802 709.862 607.568 708.232 610.932 706.477C605.606 703.97 596.074 706.979 591.589 710.488L596.074 712.87L593.551 713.622C587.664 715.502 590.187 719.764 588.785 717.131C588.785 716.881 588.505 717.507 588.505 717.633C585.421 713.622 582.338 715.251 578.973 716.63C577.291 717.257 579.254 718.009 573.367 716.254C562.714 712.995 554.584 717.507 552.061 729.54C558.228 727.911 557.948 728.412 562.994 730.794C553.463 731.17 549.818 733.426 551.78 744.832C545.052 744.456 546.454 745.083 542.529 748.968C542.529 742.451 542.81 742.576 546.734 740.32C545.333 739.066 543.651 738.064 541.688 739.693C539.726 741.323 541.128 740.069 540.006 742.451L538.885 745.208C537.483 740.194 539.165 738.565 535.24 737.186C532.437 736.309 532.717 736.935 530.755 737.061C529.914 737.061 529.634 737.186 528.793 737.061C525.989 736.685 529.353 738.314 527.11 736.309C530.194 734.805 533.278 733.175 537.483 735.181L538.885 722.271C526.269 724.401 525.428 733.301 522.345 737.562C519.822 734.429 518.7 733.175 514.215 735.682C503.282 741.573 503.001 756.74 507.767 763.884L504.123 767.394C503.001 769.274 503.001 770.652 503.282 773.159C505.524 771.53 506.646 768.898 510.29 768.647C507.767 784.064 496.834 776.168 491.507 788.827C492.909 790.582 494.03 790.331 495.712 792.713C488.984 791.961 479.733 790.582 476.93 799.857L474.967 807.503C474.407 805.498 472.724 802.74 473.285 800.484C470.202 804.119 470.762 807.879 471.323 813.77C474.126 815.651 477.49 816.277 479.453 819.285C473.566 818.283 467.678 815.901 462.072 819.035C455.344 822.92 456.745 827.809 453.661 832.446C450.858 836.833 426.188 838.588 419.18 837.961C421.703 837.961 432.916 832.697 435.72 831.318C444.41 827.182 442.728 825.302 454.222 826.806C455.624 816.027 457.025 814.522 466.557 813.77L462.352 812.893L461.23 807.252C446.373 801.988 448.335 798.353 439.084 803.618C434.598 794.593 427.59 788.075 414.133 791.71C408.807 782.309 400.677 785.694 396.472 794.844C392.827 790.457 382.175 787.574 376.287 803.994C365.635 798.353 358.626 800.484 347.973 803.868C346.291 801.863 346.011 800.735 344.048 799.857L341.525 799.356C341.245 799.356 340.965 799.231 340.965 799.231L339.843 798.98C334.797 770.151 322.182 781.181 316.855 779.427C314.893 778.8 313.491 776.168 309.006 775.666C298.353 774.287 294.428 783.187 294.148 795.22C286.018 797.476 287.42 796.849 284.336 805.372C280.691 800.735 277.608 794.217 269.758 793.59C260.507 792.838 257.703 799.732 253.498 803.492C251.256 798.729 247.051 793.214 240.323 793.465C233.314 793.59 231.071 799.105 227.707 803.242C221.259 791.209 213.41 795.345 212.569 808.004C206.401 806.876 203.598 808.381 201.916 814.272C198.271 811.013 195.748 809.759 189.02 810.01C187.338 804.62 185.376 801.111 179.208 800.735C174.162 800.359 176.125 801.361 172.76 797.977C162.668 786.822 150.053 790.206 145.287 802.866C141.923 801.361 140.802 799.481 137.157 797.852C130.99 794.969 134.073 796.473 130.709 792.212C125.383 786.07 115.851 786.32 113.889 784.189L109.964 776.669C105.759 784.064 100.713 786.32 92.0224 784.44C78.0055 781.432 80.5284 771.906 78.5662 770.026C75.7626 768.647 72.3986 768.271 70.4362 771.029C68.1935 773.786 70.4362 774.914 70.4362 779.427C58.1013 762.756 50.532 771.029 39.3185 774.914C42.4022 771.405 43.2432 768.898 48.2894 767.018C47.7287 755.361 43.5236 745.459 37.9168 740.821C29.5066 733.802 20.2552 736.685 10.7236 739.066C12.9664 737.562 13.2468 736.559 16.0501 735.557C14.3682 734.429 15.4894 735.682 14.6486 733.05C14.3682 732.173 14.3682 730.543 13.8075 729.29C6.7989 727.159 9.60245 730.418 4.83667 731.421C-3.29335 724.527 -1.33089 715.627 7.92032 711.366C1.19206 709.736 2.87419 708.107 0.631363 705.6C-3.57372 709.611 -8.05913 712.368 -15.0675 710.238C-22.3565 713.246 -23.4779 700.837 -33.0094 706.352C-41.4196 711.366 -37.7752 719.012 -34.411 725.655C-48.4282 720.892 -67.7717 725.028 -72.2571 738.064C-76.7425 732.423 -91.0398 728.914 -94.1235 736.309C-94.4038 732.674 -94.1235 732.799 -95.5253 730.042C-93.8431 747.84 -91.6005 732.173 -89.6381 753.731C-79.2655 754.107 -70.575 758.118 -71.9767 770.652C-73.939 766.516 -74.4997 763.759 -78.4244 761.252C-82.069 758.745 -86.5544 758.996 -91.0398 759.497C-102.254 742.451 -117.672 750.598 -121.317 764.887C-117.392 767.143 -112.626 769.775 -110.383 772.658C-109.262 774.037 -107.86 776.669 -107.019 778.8C-104.776 784.064 -106.739 782.435 -101.973 784.189C-91.6006 787.95 -95.8056 793.465 -90.1988 795.721C-88.797 796.222 -87.956 796.222 -86.5544 796.974C-83.4705 798.478 -82.9098 799.481 -81.7886 802.866C-76.4622 800.233 -77.3032 800.609 -71.1357 799.857C-64.6878 782.059 -46.4657 792.086 -42.2606 799.607C-38.8964 805.874 -40.8589 801.361 -35.8127 804.37C-29.6452 808.004 -34.411 814.898 -33.8505 817.906C-33.8505 820.539 -29.6452 825.051 -35.8127 831.945C-38.3359 831.067 -36.0931 831.819 -37.7752 830.19C-38.6163 829.187 -36.3734 829.563 -40.2982 828.059C-39.4571 834.076 -34.6913 837.711 -38.8964 843.602C-37.7752 835.956 -40.0178 826.305 -50.6708 833.449C-54.5955 827.057 -55.1562 823.422 -64.9681 826.43C-65.5288 816.653 -70.575 814.773 -80.1065 815.274C-76.4621 812.768 -72.8178 812.266 -68.052 813.77C-62.7255 815.4 -62.7255 817.53 -60.4827 821.667L-53.7544 819.035C-54.8759 810.637 -58.5202 809.133 -66.0895 811.013C-72.2571 812.517 -70.0143 806.5 -82.6297 811.013C-86.2741 802.364 -95.8056 800.985 -101.693 808.13C-98.6089 809.885 -98.8893 808.255 -96.6467 812.015C-100.852 810.637 -101.693 811.89 -104.496 811.013C-105.337 810.762 -104.776 810.261 -107.86 809.885L-105.898 807.628C-113.747 803.868 -116.831 804.746 -123.279 808.255C-121.036 803.492 -114.308 800.484 -109.262 805.122C-105.898 800.359 -104.496 804.746 -100.291 797.852C-114.028 791.585 -98.0482 774.538 -126.923 772.783C-128.605 759.873 -131.129 753.731 -142.903 752.227C-145.146 739.568 -152.715 734.178 -164.769 737.813C-168.414 731.295 -167.573 727.033 -173.179 721.393C-177.104 717.382 -182.991 715.001 -190 714.75V745.835C-176.824 747.966 -167.853 758.996 -163.087 770.402C-155.799 787.699 -158.041 800.86 -160.284 819.536C-149.351 816.653 -142.903 818.032 -138.137 826.931C-137.576 820.539 -140.94 819.285 -144.024 815.4C-140.66 812.015 -135.334 810.762 -130.568 810.887C-125.241 810.887 -121.036 812.642 -117.112 814.898C-113.467 817.154 -110.103 820.539 -107.86 823.672C-104.496 827.809 -103.935 832.07 -101.132 836.833C-88.5166 835.58 -84.8723 836.457 -78.4244 845.231C-63.0059 846.359 -49.5494 848.615 -33.8505 848.741C-32.1684 845.607 -33.2898 847.362 -30.7666 845.106C-27.1222 842.097 -23.4779 839.842 -18.4317 838.713C-9.74103 836.959 -6.09666 839.842 0.631363 842.599C16.0501 811.263 64.549 820.163 71.5576 836.959C74.0805 836.457 75.4823 835.956 77.7251 835.329C80.2481 834.577 82.2105 834.326 83.8924 832.446C78.8463 832.948 74.9216 833.324 74.0805 826.931L79.1266 824.8C77.7251 816.778 72.679 818.659 69.3147 822.544C67.0721 809.634 58.3817 806.751 46.0466 806.5C47.4483 803.994 49.6909 802.615 48.009 799.983C46.6073 797.476 43.5236 797.726 41.0004 798.353C42.9629 800.359 42.6825 800.609 42.1218 804.119C30.6278 811.263 29.2263 797.35 25.3013 793.339C18.0126 786.32 9.8828 788.075 2.31349 792.713C1.19208 791.585 2.31348 792.713 1.19206 791.209C0.631348 790.833 0.351242 790.206 -0.209473 789.705C-4.41476 785.192 -7.49843 787.198 -10.5821 789.579C-22.6368 779.928 -10.3017 775.04 -0.209473 781.808L0.911728 780.805C3.99562 777.797 5.95784 775.666 11.2843 776.669C15.7697 777.421 19.4144 781.683 21.3766 783.813C32.0296 778.675 34.8329 782.56 38.7578 788.326C39.879 789.955 39.0382 788.953 40.1593 790.081L42.6825 785.067C49.1304 784.816 50.2516 787.198 49.4108 794.467C53.8962 795.47 55.0174 797.601 55.2978 802.991C63.9885 801.863 70.4361 805.748 71.8379 814.397C83.3319 812.517 87.537 814.522 90.06 826.681C97.0686 827.558 99.0308 828.31 100.713 834.828C108.282 833.825 133.513 832.822 136.877 839.34C146.128 839.591 154.538 841.345 164.631 841.596C174.442 841.721 184.254 841.095 193.786 841.22C190.422 842.474 169.677 844.228 164.631 844.604L103.236 849.869C98.19 850.245 92.8635 850.12 87.537 850.621C85.0138 850.872 82.4909 850.997 79.6873 851.122C78.5662 851.122 76.8841 851.122 75.7626 851.122C74.6412 851.248 74.3609 851.248 73.5201 851.498L71.8379 851.999H450.297C444.691 848.615 441.887 851.248 436 844.604C431.515 847.863 430.954 845.607 426.749 846.861C425.627 847.111 424.506 848.365 422.824 848.991C420.862 849.744 418.619 849.869 416.376 849.618C411.891 848.991 411.61 847.111 407.405 846.735C385.258 845.356 383.296 849.618 357.224 836.833C370.961 838.964 371.241 843.226 397.033 843.727C416.096 844.103 432.355 840.217 439.644 840.343C461.23 844.103 475.808 844.354 489.825 820.163C508.328 819.285 522.064 811.765 518.14 789.705C530.194 787.699 529.914 788.451 538.885 793.59C534.68 775.666 518.14 779.427 511.411 779.301C518.981 775.165 522.905 771.781 532.998 770.276C537.203 769.65 541.688 769.775 545.893 770.778C559.91 773.911 552.622 776.669 562.433 786.07C564.956 788.326 568.881 790.206 572.806 791.083C583.179 793.59 589.066 790.206 597.476 787.448C584.58 788.326 574.488 789.955 565.517 780.805C554.864 769.9 561.592 761.503 573.647 757.617C579.534 755.737 585.702 755.612 591.589 757.116C600.56 759.497 598.037 756.99 606.727 755.11C612.334 753.731 618.782 753.982 624.108 756.113C629.435 758.244 631.397 760.374 634.481 764.009C635.322 765.138 634.761 764.636 635.883 765.514C645.695 759.372 655.226 751.35 670.084 756.99C679.896 760.75 685.503 769.149 689.988 778.424L692.231 781.683C693.913 777.922 694.754 773.786 696.436 769.9C700.641 760.249 706.248 749.094 712.976 741.824C714.378 740.32 714.939 739.442 716.62 737.688C718.022 736.183 719.144 735.306 720.826 734.053C723.349 731.922 725.872 729.916 729.236 728.036C735.964 724.401 743.533 722.02 751.943 721.644C751.943 723.649 751.102 783.187 752.224 794.342V792.337V790.958V789.705V788.326V787.072V785.694V784.315V783.061V781.683V780.304V752.478V751.099V749.595V748.216V746.837V745.459V743.955V742.576V741.197V739.818V738.314V736.935V735.557V734.178V732.799V731.421V729.916V728.538V440H751.943V504.426Z" fill="#F8DEC6"/>
<path fill-rule="evenodd" clip-rule="evenodd" d="M-48.1476 617.862C-50.6705 620.118 -54.3149 621.497 -57.3988 623.878C-61.0432 626.886 -61.3235 627.012 -63.8465 631.273C-67.4911 637.164 -71.1354 646.064 -69.1729 654.838C-65.2482 650.827 -62.1646 644.685 -54.0345 643.933C-45.6244 643.181 -40.2979 649.072 -37.775 653.96C-57.3988 641.677 -76.4619 665.366 -70.014 675.895C-63.5661 686.048 -34.9714 688.053 -21.5152 688.68C-21.7955 691.563 -22.6366 693.944 -22.9169 698.206C-22.6366 704.097 -18.9922 708.233 -15.0673 710.239C-8.05889 712.37 -3.57346 709.612 0.631615 705.601C2.87444 708.108 1.19231 709.738 7.92056 711.367C-1.33064 715.629 -3.29311 724.528 4.83691 731.422C9.60268 730.419 6.79916 727.16 13.8078 729.291C14.3685 730.544 14.3685 732.174 14.6488 733.051C15.4896 735.683 14.3685 734.43 16.0504 735.558C13.2471 736.561 12.9667 737.563 10.7239 739.068C20.2554 736.686 29.5069 733.803 37.917 740.822C43.5238 745.46 47.7289 755.362 48.2896 767.019C43.2435 768.899 42.4024 771.406 39.3188 774.915C50.5322 771.03 58.1015 762.757 70.4364 779.428C70.4364 774.915 68.1938 773.787 70.4364 771.03C72.3989 768.272 75.7629 768.648 78.5664 770.027C80.5287 771.907 78.0057 781.433 92.0227 784.441C100.713 786.322 105.759 784.065 109.964 776.67L113.889 784.191C113.328 776.545 112.207 773.411 110.805 766.894C107.161 762.507 107.722 760.626 102.956 757.242C89.2192 747.716 76.0432 757.242 67.6331 768.523C62.8673 763.509 62.3066 764.261 54.1768 763.635C52.7751 754.109 51.0929 751.476 45.7664 747.465C47.1682 724.026 36.5152 730.544 31.1888 724.402C43.5238 717.383 39.0384 701.34 39.3188 698.081C39.5991 693.694 45.2057 694.32 42.6828 684.92C40.1596 676.522 44.0846 679.029 43.5238 670.881C43.2435 659.35 33.4316 661.105 30.9084 657.846C27.5444 653.333 21.9376 639.797 4.55656 648.069C2.03338 649.699 -2.73241 654.211 -3.85382 657.47C-5.25536 642.429 -9.46043 632.025 -17.0297 625.508C-25.1595 618.363 -35.2518 614.102 -48.1476 617.862Z" fill="#FAEDDA"/>
<path fill-rule="evenodd" clip-rule="evenodd" d="M83.8927 832.448C88.098 833.576 90.9013 836.459 95.1064 838.59C99.0311 840.595 103.517 842.099 108.282 842.851C116.693 844.23 130.71 843.729 136.877 839.342C133.513 832.824 108.282 833.827 100.713 834.829C99.0311 828.312 97.0689 827.56 90.0603 826.682C87.5373 814.524 83.3323 812.519 71.8382 814.399C70.4365 805.75 63.9888 801.865 55.298 802.993C55.0177 797.603 53.8965 795.472 49.4111 794.469C50.2519 787.199 49.1307 784.818 42.6828 785.069L40.1597 790.082C39.0385 788.954 39.8793 789.957 38.7581 788.328C34.8332 782.562 32.0299 778.676 21.3769 783.815C19.4146 781.684 15.77 777.423 11.2846 776.671C5.95814 775.668 3.9959 777.799 0.912008 780.807L-0.20918 781.81C-10.3014 775.041 -22.6365 779.93 -10.5818 789.581C-7.49814 787.199 -4.41448 785.194 -0.20918 789.706C0.351527 790.208 0.631653 790.834 1.19236 791.21C2.31377 792.715 1.19236 791.587 2.31377 792.715C9.88309 788.077 18.0129 786.322 25.3016 793.341C29.2266 797.352 30.6281 811.265 42.1221 804.121C42.6828 800.611 42.9632 800.36 41.0007 798.355C43.5239 797.728 46.6076 797.477 48.0093 799.984C49.6912 802.617 47.4486 803.995 46.0468 806.502C58.3819 806.753 67.0724 809.636 69.315 822.546C72.6793 818.66 77.7254 816.78 79.1269 824.802L74.0808 826.933C74.9219 833.325 78.8466 832.949 83.8927 832.448Z" fill="#FAEDDA"/>
</g>
<defs>
<filter id="filter0_i_404_12353" x="-99" y="147" width="558" height="676" filterUnits="userSpaceOnUse" color-interpolation-filters="sRGB">
<feFlood flood-opacity="0" result="BackgroundImageFix"/>
<feBlend mode="normal" in="SourceGraphic" in2="BackgroundImageFix" result="shape"/>
<feColorMatrix in="SourceAlpha" type="matrix" values="0 0 0 0 0 0 0 0 0 0 0 0 0 0 0 0 0 0 127 0" result="hardAlpha"/>
<feOffset dy="4"/>
<feGaussianBlur stdDeviation="5.5"/>
<feComposite in2="hardAlpha" operator="arithmetic" k2="-1" k3="1"/>
<feColorMatrix type="matrix" values="0 0 0 0 1 0 0 0 0 1 0 0 0 0 1 0 0 0 0.1 0"/>
<feBlend mode="plus-lighter" in2="shape" result="effect1_innerShadow_404_12353"/>
</filter>
<filter id="filter1_di_404_12353" x="-19.3125" y="159" width="398" height="710" filterUnits="userSpaceOnUse" color-interpolation-filters="sRGB">
<feFlood flood-opacity="0" result="BackgroundImageFix"/>
<feColorMatrix in="SourceAlpha" type="matrix" values="0 0 0 0 0 0 0 0 0 0 0 0 0 0 0 0 0 0 127 0" result="hardAlpha"/>
<feOffset dy="-2"/>
<feGaussianBlur stdDeviation="9.5"/>
<feComposite in2="hardAlpha" operator="out"/>
<feColorMatrix type="matrix" values="0 0 0 0 0 0 0 0 0 0 0 0 0 0 0 0 0 0 0.25 0"/>
<feBlend mode="normal" in2="BackgroundImageFix" result="effect1_dropShadow_404_12353"/>
<feBlend mode="normal" in="SourceGraphic" in2="effect1_dropShadow_404_12353" result="shape"/>
<feColorMatrix in="SourceAlpha" type="matrix" values="0 0 0 0 0 0 0 0 0 0 0 0 0 0 0 0 0 0 127 0" result="hardAlpha"/>
<feOffset dy="4"/>
<feGaussianBlur stdDeviation="5.5"/>
<feComposite in2="hardAlpha" operator="arithmetic" k2="-1" k3="1"/>
<feColorMatrix type="matrix" values="0 0 0 0 1 0 0 0 0 1 0 0 0 0 1 0 0 0 0.06 0"/>
<feBlend mode="plus-lighter" in2="shape" result="effect2_innerShadow_404_12353"/>
</filter>
<filter id="filter2_d_404_12353" x="-196.807" y="429.937" width="955.84" height="425.615" filterUnits="userSpaceOnUse" color-interpolation-filters="sRGB">
<feFlood flood-opacity="0" result="BackgroundImageFix"/>
<feColorMatrix in="SourceAlpha" type="matrix" values="0 0 0 0 0 0 0 0 0 0 0 0 0 0 0 0 0 0 127 0" result="hardAlpha"/>
<feOffset dy="-3.25575"/>
<feGaussianBlur stdDeviation="3.40373"/>
<feComposite in2="hardAlpha" operator="out"/>
<feColorMatrix type="matrix" values="0 0 0 0 0 0 0 0 0 0 0 0 0 0 0 0 0 0 0.14 0"/>
<feBlend mode="normal" in2="BackgroundImageFix" result="effect1_dropShadow_404_12353"/>
<feBlend mode="normal" in="SourceGraphic" in2="effect1_dropShadow_404_12353" result="shape"/>
</filter>
<linearGradient id="paint0_linear_404_12353" x1="179.687" y1="147" x2="179.687" y2="819" gradientUnits="userSpaceOnUse">
<stop stop-color="#E9D195"/>
<stop offset="1" stop-color="#C4A273"/>
</linearGradient>
<linearGradient id="paint1_linear_404_12353" x1="179.688" y1="180" x2="179.688" y2="852" gradientUnits="userSpaceOnUse">
<stop stop-color="#E9D195"/>
<stop offset="1" stop-color="#C4A273"/>
</linearGradient>
<clipPath id="clip0_404_12353">
<rect width="360" height="716" fill="white" transform="translate(-0.3125 103)"/>
</clipPath>
</defs>
</svg>
