<svg width="50" height="51" viewBox="0 0 50 51" fill="none" xmlns="http://www.w3.org/2000/svg">
<path d="M7.14286 0.224121C3.20312 0.224121 0 3.42725 0 7.36698V43.0813C0 47.021 3.20312 50.2241 7.14286 50.2241H42.8571C46.7969 50.2241 50 47.021 50 43.0813V7.36698C50 3.42725 46.7969 0.224121 42.8571 0.224121H7.14286ZM40.3013 9.59912L28.7165 22.8357L42.3438 40.8491H31.6741L23.3259 29.9228L13.7612 40.8491H8.45982L20.8482 26.6862L7.77902 9.59912H18.7165L26.2723 19.588L35 9.59912H40.3013ZM36.0826 37.6795L17.1205 12.6014H13.9621L33.1362 37.6795H36.0714H36.0826Z" fill="black"/>
</svg>
