<svg width="349" height="334" viewBox="0 0 349 334" fill="none" xmlns="http://www.w3.org/2000/svg">
<path d="M259.147 216.345C314.832 171.401 310.549 118.873 301.447 98.2261C299.741 202.81 216.377 234.548 167.493 237.244C110.929 240.363 44.1 235.197 17.8725 226.315C69.6933 248.825 189.54 272.524 259.147 216.345Z" fill="#061031" fill-opacity="0.13"/>
<path d="M247.324 194.447C300.235 146.268 292.833 94.0876 282.517 74.0197C287.04 178.519 205.714 215.164 157.077 220.765C100.799 227.246 33.781 226.067 7.07133 218.762C60.1403 238.148 181.185 254.671 247.324 194.447Z" fill="#BF2201"/>
<path d="M305.494 211.446C287.6 256.944 211.367 313.755 24.4276 221.318C102.397 265.806 264.786 314.953 305.494 211.446Z" fill="#061031" fill-opacity="0.13"/>
<path d="M303.933 191.904C290.329 238.863 219.685 302.489 24.9886 227.761C106.743 264.838 272.985 298.736 303.933 191.904Z" fill="#45825A"/>
<path d="M260.78 76.9139C269.891 138.476 244.459 234.519 52.8157 215.163C80.3476 220.775 294.75 246.9 260.78 76.9139Z" fill="#061031" fill-opacity="0.13"/>
<path d="M247.276 60.7152C262.446 121.07 246.661 219.161 54.0436 218.902C81.9962 221.757 297.932 226.495 247.276 60.7152Z" fill="#F4910F"/>
</svg>
