<svg width="40" height="42" viewBox="0 0 40 42" fill="none" xmlns="http://www.w3.org/2000/svg">
<path d="M39.5 33.5655L36.4257 22.964L31.7258 1.13538L30.1521 1.31776L29.9292 0.533335L24.574 1.5472L24.086 0.5L18.0103 2.70424L6.85428 3.98482L7.03106 4.85944L5.31711 5.18499L5.85128 7.11074L0.5 9.05024L13.9042 38.5094L14.004 39.0114L14.1232 38.9938L15.2626 41.5L25.8768 36.9895L38.9716 34.7598L38.7525 33.742L39.5 33.5655ZM22.1818 29.8395L29.9292 27.9804L28.5611 22.862L33.5761 21.9325L35.855 30.3062L23.0926 33.1007L22.1818 29.8395ZM12.1537 21.9325L32.2042 17.8397L32.6634 17.7456L33.5761 20.5362L33.4762 20.5558L13.0664 24.727L12.1537 21.9325ZM27.7925 8.41486L25.3715 8.90709L26.7395 13.094L11.6983 16.3513L9.41943 7.97754L26.1016 4.81042L29.0184 4.25543L29.9292 7.98146L27.7925 8.41486ZM30.5364 14.2745L31.7526 14.0294L32.6634 16.82L31.8064 16.9965L12.1537 21.0069L11.2429 18.2143L30.5364 14.2745Z" fill="#FBEBD2"/>
</svg>
