<svg width="360" height="1762" viewBox="0 0 360 1762" fill="none" xmlns="http://www.w3.org/2000/svg">
<g clip-path="url(#clip0_15_4171)">
<rect width="360" height="1762" fill="#F5DBA5"/>
<g opacity="0.3" filter="url(#filter0_i_15_4171)">
<path d="M365.016 330.374C365.016 330.811 364.902 331.248 364.656 331.605L343.751 363.525L364.656 395.446C365.13 396.16 365.13 397.192 364.656 397.907L343.751 429.827L364.656 461.748C365.13 462.482 365.13 463.495 364.656 464.229L343.751 496.149L364.656 528.07C365.13 528.804 365.13 529.817 364.656 530.551L342.933 563.702C342.378 564.556 341.348 564.695 340.629 564.02C339.926 563.345 339.811 562.094 340.367 561.221L361.273 529.3L340.367 497.38C339.893 496.646 339.893 495.633 340.367 494.899L361.273 462.978L340.367 431.058C339.893 430.324 339.893 429.311 340.367 428.577L361.273 396.656L340.367 364.736C339.893 364.022 339.893 362.989 340.367 362.275L362.09 329.104C362.646 328.25 363.676 328.111 364.379 328.786C364.787 329.183 365 329.759 365 330.335L365.016 330.374Z" fill="#B1844D" fill-opacity="0.21"/>
<path d="M136.114 619.204C136.114 619.641 135.999 620.078 135.754 620.435L114.848 652.356L135.754 684.276C136.228 684.99 136.228 686.023 135.754 686.757L114.848 718.677L135.754 750.598C136.228 751.312 136.228 752.345 135.754 753.079L114.848 784.999L135.754 816.92C136.228 817.634 136.228 818.667 135.754 819.401L114.031 852.552C113.475 853.406 112.446 853.545 111.726 852.87C111.024 852.195 110.909 850.944 111.465 850.071L132.371 818.15L111.465 786.23C110.991 785.516 110.991 784.483 111.465 783.749L132.371 751.829L111.465 719.908C110.991 719.194 110.991 718.161 111.465 717.427L132.371 685.507L111.465 653.586C110.991 652.872 110.991 651.839 111.465 651.105L133.188 617.954C133.744 617.1 134.773 616.961 135.493 617.636C135.901 618.033 136.114 618.609 136.114 619.185V619.204Z" fill="#B1844D" fill-opacity="0.21"/>
<path d="M108.85 619.204C108.85 619.641 108.736 620.078 108.49 620.435L87.5847 652.356L108.49 684.276C108.964 684.99 108.964 686.023 108.49 686.757L87.5847 718.677L108.49 750.598C108.964 751.312 108.964 752.345 108.49 753.079L87.5847 784.999L108.49 816.92C108.964 817.634 108.964 818.667 108.49 819.401L86.7674 852.552C86.2117 853.406 85.1819 853.545 84.4627 852.87C83.7599 852.195 83.6455 850.944 84.2012 850.071L105.107 818.15L84.2012 786.23C83.7272 785.516 83.7272 784.483 84.2012 783.749L105.107 751.829L84.2012 719.908C83.7272 719.194 83.7272 718.161 84.2012 717.427L105.107 685.507L84.2012 653.586C83.7272 652.872 83.7272 651.839 84.2012 651.105L105.924 617.954C106.48 617.1 107.51 616.961 108.229 617.636C108.638 618.033 108.85 618.609 108.85 619.185V619.204Z" fill="#B1844D" fill-opacity="0.21"/>
<path d="M186.917 386.652C186.917 387.088 186.803 387.525 186.558 387.883C186.002 388.736 184.972 388.875 184.253 388.2L157.97 362.811L131.686 388.2C131.098 388.776 130.248 388.776 129.643 388.2L103.36 362.811L77.0766 388.2C76.4882 388.776 75.6383 388.776 75.0335 388.2L48.7501 362.811L22.4668 388.2C21.8784 388.776 21.0284 388.776 20.4236 388.2L-6.8731 361.818C-7.57595 361.143 -7.69036 359.893 -7.13462 359.019C-6.57888 358.166 -5.54913 358.027 -4.82993 358.702L21.4534 384.091L47.7367 358.702C48.3252 358.126 49.1751 358.126 49.7799 358.702L76.0632 384.091L102.347 358.702C102.935 358.126 103.785 358.126 104.39 358.702L130.673 384.091L156.956 358.702C157.545 358.126 158.395 358.126 159 358.702L186.296 385.084C186.705 385.481 186.917 386.056 186.917 386.632V386.652Z" fill="#B1844D" fill-opacity="0.21"/>
<path d="M186.917 353.539C186.917 353.976 186.803 354.412 186.558 354.77C186.002 355.623 184.972 355.762 184.253 355.087L157.97 329.698L131.686 355.087C131.098 355.663 130.248 355.663 129.643 355.087L103.36 329.698L77.0766 355.087C76.4882 355.663 75.6383 355.663 75.0335 355.087L48.7501 329.698L22.4668 355.087C21.8784 355.663 21.0284 355.663 20.4236 355.087L-6.8731 328.705C-7.57595 328.031 -7.69036 326.78 -7.13462 325.906C-6.57888 325.053 -5.54913 324.914 -4.82993 325.589L21.4534 350.978L47.7367 325.589C48.3252 325.013 49.1751 325.013 49.7799 325.589L76.0632 350.978L102.347 325.589C102.935 325.013 103.785 325.013 104.39 325.589L130.673 350.978L156.956 325.589C157.545 325.013 158.395 325.013 159 325.589L186.296 351.971C186.705 352.368 186.917 352.943 186.917 353.519V353.539Z" fill="#B1844D" fill-opacity="0.21"/>
<path d="M116.795 143.637C116.795 144.074 116.681 144.511 116.436 144.868C115.88 145.721 114.85 145.86 114.131 145.185L93.7811 125.533L73.4311 145.185C72.8427 145.761 71.9927 145.761 71.388 145.185L51.0543 125.533L30.7207 145.185C30.1323 145.761 29.2823 145.761 28.6776 145.185L8.34393 125.533L-11.9897 145.185C-12.5781 145.761 -13.4281 145.761 -14.0328 145.185L-35.3799 124.56C-36.0827 123.885 -36.2135 122.635 -35.6414 121.761C-35.0857 120.908 -34.0559 120.769 -33.3367 121.444L-13.0031 141.096L7.33053 121.444C7.91896 120.868 8.76892 120.868 9.3737 121.444L29.7073 141.096L50.0409 121.444C50.6294 120.868 51.4793 120.868 52.0841 121.444L72.4177 141.096L92.7677 121.444C93.3561 120.868 94.2061 120.868 94.8109 121.444L116.174 142.069C116.583 142.466 116.795 143.042 116.795 143.617V143.637Z" fill="#B1844D" fill-opacity="0.21"/>
<path d="M116.795 117.733C116.795 118.17 116.681 118.607 116.436 118.964C115.88 119.818 114.85 119.957 114.131 119.282L93.7811 99.6291L73.4311 119.282C72.8427 119.857 71.9927 119.857 71.388 119.282L51.0543 99.6291L30.7207 119.282C30.1323 119.857 29.2823 119.857 28.6776 119.282L8.34393 99.6291L-11.9897 119.282C-12.5781 119.857 -13.4281 119.857 -14.0328 119.282L-35.3799 98.6565C-36.0827 97.9815 -36.2135 96.731 -35.6414 95.8575C-35.0857 95.004 -34.0559 94.8649 -33.3367 95.5399L-13.0031 115.192L7.33053 95.5399C7.91896 94.9642 8.76892 94.9642 9.3737 95.5399L29.7073 115.192L50.0409 95.5399C50.6294 94.9642 51.4793 94.9642 52.0841 95.5399L72.4177 115.192L92.7677 95.5399C93.3561 94.9642 94.2061 94.9642 94.8109 95.5399L116.174 116.165C116.583 116.562 116.795 117.138 116.795 117.713V117.733Z" fill="#B1844D" fill-opacity="0.21"/>
<path d="M161.843 973.681C161.843 974.118 161.729 974.555 161.484 974.912C160.928 975.766 159.898 975.905 159.179 975.23L132.896 949.841L106.612 975.23C106.024 975.806 105.174 975.806 104.569 975.23L78.2858 949.841L52.0024 975.23C51.414 975.806 50.564 975.806 49.9593 975.23L23.6759 949.841L-2.6074 975.23C-3.19584 975.806 -4.0458 975.806 -4.65057 975.23L-31.9473 948.848C-32.6502 948.173 -32.7646 946.922 -32.2088 946.049C-31.6531 945.195 -30.6233 945.056 -29.9041 945.731L-3.62082 971.121L22.6625 945.731C23.2509 945.156 24.1009 945.156 24.7057 945.731L50.989 971.121L77.2724 945.731C77.8608 945.156 78.7107 945.156 79.3155 945.731L105.599 971.121L131.882 945.731C132.471 945.156 133.321 945.156 133.925 945.731L161.222 972.113C161.631 972.51 161.843 973.086 161.843 973.662V973.681Z" fill="#B1844D" fill-opacity="0.21"/>
<path d="M161.843 940.571C161.843 941.007 161.729 941.444 161.484 941.801C160.928 942.655 159.898 942.794 159.179 942.119L132.896 916.73L106.612 942.119C106.024 942.695 105.174 942.695 104.569 942.119L78.2858 916.73L52.0024 942.119C51.414 942.695 50.564 942.695 49.9593 942.119L23.6759 916.73L-2.6074 942.119C-3.19584 942.695 -4.0458 942.695 -4.65057 942.119L-31.9473 915.737C-32.6502 915.062 -32.7646 913.812 -32.2088 912.938C-31.6531 912.085 -30.6233 911.946 -29.9041 912.621L-3.62082 938.01L22.6625 912.621C23.2509 912.045 24.1009 912.045 24.7057 912.621L50.989 938.01L77.2724 912.621C77.8608 912.045 78.7107 912.045 79.3155 912.621L105.599 938.01L131.882 912.621C132.471 912.045 133.321 912.045 133.925 912.621L161.222 939.002C161.631 939.399 161.843 939.975 161.843 940.551V940.571Z" fill="#B1844D" fill-opacity="0.21"/>
<path d="M320.556 502.981C320.556 513.164 319.706 522.474 317.319 528.747C309.751 548.737 285.56 540.023 276.456 536.747C275.851 536.529 275.246 536.31 274.756 536.152C274.249 539.368 274.56 549.372 275.214 557.888C275.279 558.782 274.838 559.615 274.151 559.933C273.465 560.251 272.68 559.933 272.255 559.218L267.548 551.119C264.573 550.702 261.467 548.241 259.097 544.35C255.011 537.66 253.916 528.31 256.155 519.338C259.604 505.502 270.604 501.949 280.313 498.812C283.092 497.919 285.707 497.065 288.061 496.033C296.25 492.4 307.823 457.204 311.598 443.944C311.844 443.11 312.514 442.555 313.249 442.614C313.985 442.674 314.59 443.309 314.753 444.182C315.08 446.009 320.556 477.274 320.556 503.001V502.981ZM271.242 542.464C271.242 537.76 271.569 534.008 272.484 532.797C272.893 532.241 273.448 531.943 274.02 531.943C274.592 531.943 275.328 532.201 277.404 532.956C285.773 535.973 307.986 543.953 314.377 527.1C320.686 510.445 315.243 468.639 312.71 452.004C308.362 465.998 298.195 495.795 289.222 499.765C286.737 500.877 284.04 501.73 281.196 502.663C271.879 505.661 262.252 508.777 259.326 520.509C257.381 528.291 258.296 536.31 261.778 542.008C263.739 545.224 266.322 547.229 268.479 547.229C269.019 547.229 269.509 547.546 269.82 548.062L271.536 551.02C271.372 548.042 271.274 545.104 271.274 542.484L271.242 542.464Z" fill="#B1844D" fill-opacity="0.21"/>
<path d="M310.175 492.856C310.175 498.394 309.194 504.766 305.827 510.344C297.9 523.466 286.164 520.985 285.673 520.885C284.791 520.687 284.186 519.655 284.366 518.563C284.529 517.491 285.379 516.776 286.262 516.975C286.703 517.074 296.51 519.039 303.196 507.982C310.012 496.707 305.304 480.727 305.239 480.568C304.928 479.536 305.369 478.404 306.203 478.027C307.053 477.65 307.985 478.186 308.295 479.198C308.426 479.615 310.159 485.491 310.159 492.856L310.175 492.856Z" fill="#B1844D" fill-opacity="0.21"/>
<path d="M357.48 820.553C357.48 826.766 356.957 832.463 355.502 836.314C350.746 848.9 335.332 843.361 330.265 841.535C330.167 841.495 330.085 841.476 330.003 841.436C329.856 843.858 330.036 848.979 330.363 853.346C330.428 854.26 329.987 855.073 329.301 855.391C328.614 855.709 327.829 855.391 327.405 854.676L324.757 850.111C322.893 849.734 320.997 848.165 319.542 845.803C316.976 841.595 316.273 835.739 317.679 830.141C319.853 821.426 326.914 819.143 332.602 817.317C334.253 816.781 335.806 816.285 337.179 815.669C341.314 813.843 347.771 795.878 350.86 785C351.105 784.166 351.775 783.61 352.511 783.67C353.246 783.729 353.851 784.364 354.015 785.238C354.211 786.33 357.48 805.069 357.48 820.592V820.553ZM326.653 844.175C326.653 839.074 327.274 838.26 327.568 837.863C327.944 837.366 328.434 837.088 328.974 837.088C329.399 837.088 329.84 837.247 331.18 837.724C338.797 840.463 349.307 843.143 352.511 834.647C355.894 825.694 353.475 804.176 351.89 793.019C348.882 802.329 343.407 817.118 338.291 819.381C336.77 820.056 335.152 820.573 333.436 821.128C328.042 822.875 322.452 824.682 320.801 831.272C319.706 835.679 320.213 840.225 322.158 843.421C323.204 845.128 324.56 846.22 325.639 846.22C326.032 846.22 326.407 846.379 326.685 846.676C326.653 845.743 326.636 844.91 326.636 844.155L326.653 844.175Z" fill="#B1844D" fill-opacity="0.21"/>
<path d="M351.269 814.498C351.269 817.952 350.665 821.942 348.556 825.436C343.571 833.674 336.15 832.126 335.839 832.046C334.957 831.848 334.352 830.815 334.532 829.724C334.695 828.652 335.545 827.937 336.428 828.136C336.689 828.195 342.181 829.247 345.924 823.074C349.782 816.701 347.085 807.51 347.069 807.411C346.758 806.379 347.199 805.247 348.049 804.87C348.899 804.493 349.831 805.029 350.142 806.041C350.223 806.299 351.286 809.932 351.286 814.498L351.269 814.498Z" fill="#B1844D" fill-opacity="0.21"/>
<path d="M376.114 1069.76C376.114 1075.97 375.591 1081.67 374.136 1085.52C369.363 1098.11 353.966 1092.57 348.899 1090.74C348.801 1090.7 348.719 1090.68 348.637 1090.64C348.49 1093.05 348.67 1098.19 349.013 1102.55C349.079 1103.47 348.637 1104.28 347.951 1104.6C347.264 1104.92 346.48 1104.6 346.055 1103.88L343.407 1099.32C341.544 1098.94 339.648 1097.37 338.193 1095.01C335.627 1090.8 334.924 1084.95 336.329 1079.35C338.503 1070.63 345.565 1068.35 351.253 1066.53C352.904 1065.99 354.456 1065.49 355.829 1064.88C359.965 1063.05 366.421 1045.09 369.51 1034.19C369.756 1033.35 370.426 1032.8 371.161 1032.86C371.897 1032.92 372.502 1033.55 372.665 1034.43C372.861 1035.52 376.13 1054.26 376.13 1069.78L376.114 1069.76ZM345.287 1093.38C345.287 1088.3 345.908 1087.47 346.202 1087.07C346.578 1086.57 347.068 1086.3 347.608 1086.3C348.033 1086.3 348.474 1086.46 349.814 1086.93C357.431 1089.67 367.941 1092.33 371.145 1083.86C374.529 1074.92 372.109 1053.38 370.524 1042.23C367.516 1051.54 362.041 1066.33 356.925 1068.59C355.404 1069.26 353.786 1069.78 352.054 1070.34C346.66 1072.08 341.07 1073.89 339.419 1080.48C338.324 1084.89 338.83 1089.43 340.775 1092.63C341.821 1094.34 343.178 1095.43 344.257 1095.43C344.649 1095.43 345.025 1095.61 345.303 1095.88C345.27 1094.95 345.254 1094.1 345.254 1093.36L345.287 1093.38Z" fill="#B1844D" fill-opacity="0.21"/>
<path d="M369.887 1063.71C369.887 1067.16 369.282 1071.15 367.173 1074.64C362.188 1082.88 354.767 1081.33 354.457 1081.25C353.574 1081.06 352.969 1080.02 353.149 1078.93C353.312 1077.86 354.162 1077.15 355.045 1077.34C355.306 1077.4 360.799 1078.46 364.542 1072.28C368.415 1065.87 365.702 1056.72 365.686 1056.62C365.375 1055.59 365.8 1054.46 366.65 1054.08C367.5 1053.7 368.432 1054.24 368.742 1055.25C368.824 1055.51 369.887 1059.14 369.887 1063.71Z" fill="#B1844D" fill-opacity="0.21"/>
<path d="M307.71 387.147C307.71 398.561 300.077 407.832 290.678 407.832C281.28 407.832 273.646 398.561 273.646 387.147C273.646 375.733 281.28 366.462 290.678 366.462C300.077 366.462 307.71 375.733 307.71 387.147ZM276.916 387.147C276.916 396.358 283.094 403.861 290.678 403.861C298.263 403.861 304.441 396.358 304.441 387.147C304.441 377.936 298.263 370.432 290.678 370.432C283.094 370.432 276.916 377.936 276.916 387.147Z" fill="#B1844D" fill-opacity="0.21"/>
<path d="M269.821 387.146C269.821 388.238 269.085 389.131 268.186 389.131L256.646 389.131C255.747 389.131 255.012 388.238 255.012 387.146C255.012 386.054 255.747 385.161 256.646 385.161L268.186 385.161C269.085 385.161 269.821 386.054 269.821 387.146Z" fill="#B1844D" fill-opacity="0.21"/>
<path d="M276.409 406.461C276.409 406.977 276.246 407.474 275.935 407.871L267.779 417.776C267.141 418.55 266.112 418.55 265.474 417.776C264.837 417.002 264.837 415.752 265.474 414.977L273.631 405.072C274.268 404.297 275.298 404.297 275.935 405.072C276.262 405.469 276.409 405.965 276.409 406.481V406.461Z" fill="#B1844D" fill-opacity="0.21"/>
<path d="M292.312 414.461V428.476C292.312 429.568 291.576 430.461 290.678 430.461C289.779 430.461 289.043 429.568 289.043 428.476V414.461C289.043 413.369 289.779 412.476 290.678 412.476C291.576 412.476 292.312 413.369 292.312 414.461Z" fill="#B1844D" fill-opacity="0.21"/>
<path d="M316.372 416.367C316.372 416.883 316.209 417.379 315.898 417.776C315.261 418.55 314.231 418.55 313.593 417.776L305.437 407.871C304.8 407.097 304.8 405.846 305.437 405.072C306.075 404.297 307.104 404.297 307.742 405.072L315.898 414.977C316.225 415.374 316.372 415.871 316.372 416.387V416.367Z" fill="#B1844D" fill-opacity="0.21"/>
<path d="M326.342 387.146C326.342 388.238 325.607 389.131 324.708 389.131L313.168 389.131C312.269 389.131 311.533 388.238 311.533 387.146C311.533 386.054 312.269 385.161 313.168 385.161L324.708 385.161C325.607 385.161 326.342 386.054 326.342 387.146Z" fill="#B1844D" fill-opacity="0.21"/>
<path d="M316.372 357.926C316.372 358.442 316.209 358.939 315.898 359.336L307.742 369.241C307.104 370.015 306.075 370.015 305.437 369.241C304.8 368.467 304.8 367.216 305.437 366.442L313.593 356.537C314.231 355.762 315.261 355.762 315.898 356.537C316.225 356.934 316.372 357.43 316.372 357.946V357.926Z" fill="#B1844D" fill-opacity="0.21"/>
<path d="M292.312 345.818V359.832C292.312 360.924 291.576 361.817 290.678 361.817C289.779 361.817 289.043 360.924 289.043 359.832V345.818C289.043 344.726 289.779 343.832 290.678 343.832C291.576 343.832 292.312 344.726 292.312 345.818Z" fill="#B1844D" fill-opacity="0.21"/>
<path d="M276.409 367.832C276.409 368.348 276.246 368.844 275.935 369.241C275.298 370.015 274.268 370.015 273.631 369.241L265.474 359.336C264.837 358.561 264.837 357.311 265.474 356.537C266.112 355.762 267.141 355.762 267.779 356.537L275.935 366.442C276.262 366.839 276.409 367.335 276.409 367.852V367.832Z" fill="#B1844D" fill-opacity="0.21"/>
<path d="M163.38 491.542C163.38 499.443 158.084 505.895 151.562 505.895C145.04 505.895 139.744 499.463 139.744 491.542C139.744 483.622 145.04 477.19 151.562 477.19C158.084 477.19 163.38 483.622 163.38 491.542ZM143.03 491.542C143.03 497.259 146.854 501.924 151.578 501.924C156.302 501.924 160.127 497.279 160.127 491.542C160.127 485.805 156.302 481.16 151.578 481.16C146.854 481.16 143.03 485.805 143.03 491.542Z" fill="#B1844D" fill-opacity="0.21"/>
<path d="M138.338 491.543C138.338 492.635 137.602 493.528 136.703 493.528L129.07 493.528C128.171 493.528 127.436 492.635 127.436 491.543C127.436 490.451 128.171 489.558 129.07 489.558L136.703 489.558C137.602 489.558 138.338 490.451 138.338 491.543Z" fill="#B1844D" fill-opacity="0.21"/>
<path d="M142.686 504.307C142.686 504.824 142.522 505.32 142.212 505.717L136.818 512.268C136.18 513.042 135.151 513.042 134.513 512.268C133.876 511.493 133.876 510.243 134.513 509.469L139.907 502.918C140.545 502.144 141.574 502.144 142.212 502.918C142.539 503.315 142.686 503.811 142.686 504.327V504.307Z" fill="#B1844D" fill-opacity="0.21"/>
<path d="M153.195 509.588V518.858C153.195 519.95 152.459 520.843 151.56 520.843C150.661 520.843 149.926 519.95 149.926 518.858V509.588C149.926 508.496 150.661 507.603 151.56 507.603C152.459 507.603 153.195 508.496 153.195 509.588Z" fill="#B1844D" fill-opacity="0.21"/>
<path d="M169.1 510.858C169.1 511.374 168.937 511.87 168.626 512.268C167.989 513.042 166.959 513.042 166.321 512.268L160.927 505.717C160.29 504.943 160.29 503.692 160.927 502.918C161.565 502.144 162.595 502.144 163.232 502.918L168.626 509.469C168.953 509.866 169.1 510.362 169.1 510.878V510.858Z" fill="#B1844D" fill-opacity="0.21"/>
<path d="M175.686 491.543C175.686 492.635 174.95 493.528 174.051 493.528L166.418 493.528C165.519 493.528 164.783 492.635 164.783 491.543C164.783 490.451 165.519 489.558 166.418 489.558L174.051 489.558C174.95 489.558 175.686 490.451 175.686 491.543Z" fill="#B1844D" fill-opacity="0.21"/>
<path d="M169.1 472.208C169.1 472.724 168.937 473.221 168.626 473.618L163.232 480.168C162.595 480.943 161.565 480.943 160.927 480.168C160.29 479.394 160.29 478.144 160.927 477.369L166.321 470.819C166.959 470.044 167.989 470.044 168.626 470.819C168.953 471.216 169.1 471.712 169.1 472.228V472.208Z" fill="#B1844D" fill-opacity="0.21"/>
<path d="M153.195 464.206V473.477C153.195 474.569 152.459 475.462 151.56 475.462C150.661 475.462 149.926 474.569 149.926 473.477V464.206C149.926 463.115 150.661 462.221 151.56 462.221C152.459 462.221 153.195 463.115 153.195 464.206Z" fill="#B1844D" fill-opacity="0.21"/>
<path d="M142.686 478.759C142.686 479.275 142.522 479.771 142.212 480.168C141.574 480.943 140.545 480.943 139.907 480.168L134.513 473.618C133.876 472.843 133.876 471.593 134.513 470.819C135.151 470.044 136.18 470.044 136.818 470.819L142.212 477.369C142.539 477.766 142.686 478.263 142.686 478.779V478.759Z" fill="#B1844D" fill-opacity="0.21"/>
<path d="M4.32288 261.292C4.32288 269.193 -0.973008 275.645 -7.4948 275.645C-14.0166 275.645 -19.3125 269.213 -19.3125 261.292C-19.3125 253.372 -14.0166 246.94 -7.4948 246.94C-0.973008 246.94 4.32288 253.372 4.32288 261.292ZM-16.0271 261.292C-16.0271 267.009 -12.2023 271.674 -7.47847 271.674C-2.75466 271.674 1.07016 267.029 1.07016 261.292C1.07016 255.555 -2.75466 250.91 -7.47847 250.91C-12.2023 250.91 -16.0271 255.555 -16.0271 261.292Z" fill="#B1844D" fill-opacity="0.21"/>
<path d="M10.0434 280.606C10.0434 281.122 9.8799 281.619 9.56934 282.016C8.93187 282.79 7.90212 282.79 7.26465 282.016L1.87068 275.465C1.23321 274.691 1.23321 273.44 1.87068 272.666C2.50815 271.892 3.53791 271.892 4.17538 272.666L9.56934 279.217C9.89625 279.614 10.0434 280.11 10.0434 280.626V280.606Z" fill="#B1844D" fill-opacity="0.21"/>
<path d="M16.6309 261.293C16.6309 262.385 15.8953 263.278 14.9963 263.278L7.36305 263.278C6.46406 263.278 5.72852 262.385 5.72852 261.293C5.72852 260.201 6.46406 259.308 7.36305 259.308L14.9963 259.308C15.8953 259.308 16.6309 260.201 16.6309 261.293Z" fill="#B1844D" fill-opacity="0.21"/>
<path d="M10.0434 241.979C10.0434 242.495 9.8799 242.991 9.56934 243.388L4.17538 249.939C3.53791 250.713 2.50815 250.713 1.87068 249.939C1.23321 249.165 1.23321 247.914 1.87068 247.14L7.26465 240.589C7.90212 239.815 8.93187 239.815 9.56934 240.589C9.89625 240.986 10.0434 241.482 10.0434 241.999V241.979Z" fill="#B1844D" fill-opacity="0.21"/>
<path d="M130.87 1101.21C130.87 1109.11 125.574 1115.56 119.052 1115.56C112.53 1115.56 107.234 1109.13 107.234 1101.21C107.234 1093.29 112.53 1086.85 119.052 1086.85C125.574 1086.85 130.87 1093.29 130.87 1101.21ZM110.503 1101.21C110.503 1106.92 114.328 1111.59 119.052 1111.59C123.776 1111.59 127.601 1106.94 127.601 1101.21C127.601 1095.47 123.776 1090.82 119.052 1090.82C114.328 1090.82 110.503 1095.47 110.503 1101.21Z" fill="#B1844D" fill-opacity="0.21"/>
<path d="M105.811 1101.2C105.811 1102.3 105.075 1103.19 104.176 1103.19L96.5427 1103.19C95.6437 1103.19 94.9082 1102.3 94.9082 1101.2C94.9082 1100.11 95.6437 1099.22 96.5427 1099.22L104.176 1099.22C105.075 1099.22 105.811 1100.11 105.811 1101.2Z" fill="#B1844D" fill-opacity="0.21"/>
<path d="M110.176 1113.97C110.176 1114.49 110.013 1114.98 109.702 1115.38L104.308 1121.93C103.671 1122.7 102.641 1122.7 102.003 1121.93C101.366 1121.15 101.366 1119.9 102.003 1119.13L107.397 1112.58C108.035 1111.81 109.065 1111.81 109.702 1112.58C110.029 1112.98 110.176 1113.47 110.176 1113.99V1113.97Z" fill="#B1844D" fill-opacity="0.21"/>
<path d="M120.685 1119.25V1128.52C120.685 1129.61 119.95 1130.51 119.051 1130.51C118.152 1130.51 117.416 1129.61 117.416 1128.52V1119.25C117.416 1118.16 118.152 1117.26 119.051 1117.26C119.95 1117.26 120.685 1118.16 120.685 1119.25Z" fill="#B1844D" fill-opacity="0.21"/>
<path d="M136.59 1120.52C136.59 1121.04 136.427 1121.53 136.116 1121.93C135.479 1122.7 134.449 1122.7 133.812 1121.93L128.418 1115.38C127.78 1114.6 127.78 1113.35 128.418 1112.58C129.055 1111.81 130.085 1111.81 130.722 1112.58L136.116 1119.13C136.443 1119.53 136.59 1120.02 136.59 1120.54V1120.52Z" fill="#B1844D" fill-opacity="0.21"/>
<path d="M143.178 1101.2C143.178 1102.3 142.442 1103.19 141.543 1103.19L133.91 1103.19C133.011 1103.19 132.275 1102.3 132.275 1101.2C132.275 1100.11 133.011 1099.22 133.91 1099.22L141.543 1099.22C142.442 1099.22 143.178 1100.11 143.178 1101.2Z" fill="#B1844D" fill-opacity="0.21"/>
<path d="M136.59 1081.87C136.59 1082.39 136.427 1082.88 136.116 1083.28L130.722 1089.83C130.085 1090.6 129.055 1090.6 128.418 1089.83C127.78 1089.06 127.78 1087.81 128.418 1087.03L133.812 1080.48C134.449 1079.71 135.479 1079.71 136.116 1080.48C136.443 1080.88 136.59 1081.37 136.59 1081.89V1081.87Z" fill="#B1844D" fill-opacity="0.21"/>
<path d="M120.685 1073.87V1083.14C120.685 1084.23 119.95 1085.13 119.051 1085.13C118.152 1085.13 117.416 1084.23 117.416 1083.14V1073.87C117.416 1072.78 118.152 1071.89 119.051 1071.89C119.95 1071.89 120.685 1072.78 120.685 1073.87Z" fill="#B1844D" fill-opacity="0.21"/>
<path d="M110.176 1088.42C110.176 1088.94 110.013 1089.43 109.702 1089.83C109.065 1090.6 108.035 1090.6 107.397 1089.83L102.003 1083.28C101.366 1082.51 101.366 1081.25 102.003 1080.48C102.641 1079.71 103.671 1079.71 104.308 1080.48L109.702 1087.03C110.029 1087.43 110.176 1087.92 110.176 1088.44V1088.42Z" fill="#B1844D" fill-opacity="0.21"/>
<path d="M299.602 834.052C299.602 841.953 294.306 848.404 287.784 848.404C281.263 848.404 275.967 841.973 275.967 834.052C275.967 826.132 281.263 819.7 287.784 819.7C294.306 819.7 299.602 826.132 299.602 834.052ZM279.236 834.052C279.236 839.769 283.061 844.434 287.784 844.434C292.508 844.434 296.333 839.789 296.333 834.052C296.333 828.315 292.508 823.67 287.784 823.67C283.061 823.67 279.236 828.315 279.236 834.052Z" fill="#B1844D" fill-opacity="0.21"/>
<path d="M274.544 834.053C274.544 835.144 273.809 836.038 272.91 836.038L265.293 836.038C264.394 836.038 263.658 835.144 263.658 834.053C263.658 832.961 264.394 832.067 265.293 832.067L272.91 832.067C273.809 832.067 274.544 832.961 274.544 834.053Z" fill="#B1844D" fill-opacity="0.21"/>
<path d="M278.909 846.817C278.909 847.333 278.745 847.829 278.435 848.226L273.041 854.777C272.403 855.551 271.373 855.551 270.736 854.777C270.098 854.003 270.098 852.752 270.736 851.978L276.13 845.427C276.767 844.653 277.797 844.653 278.435 845.427C278.761 845.824 278.909 846.321 278.909 846.837V846.817Z" fill="#B1844D" fill-opacity="0.21"/>
<path d="M289.419 852.116V861.386C289.419 862.478 288.684 863.372 287.785 863.372C286.886 863.372 286.15 862.478 286.15 861.386V852.116C286.15 851.024 286.886 850.131 287.785 850.131C288.684 850.131 289.419 851.024 289.419 852.116Z" fill="#B1844D" fill-opacity="0.21"/>
<path d="M305.325 853.368C305.325 853.884 305.161 854.38 304.851 854.777C304.213 855.551 303.183 855.551 302.546 854.777L297.152 848.226C296.514 847.452 296.514 846.202 297.152 845.427C297.789 844.653 298.819 844.653 299.457 845.427L304.851 851.978C305.178 852.375 305.325 852.872 305.325 853.388V853.368Z" fill="#B1844D" fill-opacity="0.21"/>
<path d="M311.91 834.053C311.91 835.144 311.175 836.038 310.276 836.038L302.642 836.038C301.743 836.038 301.008 835.144 301.008 834.053C301.008 832.961 301.743 832.067 302.642 832.067L310.276 832.067C311.175 832.067 311.91 832.961 311.91 834.053Z" fill="#B1844D" fill-opacity="0.21"/>
<path d="M305.325 814.736C305.325 815.253 305.161 815.749 304.851 816.146L299.457 822.697C298.819 823.471 297.789 823.471 297.152 822.697C296.514 821.923 296.514 820.672 297.152 819.898L302.546 813.347C303.183 812.573 304.213 812.573 304.851 813.347C305.178 813.744 305.325 814.24 305.325 814.756V814.736Z" fill="#B1844D" fill-opacity="0.21"/>
<path d="M289.419 806.737V816.007C289.419 817.099 288.684 817.992 287.785 817.992C286.886 817.992 286.15 817.099 286.15 816.007V806.737C286.15 805.645 286.886 804.752 287.785 804.752C288.684 804.752 289.419 805.645 289.419 806.737Z" fill="#B1844D" fill-opacity="0.21"/>
<path d="M278.909 821.287C278.909 821.803 278.745 822.3 278.435 822.697C277.797 823.471 276.767 823.471 276.13 822.697L270.736 816.146C270.098 815.372 270.098 814.121 270.736 813.347C271.373 812.573 272.403 812.573 273.041 813.347L278.435 819.898C278.761 820.295 278.909 820.791 278.909 821.307V821.287Z" fill="#B1844D" fill-opacity="0.21"/>
<path d="M240.414 509.527V558.083C240.414 559.175 239.678 560.068 238.779 560.068C237.88 560.068 237.145 559.175 237.145 558.083V509.527C237.145 508.436 237.88 507.542 238.779 507.542C239.678 507.542 240.414 508.436 240.414 509.527Z" fill="#B1844D" fill-opacity="0.21"/>
<path d="M234.562 509.668C234.562 510.66 233.957 511.514 233.124 511.633C232.29 511.772 212.626 515.008 212.626 533.787C212.626 552.566 232.257 556.059 232.453 556.099C233.352 556.238 233.974 557.211 233.859 558.322C233.745 559.414 232.911 560.168 232.028 560.029C231.8 559.99 209.357 556.059 209.357 533.787C209.357 511.514 232.486 507.722 232.715 507.683C233.614 507.544 234.431 508.318 234.546 509.41C234.546 509.489 234.546 509.568 234.546 509.668L234.562 509.668Z" fill="#B1844D" fill-opacity="0.21"/>
<path d="M211.714 233.224V281.779C211.714 282.871 210.979 283.764 210.08 283.764C209.181 283.764 208.445 282.871 208.445 281.779V233.224C208.445 232.132 209.181 231.239 210.08 231.239C210.979 231.239 211.714 232.132 211.714 233.224Z" fill="#B1844D" fill-opacity="0.21"/>
<path d="M205.844 233.383C205.844 234.375 205.24 235.229 204.422 235.348C203.589 235.487 183.925 238.723 183.925 257.502C183.925 276.281 202.951 279.675 203.752 279.814C204.651 279.953 205.272 280.965 205.158 282.057C205.044 283.149 204.21 283.903 203.327 283.764C203.098 283.725 180.656 279.794 180.656 257.521C180.656 235.249 203.785 231.457 204.014 231.417C204.913 231.278 205.73 232.053 205.844 233.144C205.844 233.224 205.844 233.303 205.844 233.402V233.383Z" fill="#B1844D" fill-opacity="0.21"/>
<path d="M246.136 809.774V858.329C246.136 859.421 245.401 860.314 244.502 860.314C243.603 860.314 242.867 859.421 242.867 858.329V809.774C242.867 808.682 243.603 807.789 244.502 807.789C245.401 807.789 246.136 808.682 246.136 809.774Z" fill="#B1844D" fill-opacity="0.21"/>
<path d="M240.285 809.93C240.285 810.923 239.68 811.776 238.846 811.896C238.013 812.015 218.349 815.27 218.349 834.049C218.349 852.828 237.375 856.223 238.176 856.362C239.075 856.52 239.696 857.513 239.582 858.585C239.467 859.677 238.634 860.431 237.751 860.292C237.522 860.252 215.08 856.322 215.08 834.049C215.08 811.776 238.209 807.985 238.438 807.945C239.337 807.806 240.154 808.58 240.268 809.672C240.268 809.752 240.268 809.831 240.268 809.93L240.285 809.93Z" fill="#B1844D" fill-opacity="0.21"/>
<path d="M190.529 119.358V167.913C190.529 169.005 189.793 169.898 188.894 169.898C187.995 169.898 187.26 169.005 187.26 167.913V119.358C187.26 118.266 187.995 117.373 188.894 117.373C189.793 117.373 190.529 118.266 190.529 119.358Z" fill="#B1844D" fill-opacity="0.21"/>
<path d="M184.661 119.496C184.661 120.489 184.056 121.342 183.239 121.462C182.405 121.601 162.742 124.836 162.742 143.615C162.742 162.394 181.768 165.789 182.569 165.928C183.468 166.067 184.089 167.079 183.974 168.171C183.86 169.263 183.026 170.017 182.144 169.878C181.915 169.838 159.473 165.908 159.473 143.635C159.473 121.362 182.601 117.571 182.83 117.531C183.729 117.392 184.546 118.166 184.661 119.258C184.661 119.338 184.661 119.417 184.661 119.516V119.496Z" fill="#B1844D" fill-opacity="0.21"/>
<path d="M371.177 913.356C371.177 914.349 370.572 915.202 369.739 915.321C368.905 915.44 349.242 918.696 349.242 937.475C349.242 956.254 368.268 959.648 369.069 959.787C369.968 959.926 370.605 960.939 370.474 962.011C370.36 963.103 369.526 963.857 368.644 963.718C368.415 963.678 345.973 959.748 345.973 937.475C345.973 915.202 369.101 911.411 369.33 911.371C370.229 911.232 371.046 912.006 371.161 913.098C371.161 913.177 371.161 913.257 371.161 913.356L371.177 913.356Z" fill="#B1844D" fill-opacity="0.21"/>
<path d="M338.601 756.913C338.601 758.005 337.866 758.898 336.967 758.898L296.986 758.898C296.087 758.898 295.352 758.005 295.352 756.913C295.352 755.821 296.087 754.928 296.986 754.928L336.967 754.928C337.866 754.928 338.601 755.821 338.601 756.913Z" fill="#B1844D" fill-opacity="0.21"/>
<path d="M338.6 764.852C338.6 764.852 338.6 765.031 338.6 765.11C338.568 765.388 335.331 792.644 316.992 792.644C298.652 792.644 295.53 764.554 295.498 764.277C295.383 763.205 296.021 762.192 296.92 762.053C297.819 761.914 298.636 762.688 298.75 763.78C298.865 764.793 301.529 788.673 316.992 788.673C332.455 788.673 335.25 765.567 335.364 764.594C335.495 763.502 336.312 762.748 337.211 762.887C338.028 763.026 338.633 763.88 338.633 764.852L338.6 764.852Z" fill="#B1844D" fill-opacity="0.21"/>
<path d="M259.326 897.335C259.326 898.427 258.59 899.32 257.691 899.32L217.711 899.32C216.812 899.32 216.076 898.427 216.076 897.335C216.076 896.243 216.812 895.35 217.711 895.35L257.691 895.35C258.59 895.35 259.326 896.243 259.326 897.335Z" fill="#B1844D" fill-opacity="0.21"/>
<path d="M259.326 905.258C259.326 905.258 259.326 905.437 259.326 905.516C259.293 905.794 256.057 933.049 237.717 933.049C219.378 933.049 216.256 904.96 216.223 904.682C216.125 903.61 216.746 902.598 217.645 902.459C218.544 902.32 219.361 903.094 219.476 904.186C219.59 905.198 222.255 929.079 237.717 929.079C253.18 929.079 255.975 905.973 256.089 905C256.22 903.908 257.037 903.154 257.936 903.293C258.754 903.432 259.358 904.285 259.358 905.258L259.326 905.258Z" fill="#B1844D" fill-opacity="0.21"/>
<path d="M377.47 986.365C377.47 987.457 376.735 988.35 375.836 988.35L335.855 988.35C334.956 988.35 334.221 987.457 334.221 986.365C334.221 985.273 334.956 984.38 335.855 984.38L375.836 984.38C376.735 984.38 377.47 985.273 377.47 986.365Z" fill="#B1844D" fill-opacity="0.21"/>
<path d="M377.47 994.306C377.47 994.306 377.47 994.485 377.47 994.564C377.438 994.842 374.201 1022.1 355.862 1022.1C337.522 1022.1 334.4 994.009 334.368 993.731C334.27 992.659 334.891 991.646 335.79 991.507C336.689 991.368 337.506 992.143 337.62 993.234C337.735 994.247 340.399 1018.13 355.862 1018.13C371.324 1018.13 374.119 995.021 374.234 994.048C374.365 992.956 375.182 992.202 376.081 992.341C376.898 992.48 377.503 993.334 377.503 994.306L377.47 994.306Z" fill="#B1844D" fill-opacity="0.21"/>
<path d="M244.5 433.101V471.81C244.5 472.902 243.764 473.795 242.865 473.795L210.992 473.795C210.093 473.795 209.357 472.902 209.357 471.81V433.101C209.357 432.009 210.093 431.115 210.992 431.115L242.865 431.115C243.764 431.115 244.5 432.009 244.5 433.101ZM241.231 469.825V435.086L212.626 435.086V469.825L241.231 469.825Z" fill="#B1844D" fill-opacity="0.21"/>
<path d="M150.449 177.066V215.775C150.449 216.867 149.714 217.76 148.815 217.76L116.941 217.76C116.042 217.76 115.307 216.867 115.307 215.775V177.066C115.307 175.974 116.042 175.081 116.941 175.081L148.815 175.081C149.714 175.081 150.449 175.974 150.449 177.066ZM147.18 213.79V179.051L118.576 179.051V213.79L147.18 213.79Z" fill="#B1844D" fill-opacity="0.21"/>
<path d="M250.5 742.342V781.051C250.5 782.143 249.764 783.036 248.865 783.036L216.992 783.036C216.093 783.036 215.357 782.143 215.357 781.051V742.342C215.357 741.25 216.093 740.357 216.992 740.357L248.865 740.357C249.764 740.357 250.5 741.25 250.5 742.342ZM247.231 779.066V744.327L218.626 744.327V779.066L247.231 779.066Z" fill="#B1844D" fill-opacity="0.21"/>
<path d="M326.096 1068.79V1107.5C326.096 1108.59 325.36 1109.48 324.461 1109.48L292.588 1109.48C291.689 1109.48 290.953 1108.59 290.953 1107.5V1068.79C290.953 1067.7 291.689 1066.8 292.588 1066.8L324.461 1066.8C325.36 1066.8 326.096 1067.7 326.096 1068.79ZM322.827 1105.51V1070.77L294.222 1070.77V1105.51L322.827 1105.51Z" fill="#B1844D" fill-opacity="0.21"/>
<path d="M194.501 538.311C194.501 539.403 193.765 540.296 192.866 540.296L119.051 540.296C118.152 540.296 117.416 539.403 117.416 538.311C117.416 537.219 118.152 536.326 119.051 536.326L192.866 536.326C193.765 536.326 194.501 537.219 194.501 538.311Z" fill="#B1844D" fill-opacity="0.21"/>
<path d="M183.992 522.927V555.681C183.992 556.773 183.256 557.667 182.357 557.667C181.458 557.667 180.723 556.773 180.723 555.681V522.927C180.723 521.836 181.458 520.942 182.357 520.942C183.256 520.942 183.992 521.836 183.992 522.927Z" fill="#B1844D" fill-opacity="0.21"/>
<path d="M231.36 1074.05C231.36 1075.14 230.625 1076.03 229.726 1076.03L155.91 1076.03C155.011 1076.03 154.275 1075.14 154.275 1074.05C154.275 1072.96 155.011 1072.06 155.91 1072.06L229.726 1072.06C230.625 1072.06 231.36 1072.96 231.36 1074.05Z" fill="#B1844D" fill-opacity="0.21"/>
<path d="M220.849 1058.67V1091.42C220.849 1092.51 220.114 1093.4 219.215 1093.4C218.316 1093.4 217.58 1092.51 217.58 1091.42V1058.67C217.58 1057.57 218.316 1056.68 219.215 1056.68C220.114 1056.68 220.849 1057.57 220.849 1058.67Z" fill="#B1844D" fill-opacity="0.21"/>
<path d="M204.977 653.943C204.977 655.034 204.242 655.928 203.343 655.928L129.527 655.928C128.628 655.928 127.893 655.034 127.893 653.943C127.893 652.851 128.628 651.958 129.527 651.958L203.343 651.958C204.242 651.958 204.977 652.851 204.977 653.943Z" fill="#B1844D" fill-opacity="0.21"/>
<path d="M194.466 638.557V671.311C194.466 672.403 193.731 673.296 192.832 673.296C191.933 673.296 191.197 672.403 191.197 671.311V638.557C191.197 637.465 191.933 636.572 192.832 636.572C193.731 636.572 194.466 637.465 194.466 638.557Z" fill="#B1844D" fill-opacity="0.21"/>
<path d="M305.159 216.728C305.159 217.82 304.423 218.713 303.524 218.713L229.709 218.713C228.81 218.713 228.074 217.82 228.074 216.728C228.074 215.636 228.81 214.743 229.709 214.743L303.524 214.743C304.423 214.743 305.159 215.636 305.159 216.728Z" fill="#B1844D" fill-opacity="0.21"/>
<path d="M294.632 201.342V234.096C294.632 235.188 293.897 236.082 292.998 236.082C292.099 236.082 291.363 235.188 291.363 234.096V201.342C291.363 200.251 292.099 199.357 292.998 199.357C293.897 199.357 294.632 200.251 294.632 201.342Z" fill="#B1844D" fill-opacity="0.21"/>
<path d="M374.71 737.039C374.71 738.131 373.974 739.024 373.075 739.024L299.26 739.024C298.361 739.024 297.625 738.131 297.625 737.039C297.625 735.948 298.361 735.054 299.26 735.054L373.075 735.054C373.974 735.054 374.71 735.948 374.71 737.039Z" fill="#B1844D" fill-opacity="0.21"/>
<path d="M191.722 413.75V452.459C191.722 453.551 190.987 454.444 190.088 454.444L-1.49632 454.444C-2.39532 454.444 -3.13086 453.551 -3.13086 452.459L-3.13086 413.75C-3.13086 412.658 -2.39532 411.765 -1.49632 411.765L190.088 411.765C190.987 411.765 191.722 412.658 191.722 413.75ZM188.453 450.474V415.735L0.138211 415.735L0.138211 450.474L188.453 450.474Z" fill="#B1844D" fill-opacity="0.21"/>
<path d="M160.812 440.21C160.812 440.329 160.812 440.428 160.796 440.547C160.649 441.619 159.799 442.354 158.916 442.175L69.1641 423.515L5.79312 446.364C4.92681 446.681 4.01148 446.086 3.7663 445.034C3.50477 443.982 4.01148 442.87 4.86143 442.572L68.592 419.605C68.8371 419.525 69.0823 419.505 69.3275 419.545L159.456 438.284C160.257 438.443 160.812 439.297 160.812 440.23V440.21Z" fill="#B1844D" fill-opacity="0.21"/>
<path d="M179.66 421.471V444.438C179.66 445.53 178.924 446.423 178.025 446.423C177.126 446.423 176.391 445.53 176.391 444.438V421.471C176.391 420.379 177.126 419.486 178.025 419.486C178.924 419.486 179.66 420.379 179.66 421.471Z" fill="#B1844D" fill-opacity="0.21"/>
<path d="M67.5605 623.71L67.5605 856.363C67.5605 857.455 66.8249 858.348 65.9259 858.348L34.0525 858.348C33.1535 858.348 32.418 857.455 32.418 856.363L32.418 623.71C32.418 622.618 33.1535 621.725 34.0525 621.725L65.9259 621.725C66.8249 621.725 67.5605 622.618 67.5605 623.71ZM64.2914 854.378L64.2914 625.695L35.687 625.695L35.687 854.378L64.2914 854.378Z" fill="#B1844D" fill-opacity="0.21"/>
<path d="M60.958 848.107C60.958 848.96 60.5003 849.754 59.7811 850.012C58.9148 850.33 57.9995 849.734 57.7543 848.682L38.8427 771.283C38.7773 770.986 38.761 770.688 38.7937 770.39L54.2237 660.932C54.3708 659.86 55.2208 659.126 56.1034 659.304C56.9861 659.483 57.5908 660.515 57.4437 661.587L42.0791 770.589L60.8926 847.551C60.9416 847.749 60.958 847.928 60.958 848.126V848.107Z" fill="#B1844D" fill-opacity="0.21"/>
<path d="M60.958 638.342C60.958 639.433 60.2224 640.327 59.3235 640.327L40.4119 640.327C39.5129 640.327 38.7773 639.433 38.7773 638.342C38.7773 637.25 39.5129 636.356 40.4119 636.356L59.3235 636.356C60.2224 636.356 60.958 637.25 60.958 638.342Z" fill="#B1844D" fill-opacity="0.21"/>
<path d="M422.141 292.24C422.141 293.331 421.406 294.225 420.507 294.225L228.939 294.284C228.04 294.284 227.305 293.391 227.305 292.299V253.59C227.305 253.074 227.468 252.558 227.779 252.18C228.089 251.803 228.498 251.605 228.939 251.605L420.523 251.545C420.948 251.545 421.373 251.764 421.684 252.121C421.994 252.478 422.158 252.994 422.158 253.53V292.24L422.141 292.24ZM230.557 290.334L418.856 290.274V255.535L230.541 255.595V290.334L230.557 290.334Z" fill="#B1844D" fill-opacity="0.21"/>
<path d="M391.232 280.012C391.232 280.131 391.232 280.231 391.216 280.35C391.069 281.422 390.219 282.156 389.336 281.977L299.584 263.337L236.213 286.206C235.347 286.523 234.431 285.928 234.186 284.876C233.941 283.804 234.431 282.712 235.281 282.414L299.012 259.427C299.257 259.347 299.502 259.328 299.747 259.367L389.876 278.087C390.677 278.245 391.232 279.099 391.232 280.032V280.012Z" fill="#B1844D" fill-opacity="0.21"/>
<path d="M232.241 405.847C232.241 406.106 232.192 406.364 232.111 406.622C231.767 407.634 230.803 408.11 229.969 407.674C228.956 407.158 205.271 394.81 205.271 373.471C205.271 358.166 217.4 349.054 224.657 343.615C226.341 342.364 228.384 340.816 228.956 340.061C228.678 337.441 225.442 327.675 222.303 319.297C221.927 318.285 222.303 317.114 223.121 316.677C223.938 316.221 224.919 316.677 225.278 317.67C226.439 320.766 232.241 336.449 232.241 340.379C232.241 342.583 230.28 344.071 226.373 347.009C219.704 352.012 208.541 360.409 208.541 373.49C208.541 392.23 231.015 403.922 231.244 404.041C231.865 404.359 232.241 405.093 232.241 405.867V405.847Z" fill="#B1844D" fill-opacity="0.21"/>
<path d="M246.527 379.505C246.527 392.765 244.614 403.445 244.467 404.239C244.271 405.311 243.405 405.986 242.522 405.748C241.639 405.509 241.1 404.437 241.28 403.385C241.345 403.028 247.557 368.249 237.373 346.79C236.916 345.837 237.194 344.627 237.978 344.071C238.763 343.515 239.76 343.852 240.217 344.805C245.17 355.247 246.543 368.289 246.543 379.505L246.527 379.505Z" fill="#B1844D" fill-opacity="0.21"/>
<path d="M239.809 373.489C239.809 382.124 234.023 389.132 226.929 389.132C219.835 389.132 214.049 382.105 214.049 373.489C214.049 364.874 219.835 357.847 226.929 357.847C234.023 357.847 239.809 364.874 239.809 373.489ZM217.318 373.489C217.318 379.921 221.633 385.162 226.929 385.162C232.225 385.162 236.54 379.921 236.54 373.489C236.54 367.058 232.225 361.817 226.929 361.817C221.633 361.817 217.318 367.058 217.318 373.489Z" fill="#B1844D" fill-opacity="0.21"/>
<path d="M87.6824 560.803C87.6824 561.061 87.6333 561.319 87.5516 561.577C87.2084 562.59 86.244 563.066 85.4104 562.629C84.5277 562.173 63.8672 551.413 63.8672 532.734C63.8672 519.315 74.4426 511.374 80.7683 506.63C82.1413 505.598 83.8249 504.327 84.3806 503.672C84.0701 501.29 81.2587 492.853 78.6597 485.886C78.2838 484.873 78.6597 483.702 79.477 483.265C80.2943 482.809 81.275 483.265 81.6346 484.258C83.0566 488.049 87.6824 500.675 87.6824 504.049C87.6824 506.114 85.9498 507.424 82.4845 510.024C76.7473 514.332 67.1363 521.558 67.1363 532.754C67.1363 548.813 86.4728 558.878 86.669 558.977C87.2901 559.294 87.666 560.029 87.666 560.803L87.6824 560.803Z" fill="#B1844D" fill-opacity="0.21"/>
<path d="M100.04 537.975C100.04 549.489 98.3723 558.779 98.2579 559.474C98.0618 560.546 97.1955 561.221 96.3128 560.982C95.4302 560.744 94.8744 559.672 95.0706 558.62C95.1196 558.322 100.481 528.268 91.7034 509.767C91.2458 508.814 91.5236 507.603 92.3082 507.047C93.0928 506.492 94.0899 506.829 94.5475 507.782C98.8627 516.874 100.056 528.228 100.056 537.975L100.04 537.975Z" fill="#B1844D" fill-opacity="0.21"/>
<path d="M94.2371 532.754C94.2371 540.376 89.1374 546.57 82.8607 546.57C76.5841 546.57 71.4844 540.376 71.4844 532.754C71.4844 525.131 76.5841 518.937 82.8607 518.937C89.1374 518.937 94.2371 525.131 94.2371 532.754ZM74.7371 532.754C74.7371 538.193 78.3821 542.6 82.8444 542.6C87.3067 542.6 90.9517 538.173 90.9517 532.754C90.9517 527.334 87.3067 522.908 82.8444 522.908C78.3821 522.908 74.7371 527.334 74.7371 532.754Z" fill="#B1844D" fill-opacity="0.21"/>
<path d="M55.7124 229.649C55.7124 231.714 53.9798 233.024 50.5146 235.604C44.7773 239.912 35.1663 247.138 35.1663 258.334C35.1663 274.353 54.5192 284.458 54.699 284.557C55.5326 284.974 55.9249 286.145 55.5653 287.157C55.222 288.17 54.2576 288.646 53.424 288.209C52.5414 287.753 31.8809 276.994 31.8809 258.334C31.8809 244.914 42.4563 236.974 48.782 232.23C50.155 231.198 51.8385 229.927 52.3943 229.272C52.0837 226.89 49.2723 218.453 46.6734 211.486C46.2975 210.473 46.6734 209.302 47.4907 208.865C48.3079 208.409 49.2887 208.865 49.6483 209.858C51.0703 213.649 55.696 226.274 55.696 229.649L55.7124 229.649Z" fill="#B1844D" fill-opacity="0.21"/>
<path d="M68.0845 263.576C68.0845 275.089 66.4173 284.38 66.3029 285.074C66.1067 286.146 65.2404 286.821 64.3578 286.583C63.4751 286.345 62.9194 285.273 63.1155 284.221C63.1645 283.923 68.5258 253.869 59.7484 235.368C59.2907 234.415 59.5686 233.204 60.3531 232.648C61.1377 232.092 62.1348 232.43 62.5925 233.383C66.9076 242.474 68.1008 253.829 68.1008 263.576L68.0845 263.576Z" fill="#B1844D" fill-opacity="0.21"/>
<path d="M62.282 258.354C62.282 265.977 57.1823 272.17 50.9057 272.17C44.629 272.17 39.5293 265.977 39.5293 258.354C39.5293 250.731 44.629 244.538 50.9057 244.538C57.1823 244.538 62.282 250.731 62.282 258.354ZM42.782 258.354C42.782 263.793 46.427 268.2 50.8893 268.2C55.3516 268.2 58.9966 263.773 58.9966 258.354C58.9966 252.935 55.3516 248.508 50.8893 248.508C46.427 248.508 42.782 252.935 42.782 258.354Z" fill="#B1844D" fill-opacity="0.21"/>
<path d="M425.999 622.679C425.999 623.771 425.264 624.664 424.365 624.664L225.033 624.664C224.134 624.664 223.398 623.771 223.398 622.679C223.398 621.587 224.134 620.694 225.033 620.694L424.365 620.694C425.264 620.694 425.999 621.587 425.999 622.679Z" fill="#B1844D" fill-opacity="0.21"/>
<path d="M425.999 636.574C425.999 637.665 425.263 638.559 424.364 638.559L346.25 638.559C345.351 638.559 344.615 637.665 344.615 636.574C344.615 635.482 345.351 634.588 346.25 634.588L424.364 634.588C425.263 634.588 425.999 635.482 425.999 636.574Z" fill="#B1844D" fill-opacity="0.21"/>
<path d="M58.7052 510.859V552.705C58.7052 553.797 57.9697 554.69 57.0707 554.69C56.1717 554.69 55.4361 553.797 55.4361 552.705V512.844L36.3611 512.844V569.261C36.3611 570.353 35.6256 571.246 34.7266 571.246L23.007 571.246C22.108 571.246 21.3724 570.353 21.3724 569.261L21.3724 481.182L16.1909 481.182L16.1909 576.884C16.1909 577.975 15.4554 578.869 14.5564 578.869C13.6574 578.869 12.9219 577.975 12.9219 576.884L12.9219 479.197C12.9219 478.105 13.6574 477.212 14.5564 477.212L23.007 477.212C23.9059 477.212 24.6415 478.105 24.6415 479.197L24.6415 567.276L33.092 567.276V510.859C33.092 509.768 33.8276 508.874 34.7266 508.874L57.0707 508.874C57.9697 508.874 58.7052 509.768 58.7052 510.859Z" fill="#B1844D" fill-opacity="0.21"/>
<path d="M132.404 228.082V269.928C132.404 271.02 131.669 271.913 130.77 271.913C129.871 271.913 129.135 271.02 129.135 269.928V230.068L110.06 230.068V286.484C110.06 287.576 109.325 288.469 108.426 288.469L96.7062 288.469C95.8072 288.469 95.0716 287.576 95.0716 286.484V198.405L89.8902 198.405V294.107C89.8902 295.199 89.1546 296.092 88.2556 296.092C87.3566 296.092 86.6211 295.199 86.6211 294.107V196.42C86.6211 195.328 87.3566 194.435 88.2556 194.435L96.7062 194.435C97.6052 194.435 98.3407 195.328 98.3407 196.42V284.499L106.791 284.499V228.082C106.791 226.991 107.527 226.097 108.426 226.097L130.77 226.097C131.669 226.097 132.404 226.991 132.404 228.082Z" fill="#B1844D" fill-opacity="0.21"/>
<path d="M68.7404 1065.97V1107.82C68.7404 1108.91 68.0048 1109.8 67.1058 1109.8C66.2068 1109.8 65.4713 1108.91 65.4713 1107.82V1067.96L46.3963 1067.96V1124.37C46.3963 1125.46 45.6607 1126.36 44.7617 1126.36L33.0421 1126.36C32.1431 1126.36 31.4076 1125.46 31.4076 1124.37L31.4076 1036.29L26.2261 1036.29L26.2261 1131.99C26.2261 1133.09 25.4906 1133.98 24.5916 1133.98C23.6926 1133.98 22.957 1133.09 22.957 1131.99L22.957 1034.31C22.957 1033.22 23.6926 1032.32 24.5916 1032.32L33.0421 1032.32C33.9411 1032.32 34.6766 1033.22 34.6766 1034.31L34.6766 1122.39L43.1272 1122.39V1065.97C43.1272 1064.88 43.8627 1063.99 44.7617 1063.99L67.1058 1063.99C68.0048 1063.99 68.7404 1064.88 68.7404 1065.97Z" fill="#B1844D" fill-opacity="0.21"/>
<path d="M297.443 1017.67V1059.52C297.443 1060.61 296.708 1061.5 295.809 1061.5C294.91 1061.5 294.174 1060.61 294.174 1059.52V1019.66L275.099 1019.66V1076.07C275.099 1077.17 274.364 1078.06 273.465 1078.06L261.745 1078.06C260.846 1078.06 260.111 1077.17 260.111 1076.07V987.996L254.929 987.996V1083.7C254.929 1084.79 254.194 1085.68 253.295 1085.68C252.396 1085.68 251.66 1084.79 251.66 1083.7V986.011C251.66 984.919 252.396 984.026 253.295 984.026L261.745 984.026C262.644 984.026 263.38 984.919 263.38 986.011V1074.09L271.83 1074.09V1017.67C271.83 1016.58 272.566 1015.69 273.465 1015.69L295.809 1015.69C296.708 1015.69 297.443 1016.58 297.443 1017.67Z" fill="#B1844D" fill-opacity="0.21"/>
<path d="M8.84937 481.579C8.84937 482.174 8.63687 482.75 8.22824 483.147C8.08113 483.286 -6.40085 497.579 -6.40085 528.03C-6.40085 558.481 8.17921 575.236 8.32632 575.414C8.99648 576.149 9.04551 577.419 8.42438 578.213C7.81961 579.027 6.77351 579.087 6.1197 578.332C5.48223 577.618 -9.66992 560.427 -9.66992 528.03C-9.66992 495.633 5.56395 480.646 6.21776 480.03C6.92061 479.356 7.95037 479.495 8.50612 480.368C8.73495 480.725 8.84937 481.162 8.84937 481.599V481.579Z" fill="#B1844D" fill-opacity="0.21"/>
<path d="M180.836 197.611C180.836 198.207 180.623 198.782 180.215 199.179C180.067 199.318 165.585 213.611 165.585 244.062C165.585 274.514 180.166 291.268 180.313 291.446C180.983 292.181 181.032 293.451 180.411 294.245C179.806 295.059 178.76 295.119 178.106 294.365C177.469 293.65 162.316 276.459 162.316 244.062C162.316 211.666 177.55 196.678 178.204 196.063C178.907 195.388 179.937 195.527 180.492 196.4C180.721 196.757 180.836 197.194 180.836 197.631V197.611Z" fill="#B1844D" fill-opacity="0.21"/>
<path d="M7.77124 1031.79C7.77124 1032.38 7.55876 1032.96 7.15012 1033.35C7.00302 1033.49 -7.47898 1047.79 -7.47898 1078.24C-7.47898 1108.69 7.10108 1125.44 7.24819 1125.62C7.91835 1126.36 7.95105 1127.63 7.34627 1128.42C6.7415 1129.23 5.71173 1129.27 5.04157 1128.54C4.4041 1127.83 -10.748 1110.63 -10.748 1078.24C-10.748 1045.84 4.48583 1030.85 5.13964 1030.24C5.84249 1029.56 6.87225 1029.7 7.42799 1030.58C7.65683 1030.93 7.77124 1031.37 7.77124 1031.81V1031.79Z" fill="#B1844D" fill-opacity="0.21"/>
<path d="M219.33 95.9935C219.33 96.589 219.117 97.1647 218.709 97.5617C218.562 97.7006 204.08 111.993 204.08 142.445C204.08 172.896 218.66 189.65 218.807 189.829C219.477 190.563 219.526 191.834 218.905 192.628C218.3 193.442 217.27 193.501 216.6 192.747C215.963 192.032 200.811 174.841 200.811 142.445C200.811 110.048 216.044 95.0604 216.698 94.4451C217.401 93.7701 218.431 93.9091 218.987 94.7825C219.215 95.1398 219.33 95.5765 219.33 96.0132V95.9935Z" fill="#B1844D" fill-opacity="0.21"/>
<path d="M124.639 462.045C124.639 463.136 123.904 464.03 123.005 464.03L-0.402574 464.03C-1.30157 464.03 -2.03711 463.136 -2.03711 462.045C-2.03711 460.953 -1.30157 460.06 -0.402574 460.06L123.005 460.06C123.904 460.06 124.639 460.953 124.639 462.045Z" fill="#B1844D" fill-opacity="0.21"/>
<path d="M97.6218 162.574C97.6218 163.666 96.8863 164.56 95.9873 164.56L-27.4202 164.56C-28.3191 164.56 -29.0547 163.666 -29.0547 162.574C-29.0547 161.483 -28.3191 160.589 -27.4202 160.589L95.9873 160.589C96.8863 160.589 97.6218 161.483 97.6218 162.574Z" fill="#B1844D" fill-opacity="0.21"/>
<path d="M173.203 721.161C173.203 723.007 171.912 724.277 170.114 726.024C166.436 729.617 160.274 735.612 160.274 749.865C160.274 766.123 172.369 776.168 172.484 776.267C173.236 776.882 173.432 778.113 172.925 779.026C172.418 779.939 171.405 780.178 170.653 779.582C170.097 779.125 156.988 768.307 156.988 749.885C156.988 733.706 164.197 726.699 168.054 722.947C168.773 722.253 169.64 721.399 169.901 720.982C169.705 718.838 166.828 710.163 164.164 703.037C163.788 702.044 164.164 700.853 164.981 700.417C165.798 699.96 166.779 700.417 167.139 701.409C168.561 705.201 173.187 717.826 173.187 721.2L173.203 721.161Z" fill="#B1844D" fill-opacity="0.21"/>
<path d="M185.575 755.085C185.575 766.599 183.908 775.889 183.793 776.584C183.597 777.656 182.731 778.331 181.848 778.092C180.965 777.854 180.41 776.802 180.606 775.73C180.655 775.432 186.016 745.378 177.239 726.877C176.781 725.924 177.059 724.713 177.843 724.157C178.628 723.601 179.625 723.939 180.083 724.892C184.398 733.984 185.591 745.338 185.591 755.085L185.575 755.085Z" fill="#B1844D" fill-opacity="0.21"/>
<path d="M179.759 749.863C179.759 757.486 174.659 763.68 168.382 763.68C162.106 763.68 157.006 757.486 157.006 749.863C157.006 742.241 162.106 736.047 168.382 736.047C174.659 736.047 179.759 742.241 179.759 749.863ZM160.275 749.863C160.275 755.303 163.92 759.71 168.382 759.71C172.844 759.71 176.49 755.283 176.49 749.863C176.49 744.444 172.844 740.017 168.382 740.017C163.92 740.017 160.275 744.444 160.275 749.863Z" fill="#B1844D" fill-opacity="0.21"/>
<path d="M169.1 777.913C169.1 778.191 169.051 778.469 168.953 778.727C168.577 779.719 167.613 780.176 166.796 779.719C165.897 779.223 144.909 767.491 142.768 748.256C140.627 728.881 162.922 710.857 163.886 710.102C164.638 709.507 165.651 709.765 166.142 710.678C166.632 711.591 166.42 712.822 165.668 713.417C165.455 713.596 144.108 730.807 146.004 747.72C147.9 764.772 167.94 775.987 168.136 776.087C168.741 776.424 169.1 777.139 169.1 777.893V777.913Z" fill="#B1844D" fill-opacity="0.21"/>
<path d="M205.471 702.181C205.471 702.181 205.471 702.3 205.471 702.359C203.363 730.905 195.174 746.865 191.48 752.741C200.764 756.215 203.641 767.252 203.771 767.768C204.033 768.82 203.543 769.932 202.693 770.249C201.826 770.567 200.911 769.971 200.65 768.939C200.535 768.483 197.658 757.644 188.276 755.917C187.671 755.798 187.165 755.282 186.968 754.587C186.772 753.872 186.919 753.098 187.344 752.562C187.459 752.403 199.636 736.84 202.202 702.002C202.284 700.91 203.085 700.096 203.984 700.195C204.834 700.295 205.471 701.148 205.471 702.181Z" fill="#B1844D" fill-opacity="0.21"/>
<path d="M425.117 654.937C425.117 656.028 424.381 656.922 423.482 656.922L298.767 656.922L276.423 673.795L423.482 673.795C424.381 673.795 425.117 674.688 425.117 675.78V777.893C425.117 778.985 424.381 779.878 423.482 779.878C422.583 779.878 421.848 778.985 421.848 777.893V677.765L270.686 677.765C269.95 677.765 269.313 677.17 269.117 676.316C268.921 675.462 269.199 674.549 269.82 674.093L297.427 653.249C297.688 653.051 297.983 652.952 298.293 652.952L423.482 652.952C424.381 652.952 425.117 653.845 425.117 654.937Z" fill="#B1844D" fill-opacity="0.21"/>
<path d="M238.242 1007.29C238.242 1008.38 237.506 1009.28 236.607 1009.28L111.892 1009.28L89.5481 1026.15L236.607 1026.15C237.506 1026.15 238.242 1027.04 238.242 1028.14V1130.25C238.242 1131.34 237.506 1132.23 236.607 1132.23C235.708 1132.23 234.973 1131.34 234.973 1130.25V1030.12L83.8109 1030.12C83.0754 1030.12 82.4379 1029.52 82.2418 1028.67C82.0456 1027.82 82.3235 1026.9 82.9446 1026.45L110.552 1005.6C110.813 1005.41 111.108 1005.31 111.418 1005.31L236.607 1005.31C237.506 1005.31 238.242 1006.2 238.242 1007.29Z" fill="#B1844D" fill-opacity="0.21"/>
<path d="M208.541 800.345V861.366C208.541 862.458 207.806 863.351 206.907 863.351L175.311 863.351C174.412 863.351 173.677 862.458 173.677 861.366V814.737C173.677 813.645 174.412 812.751 175.311 812.751L196.184 812.751C197.083 812.751 197.819 813.645 197.819 814.737C197.819 815.828 197.083 816.722 196.184 816.722L176.946 816.722V859.381L205.272 859.381V802.33L148.472 802.33V864.86C148.472 865.952 147.737 866.845 146.838 866.845C145.939 866.845 145.203 865.952 145.203 864.86V800.345C145.203 799.253 145.939 798.36 146.838 798.36L206.907 798.36C207.806 798.36 208.541 799.253 208.541 800.345Z" fill="#B1844D" fill-opacity="0.21"/>
<path d="M417.516 710.539C417.516 711.591 416.83 712.464 415.964 712.524C415.065 712.583 393.799 713.834 387.294 713.834C383.175 713.834 382.014 708.355 380.985 703.531C380.249 700.057 379.415 696.107 377.683 694.896C376.931 694.38 375.967 694.32 374.708 694.757C370.148 696.325 369.232 700.593 368.268 705.1C367.402 709.189 366.405 713.814 361.926 713.814C357.905 713.814 356.009 709.348 354.489 705.755C353.688 703.849 352.674 701.487 351.841 701.328C351.563 701.268 350.762 701.368 349.078 703.412C340.612 713.695 322.37 708.951 321.602 708.732C320.719 708.494 320.164 707.442 320.36 706.37C320.556 705.298 321.422 704.623 322.305 704.861C322.485 704.901 339.565 709.348 346.774 700.613C348.85 698.092 350.615 697.08 352.348 697.417C354.832 697.894 356.14 700.971 357.398 703.948C358.918 707.521 360.046 709.864 361.926 709.864C363.642 709.864 364.149 708.633 365.113 704.127C366.11 699.482 367.451 693.129 373.825 690.946C375.934 690.231 377.797 690.39 379.317 691.462C382.243 693.507 383.257 698.311 384.156 702.539C385.087 706.966 385.823 709.864 387.294 709.864C393.718 709.864 415.588 708.573 415.8 708.554C416.699 708.494 417.467 709.348 417.516 710.439C417.516 710.479 417.516 710.499 417.516 710.539Z" fill="#B1844D" fill-opacity="0.21"/>
<path d="M270.556 960.143C270.556 961.195 269.869 962.069 269.003 962.128C268.104 962.188 246.838 963.438 240.333 963.438C236.214 963.438 235.053 957.96 234.024 953.136C233.288 949.662 232.455 945.712 230.722 944.501C229.97 943.985 229.006 943.925 227.747 944.362C223.187 945.93 222.271 950.198 221.307 954.704C220.441 958.793 219.444 963.419 214.965 963.419C210.944 963.419 209.048 958.952 207.528 955.359C206.727 953.453 205.714 951.091 204.88 950.932C204.602 950.873 203.801 950.972 202.118 953.017C193.651 963.3 175.409 958.555 174.641 958.337C173.758 958.099 173.203 957.046 173.399 955.975C173.595 954.903 174.461 954.228 175.344 954.466C175.524 954.506 192.605 958.952 199.813 950.218C201.889 947.697 203.654 946.684 205.387 947.022C207.871 947.498 209.179 950.575 210.437 953.553C211.957 957.126 213.085 959.468 214.965 959.468C216.681 959.468 217.188 958.238 218.152 953.731C219.149 949.086 220.49 942.734 226.864 940.55C228.973 939.836 230.836 939.994 232.356 941.066C235.282 943.111 236.296 947.915 237.195 952.143C238.126 956.57 238.862 959.468 240.333 959.468C246.757 959.468 268.627 958.178 268.839 958.158C269.738 958.099 270.506 958.952 270.556 960.044C270.556 960.084 270.556 960.104 270.556 960.143Z" fill="#B1844D" fill-opacity="0.21"/>
<path d="M271.798 692.494V764.017C271.798 765.109 271.063 766.002 270.164 766.002C269.265 766.002 268.529 765.109 268.529 764.017V692.494C268.529 691.403 269.265 690.509 270.164 690.509C271.063 690.509 271.798 691.403 271.798 692.494Z" fill="#B1844D" fill-opacity="0.21"/>
<path d="M68.7398 978.229V1049.75C68.7398 1050.84 68.0042 1051.74 67.1052 1051.74C66.2062 1051.74 65.4707 1050.84 65.4707 1049.75V978.229C65.4707 977.138 66.2062 976.244 67.1052 976.244C68.0042 976.244 68.7398 977.138 68.7398 978.229Z" fill="#B1844D" fill-opacity="0.21"/>
<path d="M258.28 633.755V725.864C258.28 726.955 257.545 727.849 256.646 727.849C255.747 727.849 255.011 726.955 255.011 725.864V635.74L218.626 635.74V723.878L240.186 723.878V648.643C240.186 647.552 240.922 646.658 241.821 646.658C242.72 646.658 243.455 647.552 243.455 648.643V725.864C243.455 726.955 242.72 727.849 241.821 727.849L216.992 727.849C216.093 727.849 215.357 726.955 215.357 725.864V633.755C215.357 632.663 216.093 631.77 216.992 631.77L256.646 631.77C257.545 631.77 258.28 632.663 258.28 633.755Z" fill="#B1844D" fill-opacity="0.21"/>
<path d="M324.12 905.714V997.823C324.12 998.914 323.385 999.808 322.486 999.808C321.587 999.808 320.851 998.914 320.851 997.823V907.699L284.466 907.699V995.837L306.026 995.837V920.602C306.026 919.511 306.761 918.617 307.66 918.617C308.559 918.617 309.295 919.511 309.295 920.602V997.823C309.295 998.914 308.559 999.808 307.66 999.808L282.832 999.808C281.933 999.808 281.197 998.914 281.197 997.823V905.714C281.197 904.622 281.933 903.729 282.832 903.729L322.486 903.729C323.385 903.729 324.12 904.622 324.12 905.714Z" fill="#B1844D" fill-opacity="0.21"/>
<path d="M359.866 187.169V233.223C359.866 234.315 359.131 235.208 358.232 235.208C357.333 235.208 356.597 234.315 356.597 233.223V189.154L320.212 189.154V231.238L341.772 231.238V194.613C341.772 193.522 342.507 192.628 343.406 192.628C344.305 192.628 345.041 193.522 345.041 194.613V233.223C345.041 234.315 344.305 235.208 343.406 235.208L318.578 235.208C317.679 235.208 316.943 234.315 316.943 233.223V187.169C316.943 186.077 317.679 185.184 318.578 185.184L358.232 185.184C359.131 185.184 359.866 186.077 359.866 187.169Z" fill="#B1844D" fill-opacity="0.21"/>
<path d="M16.2052 633.755L16.2052 856.74C16.2052 857.832 15.4696 858.725 14.5707 858.725C13.6717 858.725 12.9361 857.832 12.9361 856.74L12.9361 635.74L-4.19382 635.74L-4.19382 861.365C-4.19382 862.457 -4.92936 863.351 -5.82836 863.351C-6.72735 863.351 -7.46289 862.457 -7.46289 861.365L-7.46289 633.755C-7.46289 632.663 -6.72735 631.77 -5.82836 631.77L14.5707 631.77C15.4696 631.77 16.2052 632.663 16.2052 633.755Z" fill="#B1844D" fill-opacity="0.21"/>
<path d="M413.919 133.71V158.484C413.919 159.576 413.184 160.469 412.285 160.469L228.677 160.469C227.778 160.469 227.043 159.576 227.043 158.484C227.043 157.392 227.778 156.499 228.677 156.499L410.65 156.499V135.695L224.869 135.695C223.97 135.695 223.234 134.802 223.234 133.71C223.234 132.618 223.97 131.725 224.869 131.725L412.285 131.725C413.184 131.725 413.919 132.618 413.919 133.71Z" fill="#B1844D" fill-opacity="0.21"/>
<path d="M391.299 120.59C391.299 120.788 391.266 120.987 391.217 121.185C391.004 121.999 390.367 122.575 389.664 122.575L231 122.575C230.101 122.575 229.365 121.681 229.365 120.59C229.365 119.498 230.101 118.605 231 118.605L382.848 118.605C347.346 102.366 228.81 115.627 227.535 115.786C226.636 115.885 225.835 115.091 225.753 113.999C225.671 112.887 226.325 111.935 227.224 111.835C232.814 111.2 364.378 96.4906 390.612 118.982C391.054 119.359 391.299 119.974 391.299 120.609V120.59Z" fill="#B1844D" fill-opacity="0.21"/>
</g>
<g opacity="0.27" filter="url(#filter1_i_15_4171)">
<path d="M85.1484 807.069C85.1491 807.907 85.1621 808.758 85.1628 809.596C89.0293 816.74 92.9093 823.871 96.7759 831.015C102.626 835.358 108.462 839.713 114.312 844.056C116.612 843.951 118.912 843.845 121.211 843.74C123.012 842.117 124.812 840.52 126.613 838.897C127.07 838.505 127.513 838.099 127.97 837.706C128.933 836.923 129.897 836.14 130.847 835.37C131.662 834.748 132.463 834.138 133.278 833.517C135.434 832.013 137.579 830.495 139.736 828.991C145.86 825.856 151.984 822.721 158.108 819.585C160.206 817.963 162.304 816.34 164.4 814.743C165.388 814.283 166.35 813.823 167.338 813.363C173.562 814.281 179.798 815.211 186.023 816.128C186.844 815.92 187.653 815.723 188.474 815.514L188.516 815.451C190.411 815.741 192.293 816.042 194.174 816.344C200.18 817.239 206.186 818.133 212.193 819.028C216.417 819.974 220.628 820.932 224.534 821.799C226.032 825.732 228.21 831.436 230.389 837.139C231.607 838.417 233.808 839.635 233.876 840.979C234.291 850.047 239.664 853.248 247.809 853.591C250.88 852.978 253.951 852.339 257.022 851.726C261.888 850.457 266.743 849.174 271.62 847.944C278.741 846.141 283.245 848.608 284.624 856.029C283.26 864.504 282.37 872.767 293.402 875.7C297.288 881.001 294.42 884.833 290.632 888.47C286.748 895.081 282.865 901.692 278.981 908.303C278.94 915.199 278.886 922.08 278.844 928.976C279.693 929.013 280.529 929.062 281.378 929.1C281.719 925.853 282.047 922.593 282.374 919.358C287.098 911.263 291.824 903.142 296.548 895.047C298.332 889.246 300.924 883.545 301.566 877.63C301.894 874.667 298.041 871.481 297.239 868.12C295.12 859.403 293.64 850.52 291.912 841.716C291.613 837.204 291.327 832.705 290.893 826.073C297.34 830.313 301.221 832.881 305.115 835.436C307.361 836.514 309.581 837.591 311.827 838.67C318.331 839.38 324.835 840.116 331.339 840.826C336.945 847.711 342.495 841.031 348.078 840.735C354.632 840.068 361.173 839.387 367.727 838.72C377.268 834.459 381.389 843.934 388.104 846.845C389.609 847.491 390.566 849.403 391.918 850.88C394.429 849.791 396.731 848.796 399.782 847.46C405.498 863.297 410.997 878.518 416.522 893.74C423.835 895.956 425.83 906.563 435.212 905.504C443.103 902.653 450.992 899.827 458.883 896.975C468.236 890.591 468.644 890.686 477.704 901.861C482.53 906.326 481.429 917.546 492.534 914.886C491.833 914.121 491.133 913.355 490.42 912.602C487.665 907.673 484.923 902.731 482.168 897.802C479.549 895.56 475.618 893.828 474.547 891.009C471.682 883.394 467.395 884.675 462.191 887.709C459.964 888.759 457.738 889.809 455.511 890.859C452.763 892.04 450.062 893.327 447.28 894.391C437.989 898.007 428.921 893.548 430.361 883.943C432.188 871.788 425.863 863.712 421.518 854.317C419.085 853.385 416.607 852.593 414.246 851.497C412.199 850.557 409.067 849.697 408.546 848.102C407.088 843.565 406.717 838.675 405.926 833.922C403.466 832.177 400.195 828.385 398.672 828.989C388.59 832.982 379.887 827.87 370.633 826.098C366.951 825.395 362.852 826.234 359.044 826.905C351.038 828.333 343.066 830.124 335.102 831.761C327.944 830.39 320.8 829.007 313.629 827.623C311.343 827.445 308.73 827.911 306.8 826.963C300.494 823.876 294.441 820.311 288.291 816.909L287.984 816.844C278.012 814.989 268.04 813.134 258.068 811.279C254.108 810.164 250.137 809.036 246.178 807.922C240.708 808.288 235.212 808.653 229.742 809.019C227.344 809.855 224.947 810.692 222.563 811.515C211.511 816.987 201.137 810.345 190.424 809.759C188.631 809.5 186.863 809.242 185.07 808.983C174.946 805.936 165.386 808.34 156.511 813.005C149.643 816.623 143.404 821.442 136.867 825.72C127.274 832.57 119.172 829.843 111.874 821.892C111.075 821.019 110.182 820.258 109.329 819.434C108.175 818.442 107.116 817.339 105.892 816.486C98.9011 811.706 94.1172 806.881 101.954 798.381C103.772 796.398 103.335 791.248 102.371 788.034C100.375 781.449 97.3066 775.178 94.6818 768.798C90.2386 761.294 85.783 753.776 81.3397 746.272C81.5468 742.555 81.7795 738.839 81.9865 735.123C82.8948 727.879 83.8154 720.648 84.7102 713.416C81.858 707.219 79.0315 701.023 76.1793 694.826C75.1744 694.241 74.1572 693.642 73.1523 693.056C72.379 692.481 71.6046 691.931 70.8313 691.356C63.5524 690.096 59.5545 680.729 50.7492 683.283C46.8493 683.421 42.9495 683.56 39.0496 683.699C37.9339 684.99 36.8182 686.282 36.6556 686.456C38.6197 686.928 40.7235 687.446 42.8408 687.951C45.9262 689.569 49.0959 691.036 52.0556 692.867C55.4791 694.989 58.4058 698.405 62.0684 699.52C71.6841 702.416 76.3404 710.909 72.4888 720.229C72.154 722.213 71.8327 724.184 71.4979 726.167C71.4165 732.803 69.0636 740.629 71.7677 745.826C77.2818 756.446 85.5299 765.625 92.6423 775.399C95.9899 784.893 99.0971 794.285 88.573 801.765C86.9619 802.894 86.2482 805.273 85.1484 807.069Z" fill="#F5DBA5"/>
<path d="M395.463 1125.22C390.455 1123.94 385.42 1122.65 380.411 1121.37C379.648 1121.13 378.899 1120.87 378.136 1120.64C377.352 1119.75 376.541 1118.86 375.757 1117.98C371.638 1113.88 367.52 1109.79 363.376 1105.69C353.117 1103.88 350.036 1097.13 350.851 1087.59C351.103 1084.65 350.917 1081.69 350.911 1078.73C351.307 1072.68 353.825 1065.61 351.57 1060.82C348.503 1054.34 351.267 1052.3 355.553 1050.53C365.243 1046.52 373.55 1052.06 382.164 1055.15C385.94 1055.76 389.718 1056.35 393.494 1056.96C394.582 1057.69 395.644 1058.42 396.733 1059.15C399.229 1061.8 401.712 1064.44 404.194 1067.09C410.951 1072.7 409.42 1080.16 408.736 1087.44C409.474 1088.49 410.214 1089.52 410.952 1090.57C412.396 1090.85 413.841 1091.13 415.285 1091.41C424.407 1089.08 432.812 1091.41 441.006 1095.2C442.593 1094.34 444.182 1093.45 445.769 1092.59C450.341 1089.37 454.535 1085.12 459.588 1083.23C465.427 1081.05 472.93 1078.03 475.972 1087.84C476.504 1087.51 477.01 1087.17 477.541 1086.83C481.911 1078.49 473.428 1078.98 470.073 1075.96C460.723 1079.58 451.572 1083.93 441.937 1086.48C437.851 1087.56 431.082 1086.41 428.467 1083.55C421.603 1076.07 416.341 1067.13 410.434 1058.75C410.234 1058.61 409.929 1058.52 409.834 1058.34C409.61 1057.9 409.476 1057.43 409.304 1056.97C408.733 1055.94 408.16 1054.94 407.589 1053.91L407.649 1054C406.412 1052.86 405.174 1051.73 403.936 1050.62C399.778 1049.34 395.633 1048.06 391.487 1046.79C386.001 1045.77 380.535 1044.07 375.047 1043.94C369.379 1043.79 366.359 1041.6 365.119 1036.35C356.609 1030.73 348.031 1025.16 339.578 1019.43C335.902 1016.93 332.461 1014.09 328.922 1011.41C328.129 1010.97 327.337 1010.54 326.546 1010.08C325.655 1009.27 324.751 1008.44 323.86 1007.63C317.618 1003.46 311.363 999.267 305.12 995.092C296.881 990.869 288.225 987.003 288.705 975.496C283.741 970.151 278.79 964.819 273.827 959.474C264.953 952.504 271.714 947.675 276.194 942.542C277.956 937.898 279.718 933.254 281.48 928.611C280.63 928.574 279.794 928.525 278.945 928.489C272.662 937.194 266.381 945.873 260.099 954.577C260.354 960.21 260.596 965.881 260.824 971.565C266.707 975.97 272.59 980.4 278.474 984.805C280.45 986.695 284.284 988.858 284.043 990.434C282.863 998.391 288.275 1001.58 293.248 1005.31C300.102 1009.94 306.956 1014.56 313.809 1019.19C317.352 1021.5 320.909 1023.79 324.452 1026.1C337.119 1031.91 330.822 1043.74 332.81 1052.91C333.597 1056.53 333.551 1060.32 334.299 1063.95C336.176 1073.03 338.3 1082.06 340.306 1091.12C342.728 1099.28 344.427 1108.01 354.931 1109.84C365.94 1108.25 370.069 1116.3 374.571 1123.82C375.141 1124.9 375.723 1125.97 376.292 1127.06C377.503 1127.65 378.726 1128.26 379.923 1128.86L379.988 1128.85C380.839 1128.86 381.702 1128.89 382.566 1128.88L382.54 1128.88C386.842 1128.45 391.143 1128.02 395.445 1127.58C395.455 1126.81 395.466 1126.01 395.463 1125.22Z" fill="#F5DBA5"/>
</g>
<g opacity="0.51" filter="url(#filter2_i_15_4171)">
<path d="M68.7822 286.793C68.4435 286.659 68.1013 286.517 67.7626 286.383C65.4932 283.676 63.231 280.965 60.9616 278.258C60.1423 275.197 59.3159 272.14 58.4966 269.079C58.9075 268.166 59.3184 267.253 59.7293 266.34C60.6738 265.872 61.6078 265.4 62.5523 264.931C62.7841 264.81 63.0193 264.695 63.2511 264.574C63.7219 264.309 64.1928 264.045 64.6565 263.784C65.0383 263.554 65.413 263.328 65.7949 263.098C66.7484 262.467 67.7053 261.843 68.6588 261.212C70.9071 259.238 73.1553 257.263 75.4036 255.289C76.3956 254.701 77.3876 254.113 78.369 253.521C78.7129 253.195 79.0532 252.88 79.3972 252.554C80.0229 249.89 80.6452 247.22 81.271 244.556C81.487 244.257 81.6959 243.962 81.912 243.663L81.944 243.656C82.1304 242.844 82.3098 242.035 82.4891 241.226C83.089 238.654 83.6889 236.082 84.2888 233.51C84.5829 231.651 84.8698 229.795 85.1446 228.077C83.7941 226.841 81.8369 225.047 79.8796 223.253C79.558 222.556 79.4179 221.471 78.8855 221.228C75.2853 219.609 74.8516 216.924 76.0168 213.575C76.7564 212.432 77.5065 211.292 78.2461 210.149C79.5386 208.385 80.8345 206.627 82.1129 204.852C83.9819 202.261 83.7058 200.045 80.9258 198.3C77.2809 197.494 73.7972 196.531 74.3779 191.601C72.8567 189.181 70.848 189.727 68.7709 190.676C65.476 191.188 62.1812 191.699 58.8863 192.211C56.0917 191.124 53.3005 190.044 50.5058 188.956C50.6268 188.607 50.7406 188.261 50.8615 187.912C52.2288 188.294 53.5995 188.683 54.9596 189.069C58.9893 188.455 63.0296 187.845 67.0593 187.231C69.6903 187.438 72.4102 187.303 74.9046 187.991C76.1553 188.333 76.8265 190.4 78.0571 191.263C81.2425 193.516 84.5972 195.536 87.8799 197.645C89.6566 198.488 91.4298 199.324 94.042 200.562C93.3599 197.276 92.943 195.296 92.5332 193.312C92.4569 192.231 92.3769 191.161 92.3006 190.08C93.0549 187.337 93.7986 184.589 94.5528 181.846C92.6667 178.477 96.2562 177.302 97.2701 175.092C98.5892 172.549 99.9117 170.013 101.231 167.47C104.482 164.295 101.31 161.111 101.208 157.93C101.188 157.218 100.569 156.525 100.188 155.742C101.03 154.901 101.801 154.13 102.83 153.11C97.3417 148.263 92.0678 143.602 86.7976 138.931C87.0728 135.619 83.1034 133.114 85.0338 129.49C87.4501 126.756 89.8559 124.019 92.2723 121.285C96.3512 118.526 96.3781 118.345 93.3107 112.893C92.2777 110.227 87.5652 108.875 90.4185 104.811C90.6159 105.217 90.8132 105.623 91.0035 106.032C92.5555 107.935 94.1146 109.835 95.6665 111.738C96.1537 113.156 96.2246 115.022 97.1927 115.907C99.8131 118.285 98.6084 119.813 96.5485 121.431C95.7676 122.164 94.9866 122.896 94.2056 123.628C93.2878 124.55 92.3349 125.436 91.4593 126.39C88.5098 129.568 88.8604 133.948 92.975 134.904C98.1818 136.111 100.435 139.962 103.538 143.223C103.525 144.356 103.448 145.485 103.513 146.615C103.566 147.593 103.412 148.997 103.973 149.463C105.575 150.779 107.492 151.712 109.287 152.793C109.599 154.067 110.608 155.997 110.12 156.516C106.891 159.953 107.565 164.291 106.8 168.316C106.494 169.917 105.499 171.44 104.618 172.873C102.758 175.881 100.758 178.818 98.8208 181.776C98.2289 184.889 97.6442 187.999 97.0557 191.12C96.7613 192.073 96.1548 193.055 96.2292 193.987C96.4674 197.031 96.9399 200.049 97.3307 203.081L97.3079 203.215C96.4611 207.544 95.6144 211.874 94.7677 216.203C94.5844 217.982 94.4045 219.768 94.2212 221.548C93.1973 223.701 92.1696 225.864 91.1456 228.017C90.4237 228.853 89.7018 229.688 88.9871 230.52C85.005 234.113 86.0296 239.371 84.5509 243.796C84.3685 244.563 84.1898 245.319 84.0074 246.085C83.6185 250.667 81.1157 254.147 77.8085 256.989C75.2458 259.186 72.2983 260.937 69.5222 262.895C65.2162 265.677 65.0215 269.39 67.068 273.614C67.2931 274.076 67.4578 274.56 67.6543 275.036C67.8705 275.662 68.1472 276.266 68.2959 276.898C69.1092 280.49 70.294 283.197 74.9859 281.389C76.0787 280.972 78.091 281.973 79.2362 282.877C81.579 284.739 83.6232 286.984 85.7828 289.066C88.1055 292.065 90.4317 295.07 92.7545 298.068C94.2904 298.579 95.83 299.08 97.3659 299.592C100.44 300.384 103.511 301.17 106.579 301.966C108.628 304.112 110.68 306.246 112.729 308.392C112.805 308.892 112.884 309.399 112.96 309.899C113.069 310.304 113.167 310.705 113.276 311.11C112.62 314.255 115.767 317.371 113.325 320.522C112.644 322.077 111.964 323.632 111.283 325.186C110.582 325.431 109.881 325.675 109.785 325.713C109.908 324.843 110.036 323.91 110.171 322.973C110.011 321.466 109.925 319.95 109.659 318.46C109.349 316.736 108.436 315.005 108.572 313.346C108.941 308.994 106.252 305.752 101.867 305.817C101.011 305.634 100.163 305.449 99.3073 305.266C96.6112 304.237 93.0705 303.935 91.4018 302.01C87.9909 298.08 85.6001 293.275 82.787 288.834C79.4846 285.961 76.1845 283.2 71.4748 286.258C70.7606 286.728 69.6842 286.636 68.7822 286.793Z" fill="#F5DBA5"/>
<path d="M-10.1707 110.381C-10.4531 112.612 -10.739 114.854 -11.0213 117.085C-11.0468 117.431 -11.0651 117.775 -11.0906 118.121C-10.8585 118.58 -10.6301 119.05 -10.398 119.508C-9.40091 121.83 -8.40387 124.151 -7.41049 126.482C-8.32241 130.92 -6.08754 133.246 -2.09752 134.445C-0.867641 134.814 0.299767 135.364 1.4929 135.839C4.005 136.648 7.26328 136.761 8.83914 138.44C10.9717 140.719 12.2369 139.927 13.6412 138.478C16.8127 135.202 15.9027 130.956 16.0323 126.978C16.3889 125.353 16.7561 123.732 17.1127 122.107C16.9917 121.55 16.8671 121.003 16.7461 120.446C16.0753 119.013 15.4079 117.588 14.73 116.158C13.5465 112.529 10.2832 111.953 7.2294 111.063C6.9229 110.597 6.627 110.134 6.3205 109.667C6.43805 109.038 6.5556 108.409 6.67314 107.78C9.07542 104.464 9.48271 100.695 9.26047 96.7737C9.86244 96.2696 10.475 95.7692 11.077 95.2652C13.1113 93.9323 15.5035 92.9178 17.0745 91.1769C18.8936 89.1657 21.315 86.6151 17.8338 83.8137C18.0556 83.653 18.2738 83.5028 18.4957 83.3421C22.5657 82.91 21.0107 86.2618 21.6943 88.102C18.733 91.3024 15.508 94.3055 12.9334 97.7928C11.8444 99.2728 11.2274 102.195 11.9646 103.71C13.8888 107.682 16.6621 111.242 19.1035 114.971C19.1271 115.074 19.1148 115.212 19.1743 115.28C19.3142 115.44 19.4829 115.57 19.6408 115.713C19.9659 116.109 20.2803 116.501 20.6054 116.897L20.5775 116.858C20.8389 117.54 21.1002 118.222 21.3509 118.901C21.2005 120.786 21.0572 122.668 20.9033 124.546C20.4382 126.928 20.2522 129.411 19.4271 131.651C18.5763 133.966 18.9794 135.538 20.9034 136.88C21.8157 141.222 22.6924 145.581 23.6545 149.916C24.0786 151.803 24.6771 153.65 25.1938 155.51C25.2423 155.9 25.2908 156.289 25.3499 156.683C25.5355 157.173 25.7245 157.671 25.9102 158.161C26.5987 161.354 27.2908 164.553 27.9794 167.746C28.3673 171.753 28.5446 175.872 33.274 177.521C34.6405 180.384 36.0035 183.239 37.37 186.102C38.7675 190.806 41.8025 188.845 44.5953 187.856C46.755 187.887 48.9147 187.918 51.0744 187.949C50.9531 188.299 50.839 188.644 50.7177 188.994C46.1922 190.14 41.6772 191.29 37.1517 192.437C34.9151 191.431 32.6607 190.426 30.3992 189.423C29.5604 186.339 28.7109 183.251 27.872 180.167C27.4242 179.065 27.1634 177.169 26.4878 177.014C23.0817 176.217 22.6602 173.519 21.9469 170.91C21.1735 167.398 20.4001 163.886 19.6267 160.374C19.2618 158.572 18.9041 156.767 18.5392 154.965C18.215 148.912 12.4256 149.565 9.03378 147.292C7.69678 146.394 6.15742 145.806 4.8096 144.922C1.43834 142.709 -1.87151 140.405 -5.2138 138.143C-8.12662 135.857 -11.3824 133.773 -10.4408 129.233C-8.03503 125.036 -10.6311 122.076 -12.9498 119.052C-13.2961 118.649 -13.6352 118.242 -13.9815 117.839C-14.0277 117.254 -14.0773 116.663 -14.1305 116.082L-14.1161 116.057C-13.9842 115.711 -13.8558 115.358 -13.7168 115.009L-13.7205 115.02C-12.8561 113.35 -11.9918 111.68 -11.1275 110.011C-10.8133 110.13 -10.4884 110.254 -10.1707 110.381Z" fill="#F5DBA5"/>
</g>
<path d="M-1102.76 167.292L-1111.36 227.485L-970.402 194.616L-337.124 131.181L885.264 128.637L1372.86 165.943L1479.56 201.353L1478.88 151.994L1447.66 120.899L1105.29 41.1484L277.114 8.52826L-441.544 33.2864L-884.343 100.048L-1102.76 167.292Z" fill="#CDB582"/>
<g filter="url(#filter3_d_15_4171)">
<g filter="url(#filter4_df_15_4171)">
<path d="M127.241 59.5194V68.1247H136.335V74.7053H118.432V52.6858H155.659V91.1566H101.949V37.2469H173.563V100.268H267.058V27.6292H192.318V84.323H249.723V43.3212H212.211V68.1247H231.819V59.5194H222.157V52.6858H240.061V74.7053H202.549V37.2469H256.259V91.1566H184.077V27.6292H91.7188V100.268H165.89V43.3212H108.485V84.323H146.565V59.5194H127.241Z" fill="#D9CBB6"/>
</g>
<g filter="url(#filter5_df_15_4171)">
<path d="M311.7 59.4888L311.564 68.0932L320.657 68.2058L320.553 74.7856L302.651 74.5641L302.999 52.5469L340.223 53.0074L339.615 91.4744L285.911 90.8099L286.763 36.9055L358.369 37.7915L357.373 100.807L450.859 101.963L451.963 32.1014L377.275 28.4068L376.379 85.095L433.778 85.8052L434.411 45.7362L396.918 44.3434L396.526 69.1445L416.132 69.3871L416.268 60.7826L406.607 60.6631L406.715 53.8301L424.617 54.0516L424.269 76.0689L386.76 75.6048L387.353 38.1501L441.034 40.2773L440.205 92.719L368.031 91.826L369.035 28.3049L276.685 27.1622L275.537 99.7939L349.701 100.712L350.601 43.7703L293.202 43.0601L292.554 84.0578L330.63 84.529L331.023 59.7279L311.7 59.4888Z" fill="#D9CBB6"/>
</g>
<g filter="url(#filter6_df_15_4171)">
<path d="M47.54 59.8628L47.676 68.4673L38.5832 68.5798L38.6872 75.1597L56.5888 74.9382L56.2407 52.9209L19.0168 53.3815L19.6249 91.8484L73.3296 91.1839L72.4775 37.2795L0.871197 38.1655L1.86731 101.181L-91.6187 102.337L-92.7231 32.4754L-18.0349 28.7808L-17.1388 85.469L-74.5375 86.1792L-75.1709 46.1102L-37.6775 44.7174L-37.2854 69.5185L-56.8919 69.7611L-57.0279 61.1567L-47.3668 61.0371L-47.4748 54.2042L-65.3764 54.4257L-65.0283 76.443L-27.5203 75.9789L-28.1123 38.5242L-81.794 40.6513L-80.965 93.0931L-8.79034 92.2L-9.79445 28.6789L82.555 27.5362L83.7031 100.168L9.53942 101.086L8.63932 44.1444L66.038 43.4341L66.6861 84.4319L28.6097 84.903L28.2177 60.1019L47.54 59.8628Z" fill="#D9CBB6"/>
</g>
</g>
<g filter="url(#filter7_d_15_4171)">
<path d="M1483.89 195.375C1486.72 190.198 1488.17 184.963 1488.17 179.678C1488.17 73.2655 902.519 -12.9995 180.085 -12.9995C-542.35 -12.9995 -1128 73.2654 -1128 179.678C-1128 184.963 -1126.55 190.198 -1123.72 195.375C-1069.49 96.3049 -506.469 18.396 180.085 18.396C866.637 18.396 1429.65 96.3051 1483.89 195.375Z" fill="#B1844D"/>
</g>
<g filter="url(#filter8_d_15_4171)">
<path d="M910.863 145.322C750.344 124.116 482.587 110.228 179.39 110.228C-123.807 110.228 -391.564 124.116 -552.084 145.322C-344.564 134.227 -92.4581 127.724 179.389 127.724C451.236 127.724 703.343 134.227 910.863 145.322Z" fill="#B1844D"/>
</g>
<path d="M310.73 221.327C318.784 221.716 339.556 220.063 360.104 206.39C353.04 215.324 333.653 230.03 310.73 221.327Z" fill="#061031" fill-opacity="0.13"/>
<path d="M309.441 221.621C317.422 220.472 337.501 214.9 355.074 197.569C349.838 207.683 333.601 225.807 309.441 221.621Z" fill="#45825A"/>
<path d="M287.242 209.919C333.068 214.73 383.155 169.714 292.221 70.2514C357.155 120.344 378.957 223.244 287.242 209.919Z" fill="#061031" fill-opacity="0.13"/>
<path d="M279.143 214.485C325.194 212.93 368.596 161.438 264.816 75.4647C336.037 116.125 371.819 215.035 279.143 214.485Z" fill="#BF2201"/>
<path d="M276.87 207.659C278.172 207.585 279.433 207.471 280.653 207.321C366.01 198.335 281.682 111.03 231.142 107.08C312.752 133.898 330.079 201.223 280.653 207.321C279.427 207.45 278.166 207.563 276.87 207.659Z" fill="#061031" fill-opacity="0.13"/>
<path d="M268.567 212.725C269.858 212.548 271.106 212.335 272.31 212.088C356.684 196.347 265.684 116.019 214.99 116.099C298.474 136.346 321.095 202.081 272.31 212.088C271.099 212.314 269.851 212.526 268.567 212.725Z" fill="#F4910F"/>
</g>
<defs>
<filter id="filter0_i_15_4171" x="-36" y="94.0195" width="463" height="1040.96" filterUnits="userSpaceOnUse" color-interpolation-filters="sRGB">
<feFlood flood-opacity="0" result="BackgroundImageFix"/>
<feBlend mode="normal" in="SourceGraphic" in2="BackgroundImageFix" result="shape"/>
<feColorMatrix in="SourceAlpha" type="matrix" values="0 0 0 0 0 0 0 0 0 0 0 0 0 0 0 0 0 0 127 0" result="hardAlpha"/>
<feOffset dx="1" dy="1"/>
<feGaussianBlur stdDeviation="0.5"/>
<feComposite in2="hardAlpha" operator="arithmetic" k2="-1" k3="1"/>
<feColorMatrix type="matrix" values="0 0 0 0 0 0 0 0 0 0 0 0 0 0 0 0 0 0 0.45 0"/>
<feBlend mode="normal" in2="shape" result="effect1_innerShadow_15_4171"/>
</filter>
<filter id="filter1_i_15_4171" x="36.6562" y="682.844" width="458.877" height="541.441" filterUnits="userSpaceOnUse" color-interpolation-filters="sRGB">
<feFlood flood-opacity="0" result="BackgroundImageFix"/>
<feBlend mode="normal" in="SourceGraphic" in2="BackgroundImageFix" result="shape"/>
<feColorMatrix in="SourceAlpha" type="matrix" values="0 0 0 0 0 0 0 0 0 0 0 0 0 0 0 0 0 0 127 0" result="hardAlpha"/>
<feOffset dx="3" dy="7"/>
<feGaussianBlur stdDeviation="2.5"/>
<feComposite in2="hardAlpha" operator="arithmetic" k2="-1" k3="1"/>
<feColorMatrix type="matrix" values="0 0 0 0 0 0 0 0 0 0 0 0 0 0 0 0 0 0 0.8 0"/>
<feBlend mode="normal" in2="shape" result="effect1_innerShadow_15_4171"/>
</filter>
<filter id="filter2_i_15_4171" x="-40.1641" y="73.9775" width="157.432" height="256.735" filterUnits="userSpaceOnUse" color-interpolation-filters="sRGB">
<feFlood flood-opacity="0" result="BackgroundImageFix"/>
<feBlend mode="normal" in="SourceGraphic" in2="BackgroundImageFix" result="shape"/>
<feColorMatrix in="SourceAlpha" type="matrix" values="0 0 0 0 0 0 0 0 0 0 0 0 0 0 0 0 0 0 127 0" result="hardAlpha"/>
<feOffset dx="3" dy="5"/>
<feGaussianBlur stdDeviation="2.5"/>
<feComposite in2="hardAlpha" operator="arithmetic" k2="-1" k3="1"/>
<feColorMatrix type="matrix" values="0 0 0 0 0 0 0 0 0 0 0 0 0 0 0 0 0 0 1 0"/>
<feBlend mode="normal" in2="shape" result="effect1_innerShadow_15_4171"/>
</filter>
<filter id="filter3_d_15_4171" x="-978.874" y="27.1621" width="2316.99" height="147.106" filterUnits="userSpaceOnUse" color-interpolation-filters="sRGB">
<feFlood flood-opacity="0" result="BackgroundImageFix"/>
<feColorMatrix in="SourceAlpha" type="matrix" values="0 0 0 0 0 0 0 0 0 0 0 0 0 0 0 0 0 0 127 0" result="hardAlpha"/>
<feOffset dy="10.0552"/>
<feGaussianBlur stdDeviation="0.62845"/>
<feComposite in2="hardAlpha" operator="out"/>
<feColorMatrix type="matrix" values="0 0 0 0 0 0 0 0 0 0 0 0 0 0 0 0 0 0 0.11 0"/>
<feBlend mode="normal" in2="BackgroundImageFix" result="effect1_dropShadow_15_4171"/>
<feBlend mode="normal" in="SourceGraphic" in2="effect1_dropShadow_15_4171" result="shape"/>
</filter>
<filter id="filter4_df_15_4171" x="86.6912" y="26.3725" width="185.395" height="85.2077" filterUnits="userSpaceOnUse" color-interpolation-filters="sRGB">
<feFlood flood-opacity="0" result="BackgroundImageFix"/>
<feColorMatrix in="SourceAlpha" type="matrix" values="0 0 0 0 0 0 0 0 0 0 0 0 0 0 0 0 0 0 127 0" result="hardAlpha"/>
<feOffset dy="6.2845"/>
<feGaussianBlur stdDeviation="2.5138"/>
<feComposite in2="hardAlpha" operator="out"/>
<feColorMatrix type="matrix" values="0 0 0 0 0 0 0 0 0 0 0 0 0 0 0 0 0 0 0.25 0"/>
<feBlend mode="normal" in2="BackgroundImageFix" result="effect1_dropShadow_15_4171"/>
<feBlend mode="normal" in="SourceGraphic" in2="effect1_dropShadow_15_4171" result="shape"/>
<feGaussianBlur stdDeviation="0.62845" result="effect2_foregroundBlur_15_4171"/>
</filter>
<filter id="filter5_df_15_4171" x="270.51" y="25.9052" width="186.481" height="87.3703" filterUnits="userSpaceOnUse" color-interpolation-filters="sRGB">
<feFlood flood-opacity="0" result="BackgroundImageFix"/>
<feColorMatrix in="SourceAlpha" type="matrix" values="0 0 0 0 0 0 0 0 0 0 0 0 0 0 0 0 0 0 127 0" result="hardAlpha"/>
<feOffset dy="6.2845"/>
<feGaussianBlur stdDeviation="2.5138"/>
<feComposite in2="hardAlpha" operator="out"/>
<feColorMatrix type="matrix" values="0 0 0 0 0 0 0 0 0 0 0 0 0 0 0 0 0 0 0.25 0"/>
<feBlend mode="normal" in2="BackgroundImageFix" result="effect1_dropShadow_15_4171"/>
<feBlend mode="normal" in="SourceGraphic" in2="effect1_dropShadow_15_4171" result="shape"/>
<feGaussianBlur stdDeviation="0.62845" result="effect2_foregroundBlur_15_4171"/>
</filter>
<filter id="filter6_df_15_4171" x="-97.7503" y="26.2792" width="186.481" height="87.3703" filterUnits="userSpaceOnUse" color-interpolation-filters="sRGB">
<feFlood flood-opacity="0" result="BackgroundImageFix"/>
<feColorMatrix in="SourceAlpha" type="matrix" values="0 0 0 0 0 0 0 0 0 0 0 0 0 0 0 0 0 0 127 0" result="hardAlpha"/>
<feOffset dy="6.2845"/>
<feGaussianBlur stdDeviation="2.5138"/>
<feComposite in2="hardAlpha" operator="out"/>
<feColorMatrix type="matrix" values="0 0 0 0 0 0 0 0 0 0 0 0 0 0 0 0 0 0 0.25 0"/>
<feBlend mode="normal" in2="BackgroundImageFix" result="effect1_dropShadow_15_4171"/>
<feBlend mode="normal" in="SourceGraphic" in2="effect1_dropShadow_15_4171" result="shape"/>
<feGaussianBlur stdDeviation="0.62845" result="effect2_foregroundBlur_15_4171"/>
</filter>
<filter id="filter7_d_15_4171" x="-1133.03" y="-12.9995" width="2626.22" height="237.284" filterUnits="userSpaceOnUse" color-interpolation-filters="sRGB">
<feFlood flood-opacity="0" result="BackgroundImageFix"/>
<feColorMatrix in="SourceAlpha" type="matrix" values="0 0 0 0 0 0 0 0 0 0 0 0 0 0 0 0 0 0 127 0" result="hardAlpha"/>
<feOffset dy="23.8811"/>
<feGaussianBlur stdDeviation="2.5138"/>
<feComposite in2="hardAlpha" operator="out"/>
<feColorMatrix type="matrix" values="0 0 0 0 0 0 0 0 0 0 0 0 0 0 0 0 0 0 0.17 0"/>
<feBlend mode="normal" in2="BackgroundImageFix" result="effect1_dropShadow_15_4171"/>
<feBlend mode="normal" in="SourceGraphic" in2="effect1_dropShadow_15_4171" result="shape"/>
</filter>
<filter id="filter8_d_15_4171" x="-555.502" y="110.228" width="1469.78" height="46.1253" filterUnits="userSpaceOnUse" color-interpolation-filters="sRGB">
<feFlood flood-opacity="0" result="BackgroundImageFix"/>
<feColorMatrix in="SourceAlpha" type="matrix" values="0 0 0 0 0 0 0 0 0 0 0 0 0 0 0 0 0 0 127 0" result="hardAlpha"/>
<feOffset dy="7.61271"/>
<feGaussianBlur stdDeviation="1.70893"/>
<feComposite in2="hardAlpha" operator="out"/>
<feColorMatrix type="matrix" values="0 0 0 0 0 0 0 0 0 0 0 0 0 0 0 0 0 0 0.13 0"/>
<feBlend mode="normal" in2="BackgroundImageFix" result="effect1_dropShadow_15_4171"/>
<feBlend mode="normal" in="SourceGraphic" in2="effect1_dropShadow_15_4171" result="shape"/>
</filter>
<clipPath id="clip0_15_4171">
<rect width="360" height="1762" fill="white"/>
</clipPath>
</defs>
</svg>
