<svg width="26" height="26" viewBox="0 0 26 26" fill="none" xmlns="http://www.w3.org/2000/svg">
<path fill-rule="evenodd" clip-rule="evenodd" d="M11.4868 5.88184C11.176 5.88184 10.8779 6.0053 10.6582 6.22507C10.4384 6.44484 10.3149 6.74291 10.3149 7.05371V9.00683C10.3149 9.43831 9.96516 9.78808 9.53369 9.78808C9.10222 9.78808 8.75244 9.43831 8.75244 9.00683V7.05371C8.75244 6.32851 9.04053 5.63301 9.55332 5.12022C10.0661 4.60742 10.7616 4.31934 11.4868 4.31934H19.2993C20.0245 4.31934 20.72 4.60742 21.2328 5.12022C21.7456 5.63301 22.0337 6.32851 22.0337 7.05371V18.7725C22.0337 19.4977 21.7456 20.1932 21.2328 20.706C20.72 21.2187 20.0245 21.5068 19.2993 21.5068H11.8774C11.1438 21.5068 10.3916 21.2169 9.81925 20.7685C9.24989 20.3224 8.75244 19.6293 8.75244 18.7725V16.8193C8.75244 16.3879 9.10222 16.0381 9.53369 16.0381C9.96516 16.0381 10.3149 16.3879 10.3149 16.8193V18.7725C10.3149 18.9942 10.4501 19.2777 10.7829 19.5385C11.1128 19.797 11.5324 19.9443 11.8774 19.9443H19.2993C19.6101 19.9443 19.9082 19.8209 20.128 19.6011C20.3477 19.3813 20.4712 19.0833 20.4712 18.7725V7.05371C20.4712 6.74291 20.3477 6.44484 20.128 6.22507C19.9082 6.0053 19.6101 5.88184 19.2993 5.88184H11.4868Z" fill="#1D2225"/>
<path fill-rule="evenodd" clip-rule="evenodd" d="M13.6688 8.45441C13.9739 8.14931 14.4685 8.14931 14.7736 8.45441L18.6799 12.3607C18.985 12.6658 18.985 13.1604 18.6799 13.4655L14.7736 17.3718C14.4685 17.6769 13.9739 17.6769 13.6688 17.3718C13.3637 17.0667 13.3637 16.572 13.6688 16.2669L16.2413 13.6943H4.06494C3.63347 13.6943 3.28369 13.3446 3.28369 12.9131C3.28369 12.4816 3.63347 12.1318 4.06494 12.1318H16.2413L13.6688 9.55926C13.3637 9.25417 13.3637 8.75951 13.6688 8.45441Z" fill="black"/>
</svg>
