<svg width="25" height="25" viewBox="0 0 25 25" fill="none" xmlns="http://www.w3.org/2000/svg">
<path fill-rule="evenodd" clip-rule="evenodd" d="M9.25173 18.1483C9.02677 17.9233 8.90039 17.6181 8.90039 17.2999C8.90039 16.9817 9.02677 16.6765 9.25173 16.4515L13.2033 12.4999L9.25173 8.5483C9.03314 8.32198 8.91219 8.01886 8.91493 7.70422C8.91766 7.38959 9.04386 7.08861 9.26635 6.86612C9.48884 6.64363 9.78982 6.51743 10.1045 6.51469C10.4191 6.51196 10.7222 6.63291 10.9485 6.8515L15.7485 11.6515C15.9735 11.8765 16.0999 12.1817 16.0999 12.4999C16.0999 12.8181 15.9735 13.1233 15.7485 13.3483L10.9485 18.1483C10.7235 18.3733 10.4183 18.4996 10.1001 18.4996C9.78194 18.4996 9.47677 18.3733 9.25173 18.1483Z" fill="#355665"/>
</svg>
