<svg width="3230" height="1438" viewBox="0 0 3230 1438" fill="none" xmlns="http://www.w3.org/2000/svg">
<g opacity="0.7" filter="url(#filter0_d_1_34295)">
<path fill-rule="evenodd" clip-rule="evenodd" d="M2150.35 1386.62C2163.61 1417.11 2239.38 1406.1 2267.79 1394.67C2285.79 1387.47 2282.95 1386.62 2292.42 1372.22C2356.83 1368.41 2594.57 1371.37 2635.3 1349.78C2605.93 1331.14 2491.33 1333.26 2473.33 1302.35C2479.96 1287.1 2509.32 1281.59 2530.16 1275.24C2640.98 1239.67 2780.21 1220.19 2894.82 1229.51C2918.5 1231.2 2975.33 1237.13 2988.59 1260.84C2996.17 1274.4 2987.64 1281.17 2985.75 1290.91C3023.64 1297.69 3070.99 1291.76 3107.93 1283.29C3153.4 1273.12 3170.45 1259.15 3205.49 1242.21L3206.44 1263.81V1236.7V1235.86V1234.59V1233.32V1231.2C3201.7 1193.51 3205.49 992.777 3205.49 985.578C3177.08 986.849 3151.5 994.894 3128.77 1007.18C3117.41 1013.53 3108.88 1020.3 3100.36 1027.5C3094.67 1031.74 3090.88 1034.7 3086.15 1039.78C3080.47 1045.71 3078.57 1048.68 3073.84 1053.76C3051.1 1078.32 3032.16 1116.01 3017.95 1148.62C3012.27 1161.75 3009.43 1175.72 3003.75 1188.43L2996.17 1177.42C2981.01 1146.08 2962.07 1117.71 2928.92 1105C2878.72 1085.94 2846.52 1113.05 2813.36 1133.8C2809.58 1130.83 2811.47 1132.53 2808.63 1128.72C2798.21 1116.43 2791.58 1109.24 2773.58 1102.04C2755.59 1094.84 2733.8 1093.99 2714.86 1098.65C2685.5 1105 2694.02 1113.47 2663.71 1105.42C2643.82 1100.34 2622.98 1100.77 2603.09 1107.12C2562.36 1120.25 2539.63 1148.62 2575.62 1185.46C2605.93 1216.38 2640.03 1210.87 2683.6 1207.91C2655.19 1217.22 2635.3 1228.66 2600.25 1220.19C2586.99 1217.22 2573.73 1210.87 2565.21 1203.25C2532.06 1171.49 2556.68 1162.17 2509.32 1151.58C2495.12 1148.2 2479.96 1147.77 2465.75 1149.89C2431.66 1154.97 2418.39 1166.41 2392.82 1180.38C2415.55 1180.81 2471.44 1168.1 2485.64 1228.66C2455.33 1211.3 2456.28 1208.76 2415.55 1215.53C2428.81 1290.06 2382.4 1315.47 2319.89 1318.44C2272.53 1400.17 2223.28 1399.32 2150.35 1386.62ZM3206.44 1263.81L3203.6 1284.56L3204.55 1336.65C3204.55 1340.04 3204.55 1341.73 3205.49 1345.12C3205.49 1346.39 3205.49 1347.23 3205.49 1347.66L3206.44 1350.2V1263.81Z" fill="#FCDEB5"/>
<path fill-rule="evenodd" clip-rule="evenodd" d="M2490.38 1426H3206.44V1350.2L3205.49 1347.66C3205.49 1347.23 3205.49 1346.38 3205.49 1345.11C3204.54 1341.73 3204.54 1340.03 3204.54 1336.65L3203.6 1284.56C3185.6 1281.17 3188.44 1288.79 3177.08 1296.41C3174.24 1290.48 3147.72 1286.67 3133.51 1293.87C3109.83 1306.58 3119.3 1314.62 3109.83 1334.95C3102.25 1343.84 3087.1 1334.1 3066.26 1360.78C3061.52 1367.98 3060.58 1370.52 3055.84 1376.03C3048.26 1355.7 3047.32 1346.38 3008.48 1333.26C2975.33 1321.4 2962.07 1327.75 2940.28 1345.96C2946.92 1335.37 2925.13 1292.18 2892.93 1274.39C2833.25 1240.09 2756.53 1240.09 2715.81 1298.53C2695.92 1326.9 2717.7 1314.2 2685.5 1328.18C2672.24 1333.68 2660.87 1348.93 2658.03 1366.71C2630.56 1367.14 2625.82 1373.49 2619.19 1400.59C2572.78 1361.21 2509.32 1370.95 2490.38 1426Z" fill="#FCDEB5"/>
<path fill-rule="evenodd" clip-rule="evenodd" d="M23.002 1308.7C86.463 1317.6 149.923 1338.77 207.7 1357.4C274.002 1378.15 328.938 1390.43 399.976 1403.14C378.191 1373.5 365.878 1370.53 323.255 1374.77C313.783 1358.67 311.889 1344.28 300.523 1330.3C292.945 1319.71 281.58 1308.28 269.266 1300.66C256.006 1293.03 241.798 1287.1 223.802 1287.1C207.7 1286.68 189.704 1290.92 178.338 1302.35C188.757 1315.48 200.123 1319.71 198.229 1341.31C182.127 1311.24 160.342 1306.58 123.402 1316.32C130.98 1253.23 138.557 1208.76 113.931 1150.32C97.8287 1111.78 67.5195 1074.51 23.002 1067.32L23.002 1308.7Z" fill="#FCDEB5"/>
<path fill-rule="evenodd" clip-rule="evenodd" d="M2753.69 565.477C2746.11 576.488 2753.69 568.018 2741.38 570.982C2720.54 576.064 2734.75 570.135 2729.06 576.911C2722.43 582.417 2728.12 570.982 2727.17 581.146C2726.22 587.499 2735.7 595.122 2737.59 613.331C2740.43 639.163 2731.91 638.74 2732.85 652.715L2733.8 657.374C2738.54 672.619 2748.01 674.737 2739.48 697.605C2733.8 711.58 2730.01 719.202 2737.59 736.142L2740.43 747.153C2764.11 747.576 2770.74 740.377 2796.31 751.388C2813.36 758.586 2824.73 768.75 2832.31 788.231L2862.62 797.547C2872.09 785.69 2871.14 778.067 2889.14 772.562C2879.66 767.903 2886.29 770.868 2883.45 764.939C2866.4 745.036 2871.14 727.672 2873.03 697.605C2871.14 687.864 2865.46 689.982 2855.04 683.206C2848.41 678.124 2840.83 670.079 2836.09 663.726C2825.68 650.174 2819.05 631.118 2816.2 609.943L2814.31 555.737C2805.79 560.395 2805.79 560.395 2800.1 570.559C2796.31 577.758 2795.37 581.993 2793.47 591.31C2786.84 575.641 2778.32 550.655 2753.69 565.477Z" fill="#FCDEB5"/>
<path fill-rule="evenodd" clip-rule="evenodd" d="M231.38 927.978C276.844 920.779 293.893 949.153 300.523 997.006C319.466 984.725 337.462 986.843 342.199 1013.95C346.935 1023.26 345.987 1022.84 346.935 1035.12C357.353 1010.13 405.659 1021.99 420.813 1041.05C435.968 997.006 501.323 983.031 548.682 999.123C537.315 976.679 525.002 950.847 553.417 933.907C585.621 915.273 589.41 957.198 614.037 947.035C600.776 940.259 588.463 926.284 587.515 906.381C585.621 902.569 586.568 902.993 585.621 900.452C582.78 893.676 584.674 897.911 582.78 894.523C574.255 910.192 556.259 919.085 532.58 917.391C525.95 974.562 478.591 1021.15 433.127 958.045C434.074 983.878 437.863 981.337 449.229 993.194C425.549 1009.71 389.557 1018.18 366.825 996.582C363.036 969.48 380.086 960.586 400.923 955.504C385.768 942.8 392.399 953.81 383.874 932.213C322.308 948.306 288.21 905.534 299.576 858.103C303.364 839.046 312.836 832.271 317.573 819.142C304.312 822.954 300.523 826.765 287.262 822.954C286.315 811.096 284.422 814.06 291.051 805.59L299.576 798.391C299.576 797.967 301.471 797.967 301.471 796.697C301.471 795.426 303.364 795.85 303.364 795.003C276.844 800.085 255.059 818.719 243.693 839.046C225.697 867.843 228.538 890.288 231.38 927.978Z" fill="#FCDEB5"/>
<path fill-rule="evenodd" clip-rule="evenodd" d="M550.576 1414.99C611.196 1418.8 683.18 1413.72 740.01 1406.52C777.897 1401.86 879.245 1388.73 906.712 1375.18C883.033 1318.43 719.173 1288.37 667.078 1394.24C644.347 1384.92 632.033 1375.18 602.671 1381.11C585.622 1384.92 573.309 1392.54 560.996 1402.71C552.471 1410.33 556.259 1404.4 550.576 1414.99Z" fill="#FCDEB5"/>
<path fill-rule="evenodd" clip-rule="evenodd" d="M2246.01 934.34C2245.06 944.927 2240.33 955.514 2242.22 968.219C2244.11 977.959 2249.8 990.24 2253.59 989.817C2234.64 917.824 2280.11 929.681 2293.37 919.518C2298.1 915.283 2312.31 864.465 2373.88 849.643C2421.24 838.632 2461.02 858.112 2465.75 904.696C2490.38 901.308 2501.75 906.814 2520.69 914.859C2521.64 912.742 2515.95 906.814 2510.27 903.426C2503.64 899.191 2497.01 897.92 2487.54 897.073C2490.38 891.568 2489.43 890.297 2491.33 886.909C2483.75 867.006 2491.33 843.29 2459.12 843.714C2460.07 805.6 2441.13 784.849 2407.97 785.273C2408.92 773.839 2410.82 754.781 2407.03 744.195C2401.35 730.643 2407.03 742.077 2401.35 736.148C2402.29 778.497 2391.87 811.529 2362.51 821.269C2348.3 791.625 2309.47 794.589 2305.68 841.173C2285.79 844.561 2271.58 844.984 2266.85 864.888C2259.27 889.45 2274.42 897.073 2284.84 910.625C2263.06 915.283 2262.11 916.977 2248.85 931.375L2246.01 934.34Z" fill="#FCDEB5"/>
<path fill-rule="evenodd" clip-rule="evenodd" d="M23.002 924.592C77.938 923.321 108.247 964.4 112.036 1023.26C128.138 1015.22 142.345 994.043 184.969 999.549C215.278 1002.94 238.009 1019.88 248.429 1038.93C251.27 1034.7 251.27 1039.36 249.376 1031.73L237.062 1008.87C204.858 968.211 177.391 972.869 134.769 984.727C134.769 894.524 92.1455 842.859 23.002 827.19L23.002 924.592Z" fill="#FCDEB5"/>
<path fill-rule="evenodd" clip-rule="evenodd" d="M2767.9 880.971C2767.9 853.022 2760.32 836.929 2777.37 813.214C2790.63 795.004 2803.89 789.076 2832.31 788.229C2824.73 768.748 2813.36 758.584 2796.32 751.385C2770.74 740.374 2764.11 747.574 2740.43 747.15L2737.59 736.14C2735.7 733.175 2733.8 729.364 2730.96 726.823C2724.33 719.623 2729.07 723.858 2721.49 719.623C2732.85 745.456 2752.74 781.029 2722.44 822.954C2697.81 856.833 2675.08 856.41 2629.61 848.787C2670.34 879.701 2710.12 897.064 2767.9 880.971Z" fill="#FCDEB5"/>
<path fill-rule="evenodd" clip-rule="evenodd" d="M3205.49 251.672L3204.54 371.095C3179.92 362.201 3154.34 366.013 3145.82 386.341C3142.03 377.871 3144.87 376.6 3140.14 370.248C3139.19 372.789 3140.14 377.024 3139.19 377.447C3139.19 383.376 3139.19 380.835 3138.24 383.8C3127.82 360.084 3082.36 328.323 3040.68 339.333C2996.17 351.615 2984.8 393.116 2970.59 415.561C2909.03 414.714 2881.56 435.465 2855.99 472.308C2819.05 526.514 2824.73 566.322 2818.1 602.742C2817.15 609.941 2818.1 605.706 2816.21 609.941C2819.05 631.116 2825.68 650.172 2836.09 663.724C2840.83 670.077 2848.41 678.122 2855.04 683.204C2865.46 689.98 2871.14 687.862 2873.03 697.603C2886.3 682.781 2876.82 666.265 2909.03 662.03C2912.82 613.753 2937.44 598.507 2977.22 589.191C2979.12 568.439 2983.85 558.275 2995.22 550.653C2990.48 564.204 2978.17 585.379 2993.33 604.436L3004.69 617.14C2959.23 625.187 2944.07 672.617 2969.65 714.119C2924.18 717.506 2919.45 691.674 2909.97 672.194C2894.82 676.852 2884.4 691.674 2880.61 709.461C2873.03 738.258 2883.45 745.034 2883.45 764.937C2886.3 770.866 2879.67 767.901 2889.14 772.56C2900.5 773.407 2901.45 772.136 2909.97 778.912C2920.39 764.937 2919.45 755.62 2942.18 761.972C2944.07 736.564 2952.6 730.211 2976.28 733.176C2981.01 721.318 2981.01 720.894 2991.43 717.506C2981.01 733.599 2981.01 730.211 2981.01 753.927C2960.17 756.891 2955.44 761.549 2955.44 784.841C2930.81 778.912 2927.02 789.076 2923.23 814.485C2917.55 804.745 2914.71 795.851 2904.29 791.617C2873.98 778.065 2884.4 827.613 2846.51 847.94C2845.57 847.517 2845.57 846.246 2845.57 845.823L2842.73 836.506C2832.31 816.179 2797.26 834.812 2788.74 853.869C2770.74 896.641 2807.68 925.015 2809.57 928.403C2817.15 920.356 2820.94 915.698 2832.31 910.617C2830.41 885.207 2833.25 876.737 2849.36 865.304C2837.99 893.254 2838.94 891.56 2847.46 922.897C2826.62 929.25 2818.1 941.108 2821.89 970.328C2803.89 958.894 2818.1 949.578 2796.31 941.108C2783.05 935.602 2778.32 940.261 2773.58 948.307C2773.58 949.154 2771.69 951.694 2771.69 952.118L2768.85 955.929C2745.17 955.506 2726.22 961.435 2714.86 977.951C2709.17 985.574 2705.39 994.89 2708.23 1006.32C2711.07 1024.53 2716.75 1017.34 2723.38 1030.89C2711.07 1034.7 2697.81 1041.47 2685.5 1031.73C2678.87 1027.08 2676.97 1022.42 2675.08 1015.22L2673.18 1002.51C2672.24 1002.09 2672.24 1000.82 2672.24 999.972C2668.45 987.691 2652.34 992.772 2645.71 999.125C2637.19 1006.75 2635.3 1024.96 2635.3 1022.84C2634.35 1022.42 2634.35 1024.53 2633.4 1025.38C2626.77 991.078 2646.66 970.751 2673.18 988.538C2680.76 977.951 2679.81 967.787 2693.07 954.235C2701.6 945.766 2717.7 940.261 2729.07 934.332C2711.07 925.862 2678.87 936.026 2663.71 947.884L2678.87 955.929L2670.34 958.47C2650.45 964.823 2658.97 979.221 2654.24 970.328C2654.24 969.481 2653.29 971.598 2653.29 972.022C2642.87 958.47 2632.45 963.976 2621.09 968.634C2615.41 970.752 2622.04 973.292 2602.15 967.364C2566.15 956.353 2538.68 971.598 2530.16 1012.25C2551 1006.75 2550.05 1008.44 2567.1 1016.49C2534.9 1017.76 2522.58 1025.38 2529.21 1063.92C2506.48 1062.65 2511.22 1064.77 2497.96 1077.89C2497.96 1055.87 2498.9 1056.3 2512.16 1048.67C2507.43 1044.44 2501.74 1041.05 2495.11 1046.56C2488.48 1052.06 2493.22 1047.83 2489.43 1055.87L2485.64 1065.19C2480.91 1048.25 2486.59 1042.74 2473.33 1038.09C2463.86 1035.12 2464.81 1037.24 2458.17 1037.66C2455.33 1037.66 2454.39 1038.09 2451.54 1037.66C2442.07 1036.39 2453.44 1041.9 2445.86 1035.12C2456.28 1030.04 2466.7 1024.53 2480.91 1031.31L2485.64 987.691C2443.02 994.89 2440.18 1024.96 2429.76 1039.36C2421.24 1028.77 2417.45 1024.53 2402.29 1033C2365.35 1052.91 2364.41 1104.15 2380.51 1128.29L2368.19 1140.15C2364.41 1146.5 2364.41 1151.16 2365.35 1159.63C2372.93 1154.12 2376.72 1145.23 2389.03 1144.38C2380.51 1196.47 2343.57 1169.79 2325.57 1212.56C2330.31 1218.49 2334.1 1217.64 2339.78 1225.69C2317.05 1223.15 2285.79 1218.49 2276.32 1249.83L2269.69 1275.66C2267.79 1268.89 2262.11 1259.57 2264.01 1251.95C2253.59 1264.23 2255.48 1276.93 2257.37 1296.84C2266.85 1303.19 2278.21 1305.31 2284.84 1315.47C2264.95 1312.08 2245.06 1304.04 2226.12 1314.62C2203.39 1327.75 2208.12 1344.27 2197.7 1359.94C2188.23 1374.76 2104.88 1380.69 2081.2 1378.57C2089.73 1378.57 2127.61 1360.78 2137.08 1356.12C2166.45 1342.15 2160.76 1335.8 2199.6 1340.88C2204.33 1304.46 2209.07 1299.38 2241.27 1296.84L2227.07 1293.87L2223.28 1274.81C2173.08 1257.03 2179.71 1244.75 2148.45 1262.53C2133.3 1232.04 2109.62 1210.02 2064.15 1222.3C2046.16 1190.54 2018.69 1201.97 2004.48 1232.89C1992.17 1218.07 1956.18 1208.33 1936.28 1263.8C1900.29 1244.75 1876.61 1251.95 1840.62 1263.38C1834.94 1256.6 1833.99 1252.79 1827.36 1249.83L1818.84 1248.14C1817.89 1248.14 1816.94 1247.71 1816.94 1247.71L1813.15 1246.86C1796.1 1149.46 1753.48 1186.73 1735.48 1180.8C1728.85 1178.68 1724.12 1169.79 1708.96 1168.1C1672.97 1163.44 1659.71 1193.51 1658.76 1234.16C1631.3 1241.78 1636.03 1239.67 1625.61 1268.46C1613.3 1252.79 1602.88 1230.77 1576.36 1228.65C1545.1 1226.11 1535.63 1249.41 1521.42 1262.11C1513.85 1246.02 1499.64 1227.38 1476.91 1228.23C1453.23 1228.65 1445.65 1247.29 1434.28 1261.26C1412.5 1220.61 1385.98 1234.58 1383.14 1277.36C1362.3 1273.54 1352.83 1278.63 1347.14 1298.53C1334.83 1287.52 1326.31 1283.28 1303.58 1284.13C1297.89 1265.92 1291.26 1254.06 1270.42 1252.79C1253.38 1251.52 1260.01 1254.91 1248.64 1243.48C1214.54 1205.79 1171.92 1217.22 1155.82 1259.99C1144.45 1254.91 1140.66 1248.56 1128.35 1243.05C1107.51 1233.31 1117.93 1238.39 1106.56 1224C1088.57 1203.25 1056.36 1204.09 1049.73 1196.89L1036.47 1171.48C1022.27 1196.47 1005.22 1204.09 975.855 1197.74C928.497 1187.58 937.021 1155.39 930.391 1149.04C920.919 1144.38 909.553 1143.11 902.922 1152.43C895.346 1161.74 902.922 1165.56 902.922 1180.8C861.247 1124.48 835.673 1152.43 797.787 1165.56C808.206 1153.7 811.047 1145.23 828.096 1138.88C826.202 1099.49 811.995 1066.04 793.051 1050.37C764.636 1026.65 733.379 1036.39 701.175 1044.44C708.753 1039.36 709.7 1035.97 719.172 1032.58C713.489 1028.77 717.277 1033 714.436 1024.11C713.489 1021.15 713.489 1015.64 711.595 1011.41C687.915 1004.21 697.387 1015.22 681.285 1018.61C653.817 995.313 660.447 965.246 691.704 950.848C668.972 945.343 674.655 939.837 667.077 931.367C652.87 944.919 637.715 954.235 614.036 947.037C589.409 957.2 585.621 915.274 553.417 933.908C525.002 950.848 537.315 976.68 548.682 999.125C501.322 983.033 435.968 997.007 420.813 1041.05C405.658 1021.99 357.353 1010.14 346.934 1035.12C345.987 1022.84 346.934 1023.26 342.198 1013.95C347.882 1074.08 355.458 1021.15 362.089 1093.99C397.134 1095.26 426.496 1108.81 421.76 1151.16C415.131 1137.18 413.236 1127.86 399.976 1119.39C387.662 1110.93 372.508 1111.77 357.353 1113.47C319.466 1055.87 267.372 1083.4 255.058 1131.68C268.319 1139.3 284.421 1148.19 291.998 1157.93C295.787 1162.59 300.523 1171.48 303.364 1178.68C310.942 1196.47 304.311 1190.96 320.413 1196.89C355.458 1209.6 341.251 1228.23 360.195 1235.85C364.931 1237.55 367.772 1237.55 372.508 1240.09C382.927 1245.17 384.821 1248.56 388.609 1259.99C406.606 1251.1 403.764 1252.37 424.602 1249.83C446.387 1189.69 507.953 1223.57 522.16 1248.98C533.527 1270.16 526.896 1254.91 543.945 1265.07C564.783 1277.36 548.682 1300.65 550.575 1310.81C550.575 1319.7 564.783 1334.95 543.945 1358.24C535.421 1355.28 542.998 1357.82 537.315 1352.31C534.473 1348.92 542.051 1350.19 528.791 1345.11C531.633 1365.44 547.734 1377.72 533.527 1397.63C537.315 1371.79 529.738 1339.18 493.746 1363.32C480.485 1341.73 478.591 1329.44 445.44 1339.61C443.546 1306.58 426.496 1300.22 394.293 1301.92C406.606 1293.45 418.919 1291.75 435.021 1296.84C453.017 1302.34 453.017 1309.54 460.595 1323.52L483.327 1314.62C479.538 1286.25 467.225 1281.17 441.651 1287.52C420.813 1292.6 428.391 1272.27 385.768 1287.52C373.455 1258.3 341.251 1253.64 321.36 1277.78C331.78 1283.71 330.832 1278.2 338.409 1290.91C324.202 1286.25 321.36 1290.48 311.889 1287.52C309.047 1286.67 310.942 1284.98 300.523 1283.71L307.153 1276.08C280.632 1263.38 270.213 1266.35 248.429 1278.2C256.006 1262.11 278.738 1251.95 295.787 1267.61C307.153 1251.52 311.889 1266.35 326.096 1243.05C279.685 1221.88 333.674 1164.28 236.115 1158.36C230.432 1114.74 221.908 1093.99 182.127 1088.9C174.549 1046.13 148.976 1027.92 108.247 1040.2C95.9343 1018.18 98.776 1003.78 79.8325 984.727C66.5723 971.175 46.6815 963.129 23.002 962.282L23.002 1067.31C67.5195 1074.51 97.8287 1111.77 113.931 1150.31C138.557 1208.75 130.98 1253.22 123.402 1316.32C160.342 1306.58 182.127 1311.23 198.229 1341.3C200.123 1319.7 188.757 1315.47 178.338 1302.34C189.704 1290.91 207.7 1286.67 223.802 1287.1C241.798 1287.1 256.006 1293.02 269.266 1300.65C281.58 1308.27 292.945 1319.7 300.523 1330.29C311.889 1344.27 313.783 1358.66 323.255 1374.76C365.878 1370.52 378.191 1373.49 399.976 1403.13C452.07 1406.94 497.534 1414.57 550.575 1414.99C556.258 1404.4 552.47 1410.33 560.995 1402.71C573.308 1392.54 585.621 1384.92 602.67 1381.11C632.033 1375.18 644.346 1384.92 667.077 1394.24C719.172 1288.37 883.032 1318.43 906.711 1375.18C915.235 1373.49 919.972 1371.79 927.549 1369.68C936.073 1367.13 942.704 1366.29 948.386 1359.94C931.337 1361.63 918.077 1362.9 915.235 1341.3L932.285 1334.1C927.549 1307 910.5 1313.35 899.134 1326.48C891.557 1282.86 862.195 1273.12 820.519 1272.27C825.255 1263.8 832.832 1259.15 827.149 1250.25C822.413 1241.78 811.995 1242.63 803.47 1244.75C810.1 1251.52 809.153 1252.37 807.259 1264.23C768.424 1288.37 763.689 1241.36 750.428 1227.81C725.802 1204.09 698.334 1210.02 672.76 1225.69C668.972 1221.88 672.76 1225.69 668.971 1220.61C667.077 1219.34 666.131 1217.22 664.236 1215.53C650.028 1200.28 639.609 1207.06 629.191 1215.1C588.462 1182.49 630.138 1165.98 664.236 1188.85L668.024 1185.46C678.444 1175.3 685.073 1168.1 703.07 1171.48C718.224 1174.03 730.538 1188.42 737.168 1195.62C773.16 1178.26 782.632 1191.39 795.893 1210.87C799.681 1216.37 796.84 1212.99 800.628 1216.8L809.153 1199.86C830.938 1199.01 834.726 1207.06 831.885 1231.62C847.04 1235.01 850.828 1242.21 851.775 1260.42C881.138 1256.6 902.922 1269.73 907.659 1298.95C946.493 1292.6 960.7 1299.38 969.224 1340.46C992.904 1343.42 999.534 1345.96 1005.22 1367.98C1030.79 1364.59 1116.04 1361.21 1127.4 1383.23C1158.66 1384.07 1187.07 1390 1221.17 1390.85C1254.32 1391.27 1287.47 1389.16 1319.68 1389.58C1308.31 1393.81 1238.22 1399.74 1221.17 1401.01L1013.74 1418.8C996.693 1420.07 978.696 1419.65 960.7 1421.34C952.175 1422.19 943.651 1422.61 934.179 1423.04C930.391 1423.04 924.708 1423.04 920.919 1423.04C917.13 1423.46 916.183 1423.46 913.342 1424.31L907.659 1426H2186.34C2167.39 1414.57 2157.92 1423.46 2138.03 1401.01C2122.88 1412.02 2120.98 1404.4 2106.78 1408.64C2102.99 1409.48 2099.2 1413.72 2093.51 1415.84C2086.88 1418.38 2079.31 1418.8 2071.73 1417.95C2056.58 1415.84 2055.63 1409.48 2041.42 1408.21C1966.59 1403.55 1959.96 1417.95 1871.88 1374.76C1918.29 1381.96 1919.24 1396.36 2006.38 1398.05C2070.78 1399.32 2125.72 1386.19 2150.34 1386.61C2223.28 1399.32 2272.53 1400.17 2319.89 1318.43C2382.4 1315.47 2428.81 1290.06 2415.55 1215.53C2456.28 1208.75 2455.33 1211.29 2485.64 1228.65C2471.43 1168.1 2415.55 1180.8 2392.82 1180.38C2418.39 1166.4 2431.65 1154.97 2465.75 1149.89C2479.96 1147.77 2495.11 1148.19 2509.32 1151.58C2556.68 1162.17 2532.05 1171.48 2565.21 1203.25C2573.73 1210.87 2586.99 1217.22 2600.25 1220.19C2635.3 1228.65 2655.19 1217.22 2683.6 1207.9C2640.03 1210.87 2605.93 1216.37 2575.62 1185.46C2539.63 1148.62 2562.36 1120.24 2603.09 1107.11C2622.98 1100.76 2643.82 1100.34 2663.71 1105.42C2694.02 1113.47 2685.5 1105 2714.86 1098.64C2733.8 1093.99 2755.59 1094.83 2773.58 1102.03C2791.58 1109.23 2798.21 1116.43 2808.63 1128.71C2811.47 1132.52 2809.57 1130.83 2813.36 1133.79C2846.51 1113.04 2878.72 1085.94 2928.92 1105C2962.07 1117.7 2981.01 1146.08 2996.17 1177.41L3003.74 1188.42C3009.43 1175.72 3012.27 1161.74 3017.95 1148.62C3032.16 1116.01 3051.1 1078.32 3073.83 1053.75C3078.57 1048.67 3080.47 1045.71 3086.15 1039.78C3090.88 1034.7 3094.67 1031.73 3100.36 1027.5C3108.88 1020.3 3117.4 1013.52 3128.77 1007.17C3151.5 994.89 3177.08 986.844 3205.49 985.574C3205.49 992.349 3202.65 1193.5 3206.44 1231.2V1224.42V1219.76V1215.53V1210.87V1206.63V1201.97V1197.32V1193.08V1188.42V1183.77V1089.75V1085.09V1080.01V1075.35V1070.69V1066.04V1060.95V1056.3V1051.64V1046.98V1041.9V1037.24V1032.58V1027.92V1023.26V1018.61V1013.52V1008.87V34H3205.49V251.672Z" fill="#F8DEC6"/>
<path fill-rule="evenodd" clip-rule="evenodd" d="M303.362 795.005C303.362 795.852 301.469 795.428 301.469 796.699C301.469 797.969 299.574 797.969 299.574 798.393L291.049 805.592C284.42 814.062 286.313 811.098 287.261 822.955C300.522 826.767 304.31 822.955 317.571 819.144C312.835 832.272 303.362 839.047 299.574 858.105C288.208 905.535 322.306 948.307 383.873 932.215C392.397 953.812 385.766 942.802 400.922 955.506C380.084 960.588 363.035 969.481 366.823 996.584C389.555 1018.18 425.548 1009.71 449.227 993.196C437.861 981.339 434.073 983.88 433.125 958.047C478.589 1021.15 525.948 974.563 532.578 917.392C556.257 919.086 574.253 910.194 582.778 894.524C584.672 897.912 582.778 893.677 585.619 900.453C586.566 902.994 585.619 902.571 587.513 906.382C588.461 891.983 591.302 883.937 592.25 874.197C546.786 872.08 450.174 865.304 428.389 831.002C406.604 795.428 471.012 715.389 537.313 756.891C528.789 740.376 510.793 720.471 482.378 723.012C454.91 725.553 444.491 746.304 431.231 759.855C424.6 730.212 436.913 700.144 449.227 680.24C457.751 665.842 458.699 665.419 471.012 655.255C481.431 647.208 493.744 642.55 502.268 634.928C461.54 641.703 425.548 681.934 411.34 714.543C383.873 706.073 360.193 702.262 337.461 721.318C321.359 734.447 309.993 758.161 309.993 790.771L303.362 795.005Z" fill="#F8DEC6"/>
<path fill-rule="evenodd" clip-rule="evenodd" d="M2491.33 886.906C2489.43 890.294 2490.38 891.564 2487.54 897.07C2497.01 897.917 2503.64 899.187 2510.27 903.422C2515.95 906.81 2521.63 912.738 2520.69 914.856C2525.42 921.632 2515.95 916.126 2525.42 920.361C2551 870.39 2604.04 858.109 2643.82 905.116C2654.24 917.82 2648.56 911.892 2663.71 916.126C2674.13 918.667 2676.97 922.902 2683.6 930.948C2702.54 920.361 2730.01 908.928 2748.96 930.948C2755.59 924.173 2753.69 918.244 2761.27 912.738C2766.95 908.081 2775.48 908.504 2784 907.234L2767.9 880.977C2710.12 897.07 2670.34 879.706 2629.61 848.792C2675.08 856.415 2697.81 856.838 2722.43 822.96C2752.74 781.035 2732.85 745.462 2721.49 719.629C2698.76 684.903 2578.47 663.305 2553.84 779.341C2507.43 781.035 2491.33 822.536 2507.43 872.508L2504.59 874.624C2496.06 880.13 2495.11 879.283 2491.33 886.906Z" fill="#F8DEC6"/>
<path fill-rule="evenodd" clip-rule="evenodd" d="M23 827.192C92.1435 842.861 134.767 894.526 134.767 984.729C177.389 972.871 204.857 968.213 237.06 1008.87L249.374 1031.74C251.269 1039.36 251.268 1034.7 248.427 1038.93C256.004 1055.03 258.845 1056.72 261.687 1077.9C267.37 1068.16 281.578 1052.06 295.785 1048.25C317.57 1042.75 337.46 1053.76 344.091 1066.04C342.196 1039.36 317.57 1024.96 290.102 1026.65C283.472 957.625 251.268 957.625 212.434 961.86C197.28 919.512 193.491 873.775 139.502 834.391C81.7249 792.043 40.9963 821.687 47.6268 780.185C51.4157 761.128 64.6759 766.21 74.1472 756.893C74.1472 756.893 86.461 745.036 89.3018 742.495C95.9323 735.295 98.774 732.331 101.616 720.896C87.4074 731.484 83.6193 741.224 60.887 741.648C40.9963 742.071 34.3666 732.754 23 722.59L23 827.192Z" fill="#F8DEC6"/>
<path fill-rule="evenodd" clip-rule="evenodd" d="M2246.01 934.34L2248.85 931.375C2262.11 916.976 2263.06 915.282 2284.84 910.625C2274.42 897.073 2259.27 889.45 2266.85 864.888C2271.58 844.984 2285.79 844.56 2305.68 841.172C2309.47 794.589 2348.3 791.625 2362.51 821.269C2391.87 811.528 2402.29 778.497 2401.35 736.148C2399.45 703.116 2356.83 700.999 2344.51 699.728C2326.52 697.187 2339.78 694.646 2323.68 689.141C2309.47 684.059 2315.15 691.682 2300 681.094C2280.11 666.273 2253.59 656.956 2230.85 664.579C2272.53 669.661 2310.42 695.917 2304.73 748.853C2300 800.941 2269.69 820.422 2222.33 814.916C2237.48 826.351 2234.64 853.877 2227.07 872.511C2246.01 894.532 2253.59 884.791 2246.01 934.34Z" fill="#F8DEC6"/>
<path fill-rule="evenodd" clip-rule="evenodd" d="M2145.61 951.273C2142.77 997.008 2160.76 989.81 2182.55 1002.09C2167.39 1013.95 2163.6 1033.85 2179.71 1049.1C2194.86 1063.92 2217.59 1053.76 2233.69 1049.52C2228.01 1061.8 2220.43 1083.82 2231.8 1098.22C2243.17 1112.62 2260.22 1107.12 2276.32 1104.15L2278.21 1100.34C2287.68 1084.25 2290.52 1083.82 2292.42 1060.96L2278.21 1066.46L2274.42 1086.36C2260.22 1079.16 2246.96 1063.07 2247.9 1039.36C2247.9 1009.29 2270.63 1001.67 2253.59 989.81C2249.8 990.233 2244.11 977.952 2242.22 968.212C2240.32 955.507 2245.06 944.92 2246.01 934.333L2240.32 940.262C2223.28 957.201 2206.23 955.083 2204.33 934.333C2204.33 930.945 2211.91 903.842 2182.55 919.087C2180.65 926.286 2196.76 950.002 2163.6 952.119C2168.34 967.365 2168.34 969.059 2153.19 972.023L2152.24 952.542L2145.61 951.273Z" fill="#F8DEC6"/>
<path fill-rule="evenodd" clip-rule="evenodd" d="M2282.95 1151.16L2283.9 1154.97C2336.94 1182.92 2299.05 1169.37 2342.62 1173.18C2343.57 1173.18 2344.51 1173.6 2345.46 1173.6C2351.14 1174.87 2347.36 1173.18 2351.14 1175.72L2362.51 1174.03C2349.25 1140.57 2361.56 1145.23 2370.09 1122.79C2362.51 1105.42 2360.62 1099.07 2357.77 1077.47L2352.09 1094.84C2341.67 1080.01 2317.05 1068.16 2297.16 1085.1C2279.16 1100.76 2281.05 1121.52 2282.95 1151.16Z" fill="#F8DEC6"/>
<path fill-rule="evenodd" clip-rule="evenodd" d="M3069.1 927.982C3060.57 982.612 2999.01 952.121 2970.59 959.743C2976.28 963.555 2981.96 965.672 2988.59 969.484C3014.16 984.306 2987.64 984.73 3024.58 984.73C3042.58 984.73 3043.53 991.505 3046.37 995.316C2973.43 1005.9 2993.33 1079.59 2887.24 1061.38C2874.93 1063.92 2891.03 1054.6 2880.61 1069C2880.61 1069.43 2879.67 1070.27 2879.67 1070.7C2879.67 1071.12 2878.72 1071.97 2878.72 1072.39C2873.98 1077.05 2872.09 1074.08 2865.46 1080.01C2885.35 1082.98 2883.45 1087.64 2904.29 1087.21C2922.29 1087.21 2930.81 1094.84 2945.97 1098.65C2958.28 1083.4 2963.02 1068.58 2988.59 1056.3C3017.01 1042.32 3031.21 1052.49 3058.68 1052.06C3086.15 1010.14 3104.14 981.342 3168.55 977.954C3157.19 951.274 3121.19 943.228 3098.46 964.402C3088.99 973.295 3097.51 969.06 3077.62 983.459C3077.62 983.883 3076.68 984.73 3075.73 985.153C3080.47 961.014 3091.83 953.815 3106.99 944.075C3100.36 923.747 3094.67 923.747 3076.68 928.406C3076.68 916.124 3076.68 914.007 3072.89 905.114C3073.83 918.242 3075.73 918.242 3069.1 927.982Z" fill="#F8DEC6"/>
<path fill-rule="evenodd" clip-rule="evenodd" d="M502.271 634.93C493.747 642.552 481.434 647.21 471.014 655.257C458.701 665.421 457.754 665.844 449.23 680.242C436.916 700.147 424.603 730.214 431.234 759.858C444.494 746.307 454.913 725.555 482.381 723.014C510.796 720.473 528.792 740.378 537.316 756.893C471.014 715.392 406.607 795.43 428.392 831.004C450.177 865.306 546.788 872.082 592.252 874.199C591.305 883.939 588.463 891.986 587.516 906.385C588.463 926.288 600.776 940.263 614.037 947.039C637.716 954.238 652.871 944.922 667.078 931.37C674.656 939.84 668.973 945.345 691.705 950.851C660.449 965.249 653.818 995.316 681.287 1018.61C697.388 1015.22 687.916 1004.21 711.596 1011.41C713.49 1015.64 713.49 1021.15 714.437 1024.11C717.278 1033.01 713.49 1028.77 719.173 1032.58C709.701 1035.97 708.754 1039.36 701.176 1044.44C733.38 1036.39 764.637 1026.65 793.052 1050.37C811.996 1066.04 826.203 1099.49 828.098 1138.88C811.049 1145.23 808.207 1153.7 797.788 1165.56C835.675 1152.43 861.249 1124.48 902.924 1180.8C902.924 1165.56 895.347 1161.75 902.924 1152.43C909.554 1143.11 920.92 1144.38 930.392 1149.04C937.022 1155.39 928.498 1187.58 975.856 1197.74C1005.22 1204.1 1022.27 1196.47 1036.47 1171.49L1049.73 1196.9C1047.84 1171.06 1044.05 1160.48 1039.32 1138.45C1027 1123.63 1028.9 1117.28 1012.8 1105.85C966.384 1073.66 921.867 1105.85 893.452 1143.96C877.351 1127.02 875.456 1129.56 847.988 1127.44C843.252 1095.26 837.569 1086.37 819.573 1072.81C824.309 993.622 788.316 1015.64 770.32 994.893C811.996 971.178 796.841 916.971 797.788 905.961C798.736 891.139 817.678 893.256 809.154 861.495C800.629 833.122 813.89 841.591 811.996 814.064C811.049 775.104 777.898 781.033 769.373 770.022C758.007 754.776 739.063 709.04 680.339 736.99C671.814 742.495 655.713 757.74 651.924 768.751C647.188 717.932 632.981 682.783 607.407 660.762C579.939 636.623 545.841 622.225 502.271 634.93Z" fill="#FAEDDA"/>
<path fill-rule="evenodd" clip-rule="evenodd" d="M2889.14 772.564C2871.14 778.07 2872.09 785.693 2862.62 797.55L2832.31 788.234C2803.89 789.081 2790.63 795.009 2777.37 813.219C2760.32 836.934 2767.9 853.027 2767.9 880.977L2784 907.233C2775.48 908.504 2766.95 908.08 2761.27 912.738C2753.69 918.243 2755.59 924.172 2748.96 930.948C2730.01 908.927 2702.55 920.361 2683.6 930.948C2676.97 922.902 2674.13 918.667 2663.71 916.126C2648.56 911.892 2654.24 917.82 2643.82 905.116C2604.04 858.109 2551 870.39 2525.42 920.361C2515.95 916.126 2525.42 921.631 2520.69 914.856C2501.75 906.81 2490.38 901.305 2465.75 904.692C2461.02 858.109 2421.24 838.628 2373.88 849.639C2312.31 864.461 2298.1 915.279 2293.37 919.514C2280.11 929.678 2234.64 917.82 2253.59 989.813C2270.64 1001.67 2247.9 1009.29 2247.9 1039.36C2246.96 1063.08 2260.22 1079.17 2274.42 1086.37L2278.21 1066.46L2292.42 1060.96C2290.53 1083.83 2287.69 1084.25 2278.21 1100.34L2276.32 1104.15C2272.53 1127.02 2272.53 1135.92 2282.95 1151.16C2281.05 1121.52 2279.16 1100.77 2297.16 1085.1C2317.05 1068.16 2341.67 1080.02 2352.09 1094.84L2357.78 1077.47C2360.62 1099.07 2362.51 1105.43 2370.09 1122.79C2361.56 1145.23 2349.25 1140.57 2362.51 1174.03L2351.15 1175.72C2334.1 1181.65 2322.73 1193.93 2317.99 1213.84C2283.9 1212.57 2252.64 1219.34 2246.96 1260.84C2243.17 1291.76 2253.59 1289.64 2241.27 1296.84C2209.07 1299.38 2204.33 1304.46 2199.6 1340.88C2160.76 1335.8 2166.45 1342.15 2137.09 1356.13C2127.61 1360.79 2089.73 1378.57 2081.2 1378.57C2104.88 1380.69 2188.23 1374.76 2197.7 1359.94C2208.12 1344.27 2203.39 1327.76 2226.12 1314.63C2245.06 1304.04 2264.95 1312.09 2284.84 1315.47C2278.21 1305.31 2266.85 1303.19 2257.38 1296.84C2255.48 1276.94 2253.59 1264.23 2264.01 1251.95C2262.11 1259.57 2267.79 1268.89 2269.69 1275.67L2276.32 1249.83C2285.79 1218.5 2317.05 1223.15 2339.78 1225.7C2334.1 1217.65 2330.31 1218.5 2325.57 1212.57C2343.57 1169.79 2380.51 1196.47 2389.03 1144.39C2376.72 1145.23 2372.93 1154.13 2365.35 1159.63C2364.41 1151.16 2364.41 1146.5 2368.19 1140.15L2380.51 1128.29C2364.41 1104.15 2365.35 1052.91 2402.29 1033.01C2417.45 1024.54 2421.24 1028.77 2429.76 1039.36C2440.18 1024.96 2443.02 994.894 2485.64 987.696L2480.91 1031.31C2466.7 1024.54 2456.28 1030.04 2445.86 1035.13C2453.44 1041.9 2442.07 1036.4 2451.55 1037.67C2454.39 1038.09 2455.33 1037.67 2458.18 1037.67C2464.81 1037.24 2463.86 1035.13 2473.33 1038.09C2486.59 1042.75 2480.91 1048.25 2485.64 1065.19L2489.43 1055.88C2493.22 1047.83 2488.48 1052.07 2495.12 1046.56C2501.75 1041.05 2507.43 1044.44 2512.16 1048.68C2498.9 1056.3 2497.96 1055.88 2497.96 1077.9C2511.22 1064.77 2506.48 1062.65 2529.21 1063.92C2522.58 1025.39 2534.9 1017.76 2567.1 1016.49C2550.05 1008.45 2551 1006.75 2530.16 1012.26C2538.68 971.603 2566.15 956.357 2602.15 967.368C2622.04 973.297 2615.41 970.756 2621.09 968.639C2632.46 963.98 2642.87 958.475 2653.29 972.027C2653.29 971.603 2654.24 969.486 2654.24 970.333C2658.98 979.226 2650.45 964.827 2670.34 958.475L2678.87 955.934L2663.71 947.888C2678.87 936.03 2711.07 925.866 2729.07 934.336C2717.7 940.265 2701.6 945.771 2693.07 954.24C2679.81 967.792 2680.76 977.956 2673.18 988.543C2646.66 970.756 2626.77 991.083 2633.4 1025.39C2634.35 1024.54 2634.35 1022.42 2635.3 1022.85C2635.3 1024.96 2637.19 1006.75 2645.72 999.129C2652.35 992.777 2668.45 987.696 2672.24 999.976C2672.24 1000.82 2672.24 1002.09 2673.18 1002.52L2675.08 1015.22C2676.97 1022.42 2678.87 1027.08 2685.5 1031.74C2697.81 1041.48 2711.07 1034.7 2723.38 1030.89C2716.75 1017.34 2711.07 1024.54 2708.23 1006.33C2705.39 994.894 2709.18 985.578 2714.86 977.956C2726.22 961.439 2745.17 955.51 2768.85 955.934L2771.69 952.122C2771.69 951.699 2773.58 949.159 2773.58 948.312C2778.32 940.265 2783.05 935.607 2796.32 941.112C2818.1 949.582 2803.89 958.898 2821.89 970.333C2818.1 941.112 2826.62 929.254 2847.46 922.902C2838.94 891.564 2837.99 893.258 2849.36 865.308C2833.26 876.742 2830.41 885.212 2832.31 910.621C2820.94 915.703 2817.15 920.361 2809.58 928.407C2807.68 925.019 2770.74 896.646 2788.74 853.874C2797.26 834.817 2832.31 816.184 2842.73 836.511L2845.57 845.827C2845.57 846.251 2845.57 847.521 2846.52 847.945C2884.4 827.618 2873.98 778.07 2904.29 791.622C2914.71 795.856 2917.55 804.749 2923.24 814.49C2927.02 789.081 2930.81 778.917 2955.44 784.846C2955.44 761.554 2960.18 756.895 2981.01 753.932C2981.01 730.216 2981.01 733.604 2991.43 717.511C2981.01 720.899 2981.01 721.322 2976.28 733.18C2952.6 730.216 2944.07 736.568 2942.18 761.977C2919.45 755.625 2920.39 764.942 2909.98 778.917C2901.45 772.141 2900.5 773.411 2889.14 772.564Z" fill="#FAEDDA"/>
<path fill-rule="evenodd" clip-rule="evenodd" d="M2120.04 939.841C2120.98 940.265 2121.93 940.688 2121.93 941.535C2123.82 947.464 2133.3 952.545 2145.61 951.276L2152.24 952.545L2153.19 972.026C2168.34 969.062 2168.34 967.368 2163.61 952.122C2196.76 950.005 2180.65 926.289 2182.55 919.09C2211.91 903.845 2204.33 930.948 2204.33 934.336C2206.23 955.086 2223.28 957.204 2240.33 940.265L2246.01 934.336C2253.59 884.788 2246.01 894.528 2227.07 872.507C2234.64 853.873 2237.49 826.347 2222.33 814.913C2269.69 820.418 2300 800.937 2304.73 748.849C2310.42 695.913 2272.53 669.657 2230.85 664.575C2186.34 664.575 2143.71 707.347 2142.77 754.777C2141.82 787.386 2147.5 769.176 2134.24 790.774C2128.56 800.937 2124.77 814.066 2125.72 829.311C2128.56 867.425 2152.24 875.894 2160.76 886.058C2141.82 892.834 2148.45 896.646 2136.14 906.386C2119.09 918.666 2121.93 913.584 2120.04 939.841Z" fill="#FAEDDA"/>
<path fill-rule="evenodd" clip-rule="evenodd" d="M948.386 1359.94C962.595 1363.75 972.066 1373.49 986.273 1380.69C999.534 1387.46 1014.69 1392.55 1030.79 1395.09C1059.21 1399.75 1106.56 1398.05 1127.4 1383.23C1116.04 1361.21 1030.79 1364.6 1005.22 1367.98C999.534 1345.96 992.904 1343.42 969.224 1340.46C960.7 1299.38 946.493 1292.6 907.659 1298.96C902.922 1269.74 881.138 1256.61 851.775 1260.42C850.828 1242.21 847.04 1235.01 831.885 1231.62C834.726 1207.06 830.938 1199.01 809.153 1199.86L800.628 1216.8C796.84 1212.99 799.681 1216.38 795.893 1210.87C782.632 1191.39 773.16 1178.26 737.168 1195.63C730.538 1188.43 718.224 1174.03 703.07 1171.49C685.073 1168.1 678.444 1175.3 668.024 1185.46L664.236 1188.85C630.138 1165.98 588.462 1182.5 629.191 1215.11C639.609 1207.06 650.028 1200.28 664.236 1215.53C666.131 1217.22 667.077 1219.34 668.971 1220.61C672.76 1225.69 668.971 1221.88 672.76 1225.69C698.334 1210.02 725.802 1204.1 750.428 1227.81C763.689 1241.36 768.424 1288.37 807.259 1264.23C809.153 1252.37 810.1 1251.53 803.47 1244.75C811.995 1242.63 822.413 1241.79 827.149 1250.26C832.832 1259.15 825.255 1263.81 820.519 1272.28C862.195 1273.12 891.557 1282.86 899.134 1326.48C910.5 1313.35 927.549 1307 932.285 1334.11L915.236 1341.31C918.077 1362.9 931.337 1361.63 948.386 1359.94Z" fill="#FAEDDA"/>
<path fill-rule="evenodd" clip-rule="evenodd" d="M2887.24 1061.38C2993.32 1079.59 2973.43 1005.9 3046.37 995.317C3043.52 991.506 3042.58 984.73 3024.58 984.73C2987.64 984.73 3014.16 984.307 2988.59 969.485C2981.96 965.673 2976.28 963.556 2970.59 959.744C2999.01 952.121 3060.57 982.613 3069.1 927.983C3072.89 908.079 3069.1 889.022 3055.84 882.246C3040.68 874.2 3021.74 875.894 3006.59 882.246C2980.06 894.104 2964.91 919.089 2963.96 958.05C2913.76 959.321 2885.35 991.505 2880.61 1039.36C2879.66 1055.88 2878.72 1052.06 2887.24 1061.38Z" fill="#FAEDDA"/>
<path fill-rule="evenodd" clip-rule="evenodd" d="M23.0029 722.59C34.3695 732.754 40.9992 742.071 60.8899 741.647C83.6223 741.224 87.4104 731.483 101.619 720.896C112.984 710.309 111.09 680.241 105.407 664.573C98.7769 646.786 87.4104 636.198 76.9918 624.765C103.512 560.394 88.3576 504.071 23.0029 500.26L23.0029 722.59Z" fill="#FAEDDA"/>
<path fill-rule="evenodd" clip-rule="evenodd" d="M2814.31 555.739L2816.21 609.945C2818.1 605.71 2817.15 609.945 2818.1 602.745C2824.73 566.326 2819.05 526.518 2855.99 472.312C2881.56 435.469 2909.03 414.718 2970.59 415.565C2984.8 393.12 2996.17 351.619 3040.68 339.337C3082.36 328.326 3127.82 360.088 3138.24 383.803C3139.19 380.839 3139.19 383.38 3139.19 377.451C3140.14 377.027 3139.19 372.792 3140.14 370.251C3141.08 322.397 3088.99 278.356 3034.05 287.248C3003.74 291.906 2988.59 306.729 2974.38 323.244C2958.28 343.149 2955.44 366.016 2952.6 397.779C2862.62 377.451 2829.47 479.934 2814.31 555.739Z" fill="#FAEDDA"/>
<path fill-rule="evenodd" clip-rule="evenodd" d="M2873.04 697.605C2871.14 727.673 2866.41 745.036 2883.45 764.94C2883.45 745.036 2873.04 738.26 2880.61 709.463C2884.4 691.677 2894.82 676.854 2909.97 672.197C2919.45 691.677 2924.18 717.509 2969.65 714.122C2944.07 672.62 2959.23 625.189 3004.69 617.143L2993.33 604.438C2978.17 585.382 2990.48 564.207 2995.22 550.656C2983.85 558.278 2979.12 568.442 2977.22 589.193C2937.44 598.509 2912.82 613.755 2909.03 662.033C2876.82 666.268 2886.3 682.783 2873.04 697.605Z" fill="#FAEDDA"/>
</g>
<defs>
<filter id="filter0_d_1_34295" x="0" y="0" width="3229.44" height="1438" filterUnits="userSpaceOnUse" color-interpolation-filters="sRGB">
<feFlood flood-opacity="0" result="BackgroundImageFix"/>
<feColorMatrix in="SourceAlpha" type="matrix" values="0 0 0 0 0 0 0 0 0 0 0 0 0 0 0 0 0 0 127 0" result="hardAlpha"/>
<feOffset dy="-11"/>
<feGaussianBlur stdDeviation="11.5"/>
<feComposite in2="hardAlpha" operator="out"/>
<feColorMatrix type="matrix" values="0 0 0 0 0 0 0 0 0 0 0 0 0 0 0 0 0 0 0.14 0"/>
<feBlend mode="normal" in2="BackgroundImageFix" result="effect1_dropShadow_1_34295"/>
<feBlend mode="normal" in="SourceGraphic" in2="effect1_dropShadow_1_34295" result="shape"/>
</filter>
</defs>
</svg>
