<svg width="621" height="728" viewBox="0 0 621 728" fill="none" xmlns="http://www.w3.org/2000/svg">
<path opacity="0.1" d="M347.713 342.753C337.982 335.524 327.388 329.536 316.177 324.925L402.282 85.5984L401.93 84.6036L299.636 99.7882L238.345 270.12L230.768 291.178L135.231 124.193L37.7744 138.659L160.629 353.395C141.497 371.307 127.526 394.028 120.176 419.184C112.827 444.341 112.368 471.01 118.849 496.404C125.329 521.798 138.511 544.986 157.016 563.545C175.521 582.104 198.671 595.352 224.046 601.906C256.908 610.398 291.699 607.198 322.46 592.853C353.221 578.509 378.037 553.914 392.654 523.282C407.272 492.65 410.782 457.888 402.582 424.952C394.383 392.016 374.986 362.957 347.713 342.753Z" fill="black"/>
<path d="M414.426 82.7497L327.114 323.268L316.659 352.319L296.23 345.452L268.317 336.085L229.636 323.098L231.514 317.881L241.706 289.561L241.705 289.555L249.281 268.498L310.573 98.1658L412.867 82.9812L414.426 82.7497Z" fill="#065D79"/>
<path d="M296.23 345.451L229.636 323.097L249.281 268.497L296.23 345.451Z" fill="#0B5060"/>
<path d="M269.268 337.695L251.804 347.192L188.746 381.492L188.633 381.556L171.59 351.77L18.6526 82.5188L113.153 61.0192L241.73 289.558L255.271 313.227L268.342 336.082L269.268 337.695Z" fill="#BF2201"/>
<path d="M293.025 603.299C257.235 608.572 220.763 600.363 190.683 580.266C160.604 560.169 139.061 529.615 130.234 494.533C121.408 459.45 125.926 422.34 142.913 390.401C159.9 358.461 188.145 333.97 222.168 321.677C256.191 309.385 293.568 310.168 327.046 323.874C360.525 337.58 387.72 363.233 403.354 395.856C418.989 428.479 421.95 465.746 411.661 500.428C401.373 535.11 378.57 564.734 347.675 583.554C330.974 593.748 312.385 600.464 293.025 603.299Z" fill="#AF862B"/>
<path d="M288.159 570.504C349.966 561.33 392.633 503.787 383.458 441.98C374.284 380.173 316.742 337.506 254.934 346.681C193.127 355.855 150.46 413.398 159.635 475.205C168.809 537.012 226.352 579.679 288.159 570.504Z" fill="#D3AB3C"/>
<g opacity="0.1">
<path d="M309.361 490.481L290.829 465.552L263.466 485.434L226.768 485.065L210.854 492.9L228.008 493.262L260.388 504.666L289.331 495.426L302.978 511.855L316.286 530.318L317.674 530.455L317.828 530.514L317.82 530.463L320.317 530.708L309.361 490.481Z" fill="black"/>
<path d="M332.766 403.96L324.507 419.36L321.754 438.549L301.012 458.763L309.979 476.893L320.191 505.681L320.731 505.083L321.888 503.789L321.915 488.296L319.175 467.607L331.363 445.371L333.599 416.038L332.766 403.96Z" fill="black"/>
<path d="M264.862 525.474L232.253 503.944L217.991 512.715L219.751 517.287L235.071 531.74L243.216 527.605L250.371 532.191L247.814 539.847L258.02 544.817L272.733 545.541L275.975 539.366L283.24 540.311L286.47 544.945L301.509 533.999L293.101 527.477L264.862 525.474Z" fill="black"/>
<path d="M358.482 481.247L361.127 470.932L359.882 462.817L354.05 462.944L352.414 457.015L357.015 452.278L350.307 438.594L347.527 436.401L338.416 444.372L346.301 471.516L341.635 491.449L344.34 498.661L355.113 490.599L352.612 487.388L353.519 482.17L358.482 481.247Z" fill="black"/>
<path d="M216.556 461.171L222.518 459.489L246.822 472.993L291.576 459.853L314.136 426.457L295.342 398.315L269.679 392.662L279.664 406.441L245.839 386.243L218.658 388.469L188.317 400.941L221.946 409.519L232.21 432.703L244.81 441.337L225.658 440.288L208.589 449.703L208.542 449.972L208.54 449.687C208.271 451.204 208.008 452.721 207.739 454.244L205.87 464.182L205.995 464.163L205.98 464.259L216.556 461.171Z" fill="black"/>
</g>
<path d="M310.332 489.171L291.8 464.242L264.436 484.124L227.739 483.755L211.825 491.591L228.979 491.953L261.358 503.356L290.301 494.116L303.948 510.545L317.257 529.008L318.644 529.146L318.798 529.204L318.791 529.153L321.288 529.399L310.332 489.171Z" fill="#AF862B"/>
<path d="M333.736 402.652L325.477 418.052L322.725 437.242L301.983 457.455L310.95 475.586L321.162 504.373L321.701 503.775L322.859 502.481L322.885 486.988L320.146 466.299L332.334 444.063L334.57 414.731L333.736 402.652Z" fill="#AF862B"/>
<path d="M265.831 524.167L233.222 502.636L218.96 511.407L220.72 515.979L236.04 530.433L244.185 526.298L251.339 530.884L248.782 538.539L258.989 543.509L273.701 544.234L276.943 538.058L284.209 539.004L287.438 543.637L302.477 532.692L294.07 526.169L265.831 524.167Z" fill="#AF862B"/>
<path d="M359.452 479.937L362.097 469.622L360.852 461.507L355.019 461.634L353.383 455.706L357.985 450.969L351.277 437.284L348.497 435.091L339.385 443.063L347.271 470.206L342.604 490.139L345.309 497.351L356.083 489.29L353.582 486.078L354.488 480.86L359.452 479.937Z" fill="#AF862B"/>
<path d="M217.525 459.859L223.487 458.177L247.792 471.681L292.546 458.541L315.106 425.145L296.312 397.004L270.649 391.35L280.634 405.13L246.809 384.931L219.628 387.157L189.286 399.63L222.916 408.207L233.18 431.391L245.78 440.025L226.628 438.977L209.559 448.391L209.511 448.66L209.51 448.375C209.241 449.893 208.977 451.409 208.709 452.932L206.84 462.87L206.965 462.852L206.95 462.947L217.525 459.859Z" fill="#AF862B"/>
<g opacity="0.94">
<path d="M371.987 395.161L401.404 491.686L312.814 540.001L409.339 510.584L457.654 599.173L428.237 502.648L516.827 454.333L420.302 483.75L371.987 395.161Z" fill="#FFF4BA" fill-opacity="0.92"/>
<g filter="url(#filter0_f_246_60574)">
<path d="M371.987 395.161L401.404 491.686L312.814 540.001L409.339 510.584L457.654 599.173L428.237 502.648L516.827 454.333L420.302 483.75L371.987 395.161Z" fill="#FFF4BC"/>
</g>
</g>
<g opacity="0.94">
<path d="M101.151 339.748L142.22 379.345L111.739 427.567L151.335 386.499L199.558 416.979L158.489 377.383L188.97 329.16L149.374 370.229L101.151 339.748Z" fill="#FFF4BA" fill-opacity="0.92"/>
<g filter="url(#filter1_f_246_60574)">
<path d="M101.151 339.748L142.22 379.345L111.739 427.567L151.335 386.499L199.558 416.979L158.489 377.383L188.97 329.16L149.374 370.229L101.151 339.748Z" fill="#FFF4BC"/>
</g>
</g>
<defs>
<filter id="filter0_f_246_60574" x="288.952" y="371.299" width="251.737" height="251.737" filterUnits="userSpaceOnUse" color-interpolation-filters="sRGB">
<feFlood flood-opacity="0" result="BackgroundImageFix"/>
<feBlend mode="normal" in="SourceGraphic" in2="BackgroundImageFix" result="shape"/>
<feGaussianBlur stdDeviation="11.9311" result="effect1_foregroundBlur_246_60574"/>
</filter>
<filter id="filter1_f_246_60574" x="77.2892" y="305.298" width="146.131" height="146.132" filterUnits="userSpaceOnUse" color-interpolation-filters="sRGB">
<feFlood flood-opacity="0" result="BackgroundImageFix"/>
<feBlend mode="normal" in="SourceGraphic" in2="BackgroundImageFix" result="shape"/>
<feGaussianBlur stdDeviation="11.9311" result="effect1_foregroundBlur_246_60574"/>
</filter>
</defs>
</svg>
