<svg width="372" height="364" viewBox="0 0 372 364" fill="none" xmlns="http://www.w3.org/2000/svg">
<path d="M174.288 291.961C146.306 252.045 134.488 158.246 247.545 128.699C197.375 129.061 99.6718 188.769 174.288 291.961Z" fill="#061031" fill-opacity="0.13"/>
<path d="M172.725 290.229C138.021 251.03 114.026 152.371 231.083 107.12C177.59 113.595 80.5772 189.168 172.725 290.229Z" fill="#EC6404"/>
<path d="M151.509 118.022C71.66 207.559 130.08 311.508 173.217 292.334C110.338 279.684 116.701 179.65 165.842 128.892C202.024 91.5199 220.278 68.2991 287.67 74.7694C258.065 63.7344 208.077 54.5904 151.509 118.022Z" fill="#061031" fill-opacity="0.13"/>
<path d="M123.324 105.422C53.0437 214.642 134.826 319.531 178.025 292.366C107.781 287.689 96.7358 177.676 140.767 115.197C173.186 69.1951 188.76 41.2252 262.776 38.5095C228.793 30.7683 173.114 28.0446 123.324 105.422Z" fill="#1299CE"/>
<path d="M134.984 302.887C98.1904 293.984 38.7315 259.017 61.0987 183.269C50.5893 237.685 95.3756 284.74 134.984 302.887Z" fill="#061031" fill-opacity="0.13"/>
<path d="M137.681 303.298C99.8353 302.416 34.3048 280.879 40.0681 202.108C41.3598 257.515 95.1207 293.98 137.681 303.298Z" fill="#F4910F"/>
</svg>
