<svg width="580" height="418" viewBox="0 0 580 418" fill="none" xmlns="http://www.w3.org/2000/svg">
<path d="M497.268 93.9062C516.378 114.654 558.534 174.131 567.914 259.967C576.055 220.963 572.051 135.926 497.268 93.9062Z" fill="#061031" fill-opacity="0.13"/>
<path d="M495.167 89.7861C509.983 113.789 540.061 180.196 532.949 266.251C548.358 229.506 560.597 145.259 495.167 89.7861Z" fill="#45825A"/>
<path d="M413.953 56.4285C529.658 168.671 521.15 404.12 50.1411 383.08C330.282 445.054 655.45 272.778 413.953 56.4285Z" fill="#061031" fill-opacity="0.13"/>
<path d="M408.046 24.4443C507.168 151.57 466.275 383.596 2.66699 297.809C271.586 397.82 617.403 272.028 408.046 24.4443Z" fill="#BF2201"/>
<path d="M384.621 33.6499C387.34 37.3109 389.864 40.9498 392.197 44.5632C559.533 293.888 135.981 263.313 12.0156 136.482C267.073 295.436 486.689 190.941 392.197 44.5632C389.794 40.9833 387.27 37.3457 384.621 33.6499Z" fill="#061031" fill-opacity="0.13"/>
<path d="M379.598 0C382.018 3.86561 384.245 7.69355 386.283 11.4808C533.277 273.315 113.495 209.178 0 72.8971C241.619 251.617 468.845 164.905 386.283 11.4808C384.173 7.72137 381.945 3.89464 379.598 0Z" fill="#F4910F"/>
</svg>
