<svg width="806" height="773" viewBox="0 0 806 773" fill="none" xmlns="http://www.w3.org/2000/svg">
<path d="M599.876 500.803C728.777 396.767 718.862 275.173 697.792 227.38C693.843 469.472 500.872 542.941 387.714 549.18C256.778 556.399 102.082 544.441 41.3704 523.881C161.326 575.99 438.749 630.848 599.876 500.803Z" fill="#061031" fill-opacity="0.13"/>
<path d="M572.508 450.119C694.987 338.594 677.851 217.805 653.973 171.352C664.444 413.249 476.188 498.076 363.602 511.04C233.328 526.041 78.1948 523.314 16.3668 506.404C139.212 551.279 419.409 589.525 572.508 450.119Z" fill="#BF2201"/>
<path d="M707.158 489.466C665.738 594.785 489.274 726.292 56.5427 512.318C237.028 615.301 612.927 729.067 707.158 489.466Z" fill="#061031" fill-opacity="0.13"/>
<path d="M703.547 444.23C672.057 552.932 508.529 700.215 57.8431 527.233C247.089 613.059 631.908 691.527 703.547 444.23Z" fill="#45825A"/>
<path d="M603.655 178.045C624.745 320.549 565.875 542.871 122.256 498.066C185.988 511.056 682.29 571.531 603.655 178.045Z" fill="#061031" fill-opacity="0.13"/>
<path d="M572.395 140.551C607.51 280.262 570.973 507.325 125.098 506.724C189.803 513.332 689.656 524.301 572.395 140.551Z" fill="#F4910F"/>
</svg>
