<svg width="32" height="45" viewBox="0 0 32 45" fill="none" xmlns="http://www.w3.org/2000/svg">
<path d="M18.5374 44.7523L22.7094 38.136C22.8197 37.9522 23.0586 37.8603 23.2607 37.9154L30.8695 39.7165C31.2738 39.8084 31.623 39.4041 31.4576 39.0181L24.9883 23.1758L11.1309 28.8364L17.6001 44.6787C17.7839 45.0647 18.2985 45.1015 18.5374 44.7523Z" fill="#F41943"/>
<path d="M20.8527 30.6719L16.3316 41.4969L11.9023 30.6719H20.8527Z" fill="#BA0F38"/>
<path d="M20.4453 28.818L19.6918 30.6559L16.9166 37.4927L16.8063 37.7684L15.8139 40.2311L13.9944 44.6787C13.829 45.0647 13.296 45.1198 13.0755 44.7523L8.90352 38.136C8.79325 37.9522 8.55433 37.8603 8.35216 37.9154L0.743416 39.7165C0.339087 39.8084 -0.0101028 39.4041 0.155305 39.0181L6.62457 23.1758L20.4453 28.818Z" fill="#F41943"/>
<path d="M26.9147 27.806C26.3082 28.339 22.026 32.0331 15.8141 32.0331C14.6378 32.0331 13.48 31.9045 12.3221 31.6655C9.51019 31.059 6.86368 29.7174 4.71338 27.806L6.60638 23.1562L8.77505 24.0384L8.97722 24.1119L15.8141 26.9055L22.6509 24.1119L22.8531 24.0384L25.0217 23.1562L26.9147 27.806Z" fill="#BA0F38"/>
<path d="M15.8024 30.6555C24.2677 30.6555 31.1301 23.793 31.1301 15.3278C31.1301 6.86247 24.2677 0 15.8024 0C7.33708 0 0.474609 6.86247 0.474609 15.3278C0.474609 23.793 7.33708 30.6555 15.8024 30.6555Z" fill="#EFA867"/>
<path d="M15.8007 29.2948C23.5149 29.2948 29.7685 23.0413 29.7685 15.3271C29.7685 7.61294 23.5149 1.35938 15.8007 1.35938C8.08658 1.35938 1.83301 7.61294 1.83301 15.3271C1.83301 23.0413 8.08658 29.2948 15.8007 29.2948Z" fill="#BA6017"/>
<path d="M15.8045 28.4517C23.0517 28.4517 28.9268 22.5766 28.9268 15.3294C28.9268 8.0821 23.0517 2.20703 15.8045 2.20703C8.5572 2.20703 2.68213 8.0821 2.68213 15.3294C2.68213 22.5766 8.5572 28.4517 15.8045 28.4517Z" fill="#EFA867"/>
</svg>
