<svg width="32" height="45" viewBox="0 0 32 45" fill="none" xmlns="http://www.w3.org/2000/svg">
<path d="M18.9002 44.7523L23.0722 38.136C23.1824 37.9522 23.4214 37.8603 23.6235 37.9154L31.2323 39.7165C31.6366 39.8084 31.9858 39.4041 31.8204 39.0181L25.3511 23.1758L11.4937 28.8364L17.9629 44.6787C18.1467 45.0647 18.6797 45.1015 18.9002 44.7523Z" fill="#F41943"/>
<path d="M21.2211 30.6719L16.6999 41.4969L12.2891 30.6719H21.2211Z" fill="#BA0F38"/>
<path d="M20.832 28.818L20.0785 30.6559L17.3033 37.4927L17.193 37.7684L16.2006 40.2311L14.3811 44.6787C14.2157 45.0647 13.6827 45.1198 13.4622 44.7523L9.29024 38.136C9.17997 37.9522 8.94104 37.8603 8.73888 37.9154L1.13014 39.7165C0.725809 39.8084 0.376616 39.4041 0.542023 39.0181L7.01129 23.1758L20.832 28.818Z" fill="#F41943"/>
<path d="M27.2834 27.806C26.6769 28.339 22.3947 32.0331 16.1827 32.0331C15.0065 32.0331 13.8486 31.9045 12.6908 31.6655C9.87885 31.059 7.23233 29.7174 5.08203 27.806L6.97503 23.1562L9.1437 24.0384L9.34587 24.1119L16.1827 26.9055L23.0195 24.1119L23.2217 24.0384L25.3904 23.1562L27.2834 27.806Z" fill="#BA0F38"/>
<path d="M16.1813 30.6555C24.6466 30.6555 31.509 23.793 31.509 15.3278C31.509 6.86247 24.6466 0 16.1813 0C7.71599 0 0.853516 6.86247 0.853516 15.3278C0.853516 23.793 7.71599 30.6555 16.1813 30.6555Z" fill="#FEDE83"/>
<path d="M16.1797 29.2948C23.8938 29.2948 30.1474 23.0413 30.1474 15.3271C30.1474 7.61294 23.8938 1.35938 16.1797 1.35938C8.46548 1.35938 2.21191 7.61294 2.21191 15.3271C2.21191 23.0413 8.46548 29.2948 16.1797 29.2948Z" fill="#E8A615"/>
<path d="M16.1834 28.4517C23.4306 28.4517 29.3057 22.5766 29.3057 15.3294C29.3057 8.0821 23.4306 2.20703 16.1834 2.20703C8.9361 2.20703 3.06104 8.0821 3.06104 15.3294C3.06104 22.5766 8.9361 28.4517 16.1834 28.4517Z" fill="#FEDE83"/>
</svg>
