<svg width="32" height="45" viewBox="0 0 32 45" fill="none" xmlns="http://www.w3.org/2000/svg">
<path d="M18.5374 44.7523L22.7094 38.136C22.8197 37.9522 23.0586 37.8603 23.2607 37.9154L30.8695 39.7165C31.2738 39.8084 31.623 39.4041 31.4576 39.0181L24.9883 23.1758L11.1309 28.8364L17.6001 44.6787C17.7655 45.0647 18.2985 45.1015 18.5374 44.7523Z" fill="#F41943"/>
<path d="M20.8343 30.6719L16.3316 41.4969L11.9023 30.6719H20.8343Z" fill="#BA0F38"/>
<path d="M20.4453 28.818L19.6918 30.6559L16.9166 37.4927L16.8063 37.7684L15.8139 40.2311L13.9944 44.6787C13.829 45.0647 13.296 45.1198 13.0755 44.7523L8.90352 38.136C8.79325 37.9522 8.55433 37.8603 8.35216 37.9154L0.743419 39.7165C0.33909 39.8084 -0.010103 39.4041 0.155304 39.0181L6.62457 23.1758L20.4453 28.818Z" fill="#F41943"/>
<path d="M26.8967 27.806C26.2902 28.339 22.008 32.0331 15.796 32.0331C14.6198 32.0331 13.4619 31.9045 12.3041 31.6655C9.49213 31.059 6.84561 29.7174 4.69531 27.806L6.58831 23.1562L8.75698 24.0384L8.95915 24.1119L15.796 26.9055L22.6328 24.1119L22.835 24.0384L25.0037 23.1562L26.8967 27.806Z" fill="#BA0F38"/>
<path d="M15.7926 30.6555C24.2579 30.6555 31.1203 23.793 31.1203 15.3278C31.1203 6.86247 24.2579 0 15.7926 0C7.32731 0 0.464844 6.86247 0.464844 15.3278C0.464844 23.793 7.32731 30.6555 15.7926 30.6555Z" fill="#EBF2F2"/>
<path d="M15.791 29.2948C23.5051 29.2948 29.7587 23.0413 29.7587 15.3271C29.7587 7.61294 23.5051 1.35938 15.791 1.35938C8.07681 1.35938 1.82324 7.61294 1.82324 15.3271C1.82324 23.0413 8.07681 29.2948 15.791 29.2948Z" fill="#C3DBDA"/>
<path d="M15.7947 28.4517C23.0419 28.4517 28.917 22.5766 28.917 15.3294C28.917 8.0821 23.0419 2.20703 15.7947 2.20703C8.54743 2.20703 2.67236 8.0821 2.67236 15.3294C2.67236 22.5766 8.54743 28.4517 15.7947 28.4517Z" fill="#EBF2F2"/>
</svg>
